<?xml version="1.0" encoding="utf-8"?>
<!-- Generator: Adobe Illustrator 16.0.0, SVG Export Plug-In . SVG Version: 6.00 Build 0)  -->
<!DOCTYPE svg PUBLIC "-//W3C//DTD SVG 1.1//EN" "http://www.w3.org/Graphics/SVG/1.1/DTD/svg11.dtd">
<svg version="1.1" id="Layer_2" xmlns="http://www.w3.org/2000/svg" xmlns:xlink="http://www.w3.org/1999/xlink" x="0px" y="0px"
	 width="512px" height="512px" viewBox="0 0 512 512" enable-background="new 0 0 512 512" xml:space="preserve">
<g>
	<polygon fill="#FFFFFF" stroke="#000000" stroke-miterlimit="10" points="482.697,483.319 30.176,483.319 30.176,30.378 
		303.286,30.378 289.42,12.311 360.009,30.798 360.849,48.445 337.739,42.143 348.664,64.412 294.462,85 379.756,84.16 
		289.42,142.983 416.311,103.067 378.496,237.521 426.815,158.529 442.781,228.697 472.613,111.471 467.151,96.765 486.899,96.345 
		505.807,125.756 482.697,127.437 	"/>
	<polygon points="464.21,463.991 48.244,463.991 48.244,50.966 322.613,50.966 201.185,98.866 322.193,100.966 133.118,208.95 
		387.739,131.218 320.093,365.252 418.832,209.37 435.639,308.949 464.21,210.21 464.21,257.479 464.21,290.462 	"/>
	<polygon fill="#CF5E33" points="133.118,208.95 65.471,242.143 65.471,66.513 282.277,66.513 201.185,98.866 322.193,100.966 	"/>
	<polygon fill="#CF5E33" points="435.639,308.949 444.883,277.003 444.883,445.084 289.42,445.084 320.093,365.252 418.832,209.37 	
		"/>
	<polygon fill="#FFFFFF" stroke="#FFFFFF" stroke-miterlimit="10" points="215.471,129.118 186.899,158.529 178.916,121.975 	"/>
	<polygon fill="#FFFFFF" stroke="#FFFFFF" stroke-miterlimit="10" points="406.647,310.63 383.117,317.773 394.883,286.261 	"/>
	<polygon fill="#FFFFFF" stroke="#FFFFFF" stroke-miterlimit="10" points="442.361,394.244 404.126,394.244 424.294,356.429 
		439,372.815 	"/>
	<polygon fill="#FFFFFF" stroke="#FFFFFF" stroke-miterlimit="10" points="240.021,264.787 162.49,341.58 176.401,354.558 
		252.547,277.219 265.515,290.089 176.072,379.769 136.856,340.411 225.862,250.733 	"/>
	<polygon fill="#FFFFFF" stroke="#FFFFFF" stroke-miterlimit="10" points="214.493,434.115 179.894,385.366 211.175,354.373 	"/>
	<polygon fill="#FFFFFF" stroke="#FFFFFF" stroke-miterlimit="10" points="82.662,300.443 131.367,335.103 162.399,303.86 	"/>
	<polygon fill="#FFFFFF" stroke="#FFFFFF" stroke-miterlimit="10" points="229.69,226.494 267.991,190.882 359.588,158.529 
		313.79,265.252 292.361,285.84 269.252,289.201 227.235,247.815 	"/>
	
		<rect x="301.879" y="171.283" transform="matrix(0.9639 -0.2663 0.2663 0.9639 -48.2358 89.6619)" stroke="#000000" stroke-miterlimit="10" width="9.245" height="102.825"/>
	
		<rect x="321.891" y="153.703" transform="matrix(0.9639 -0.2662 0.2662 0.9639 -42.826 94.3377)" stroke="#000000" stroke-miterlimit="10" width="9.245" height="102.824"/>
	<rect x="340.034" y="158.807" transform="matrix(0.9639 -0.2663 0.2663 0.9639 -36.8762 98.4691)" width="9.245" height="52.809"/>
	<polygon fill="#FFFFFF" points="227.235,45.084 221.353,60.63 201.186,45.084 227.235,45.084 	"/>
	<polygon fill="#FFFFFF" points="148.244,382.899 133.538,369.454 133.538,346.765 170.092,382.899 	"/>
</g>
</svg>
