<?xml version="1.0" encoding="utf-8"?>
<!-- Generator: Adobe Illustrator 16.0.0, SVG Export Plug-In . SVG Version: 6.00 Build 0)  -->
<!DOCTYPE svg PUBLIC "-//W3C//DTD SVG 1.1//EN" "http://www.w3.org/Graphics/SVG/1.1/DTD/svg11.dtd">
<svg version="1.1" id="Layer_2" xmlns="http://www.w3.org/2000/svg" xmlns:xlink="http://www.w3.org/1999/xlink" x="0px" y="0px"
	 width="512px" height="512px" viewBox="0 0 512 512" enable-background="new 0 0 512 512" xml:space="preserve">
<g>
	<polygon fill="#FFFFFF" stroke="#000000" stroke-miterlimit="10" points="482.277,488.361 304.967,487.941 293.202,500.967 
		262.949,454.748 219.672,496.765 196.143,424.916 112.95,512 100.765,373.655 28.916,445.504 28.916,35.42 482.277,35.42 	"/>
	<polygon points="464.21,469.454 319.252,469.454 344.883,437.941 344.883,421.135 335.219,421.135 291.941,469.454 264.21,426.177 
		227.235,465.252 203.706,385.42 125.975,473.655 112.95,329.538 48.244,398.026 48.244,53.487 464.21,53.487 	"/>
	<polygon fill="#F2C439" points="446.143,451.807 372.613,451.807 346.983,451.807 355.387,440.883 354.967,409.79 331.857,410.21 
		294.883,451.807 265.024,404.304 235.639,436.261 212.109,346.765 131.437,457.689 126.395,294.244 65.891,351.387 65.891,71.555 
		446.143,71.555 	"/>
	<polygon stroke="#000000" stroke-miterlimit="10" points="231.437,282.059 133.538,451.807 231.857,145.504 270.933,198.445 
		342.361,0.002 452.043,51.817 268.412,369.033 	"/>
	<polygon fill="#FFFFFF" stroke="#000000" stroke-miterlimit="10" points="232.774,259.41 133.538,451.807 237.319,172.395 
		273.874,223.655 356.686,6.769 438.255,45.303 270.513,343.823 	"/>
</g>
</svg>
