<?xml version="1.0" encoding="utf-8"?>
<!-- Generator: Adobe Illustrator 16.0.0, SVG Export Plug-In . SVG Version: 6.00 Build 0)  -->
<!DOCTYPE svg PUBLIC "-//W3C//DTD SVG 1.1//EN" "http://www.w3.org/Graphics/SVG/1.1/DTD/svg11.dtd">
<svg version="1.1" id="Layer_2" xmlns="http://www.w3.org/2000/svg" xmlns:xlink="http://www.w3.org/1999/xlink" x="0px" y="0px"
	 width="512px" height="512px" viewBox="0 0 512 512" enable-background="new 0 0 512 512" xml:space="preserve">
<g>
	<rect x="28.916" y="29.118" fill="#FFFFFF" stroke="#000000" stroke-miterlimit="10" width="453.361" height="453.362"/>
	<rect x="48.244" y="48.025" stroke="#000000" stroke-miterlimit="10" width="414.706" height="415.126"/>
	<rect x="65.471" y="66.513" fill="#BE9431" width="379.412" height="379.412"/>
	<polygon stroke="#000000" stroke-miterlimit="10" points="428.076,115.672 428.076,355.168 255.597,463.151 85.219,354.748 
		85.219,115.672 255.177,48.025 	"/>
	<ellipse stroke="#000000" stroke-miterlimit="10" cx="253.076" cy="115.969" rx="117.017" ry="115.966"/>
	<path fill="#FFFFFF" stroke="#FFFFFF" stroke-miterlimit="10" d="M355.744,66.428c0,0-101.344-131.028-204.201,0.129
		c0,0-10.041,67.653-35.23,100.442c0,0,3.79,12.184,14.295,13.438c10.505,1.253,3.354-10.508,23.938-15.982
		c20.585-5.476,32.793,30.231,32.793,30.231s7.591,42.852,6.775,82.349c0,0,7.978-6.729,11.328-24.798
		c3.35-18.068,1.236-35.715,6.693-45.802l14.712,9.654l14.271-22.698l12.822,12.177l-0.865,0.021l12.814-12.185l14.286,22.689
		l14.706-9.664c5.463,10.084,3.361,27.731,6.723,45.798c3.361,18.068,11.344,24.79,11.344,24.79
		c-0.841-39.496,6.723-82.353,6.723-82.353s12.186-35.714,32.773-30.252s13.445,17.227,23.949,15.967s14.286-13.446,14.286-13.446
		c-25.21-32.773-35.294-100.42-35.294-100.42c-102.941-131.092-204.202,0-204.202,0"/>
	<path stroke="#000000" stroke-miterlimit="10" d="M253.076,150.126c-9.033-1.261-12.396,0-12.396,0
		c-10.504,8.403-17.227,0-17.227,0c-13.446-15.546,23.95-59.664,23.95-59.664s6.308-6.704,11.556-0.028
		c0,0,37.24,44.248,23.739,59.747c0,0-6.752,8.38-17.227-0.061c0,0-3.358-1.272-12.396-0.044"/>
	<path stroke="#000000" stroke-miterlimit="10" d="M183.958,57.689c0,0-31.513-0.84-26.471,50.42c0,0-0.42,13.38,26.471,12.572
		c0,0,31.215-7.222,45.798-37.782S183.958,57.689,183.958,57.689z"/>
	<path stroke="#000000" stroke-miterlimit="10" d="M324.703,57.69c0,0,31.514-0.827,26.45,50.432c0,0,0.415,13.379-26.476,12.561
		c0,0-31.211-7.234-45.782-37.8C264.324,52.316,324.703,57.69,324.703,57.69z"/>
	<path fill="#FFFFFF" stroke="#FFFFFF" stroke-miterlimit="10" d="M255.597,415.191l17.249-18.887l7.383,7.992l18.291-45.779
		l12.998,23.967c15.157-27.295,40.121-178.106,40.121-178.106c7.998-12.176,9.668-4.61,9.668-4.61s0.828,10.505,15.102,21.446
		c0,0-31.992,51.644-50.615,169.269c0,0-26.936,38.205-69.16,38.156l-1.036,0.059c-42.227,0-69.118-38.235-69.118-38.235
		c-18.487-117.647-50.42-169.327-50.42-169.327c14.286-10.924,15.126-21.429,15.126-21.429s1.68-7.563,9.664,4.622
		c0,0,24.79,150.841,39.916,178.152l13.025-23.95l18.239,45.799l7.392-7.983l17.227,18.907"/>
	<ellipse fill="#FFFFFF" stroke="#FFFFFF" stroke-miterlimit="10" cx="252.656" cy="294.664" rx="47.689" ry="48.319"/>
	<polygon fill="#FFFFFF" stroke="#FFFFFF" stroke-miterlimit="10" points="270.933,252.647 234.378,252.647 234.378,231.936 
		247.824,242.291 258.328,242.291 270.933,231.936 	"/>
	
		<ellipse fill="#FFFFFF" stroke="#000000" stroke-width="5" stroke-miterlimit="10" cx="253.147" cy="295.085" rx="32.5" ry="33.192"/>
	<ellipse stroke="#000000" stroke-miterlimit="10" cx="252.821" cy="294.761" rx="22.965" ry="22.886"/>
	<polygon stroke="#000000" stroke-miterlimit="10" points="253.757,230.624 247.848,219.01 234.931,217.296 244.149,208.086 
		241.789,195.271 253.396,201.193 264.854,194.988 262.809,207.858 272.252,216.838 259.379,218.87 	"/>
</g>
</svg>
