<?xml version="1.0" encoding="utf-8"?>
<!-- Generator: Adobe Illustrator 16.0.0, SVG Export Plug-In . SVG Version: 6.00 Build 0)  -->
<!DOCTYPE svg PUBLIC "-//W3C//DTD SVG 1.1//EN" "http://www.w3.org/Graphics/SVG/1.1/DTD/svg11.dtd">
<svg version="1.1" id="Layer_2" xmlns="http://www.w3.org/2000/svg" xmlns:xlink="http://www.w3.org/1999/xlink" x="0px" y="0px"
	 width="512px" height="512px" viewBox="0 0 512 512" enable-background="new 0 0 512 512" xml:space="preserve">
<g>
	<rect x="28.916" y="36.261" fill="#FFFFFF" stroke="#000000" stroke-miterlimit="10" width="452.941" height="445.378"/>
	<rect x="48.244" y="54.748" stroke="#000000" stroke-miterlimit="10" width="415.126" height="409.243"/>
	<rect x="65.891" y="72.395" fill="#F2C439" width="380.252" height="374.37"/>
	<polygon stroke="#000000" stroke-miterlimit="10" points="378.916,385 256.437,438.361 133.958,385 133.958,113.571 
		255.387,97.185 378.916,113.571 	"/>
	<polygon fill="#FFFFFF" stroke="#FFFFFF" stroke-miterlimit="10" points="360.219,370.452 255.386,418.193 150.554,370.452 
		150.554,127.601 254.487,112.939 360.219,127.601 	"/>
	<polygon stroke="#000000" stroke-miterlimit="10" points="349.084,361.981 256.227,406.009 163.37,361.981 163.37,138.017 
		255.43,124.496 349.084,138.017 	"/>
	<polygon stroke="#000000" stroke-miterlimit="10" points="492.781,250.546 339,286.681 386.899,381.219 291.941,337.101 
		255.387,424.075 224.714,335 17.151,499.706 169.672,287.521 65.891,249.706 169.252,219.454 74.714,68.613 220.092,164.412 
		255.387,61.05 289,169.454 492.781,22.815 339.841,215.672 	"/>
	<polygon fill="#FFFFFF" stroke="#FFFFFF" stroke-miterlimit="10" points="459.459,250.175 327.498,281.184 368.602,362.309 
		287.115,324.449 255.748,399.084 229.427,322.646 51.314,463.984 182.195,281.904 93.138,249.454 181.834,223.494 100.71,94.055 
		225.461,176.261 255.748,87.565 284.592,180.587 459.459,54.755 328.219,220.249 	"/>
</g>
</svg>
