<?xml version="1.0" encoding="utf-8"?>
<!-- Generator: Adobe Illustrator 16.0.0, SVG Export Plug-In . SVG Version: 6.00 Build 0)  -->
<!DOCTYPE svg PUBLIC "-//W3C//DTD SVG 1.1//EN" "http://www.w3.org/Graphics/SVG/1.1/DTD/svg11.dtd">
<svg version="1.1" id="Layer_2" xmlns="http://www.w3.org/2000/svg" xmlns:xlink="http://www.w3.org/1999/xlink" x="0px" y="0px"
	 width="512px" height="512px" viewBox="0 0 512 512" enable-background="new 0 0 512 512" xml:space="preserve">
<g>
	<polygon fill="#FFFFFF" stroke="#000000" stroke-miterlimit="10" points="481.857,481.639 30.176,481.639 30.176,29.538 
		461.65,29.814 498.119,19.933 512,19.933 500.866,30.072 482.689,34.998 482.429,174.001 482.417,180.502 482.4,189.751 
		482.36,211.499 	"/>
	<rect x="48.244" y="47.605" stroke="#000000" stroke-miterlimit="10" width="415.126" height="416.386"/>
	<rect x="65.471" y="65.672" fill="#29799D" width="381.093" height="379.412"/>
	<polygon stroke="#000000" stroke-miterlimit="10" points="412.879,368.187 123.453,446.026 73.142,258.962 351.442,184.114 
		373.033,190.882 424.129,199.706 474.847,216.667 512.003,239.879 505.387,268.806 488.58,295.925 471.773,317.773 
		451.185,337.521 429.336,354.328 	"/>
	<polygon stroke="#000000" stroke-miterlimit="10" points="308.465,160.873 67.542,227.796 45.81,149.56 286.732,82.638 
		304.967,88.361 318.52,92.441 339.42,98.866 355.807,108.109 353.286,117.773 342.361,132.059 326.395,147.185 	"/>
	
		<rect x="61.939" y="328.329" transform="matrix(0.2606 0.9654 -0.9654 0.2606 440.818 94.5073)" fill="#FFFFFF" stroke="#FFFFFF" stroke-miterlimit="10" width="193.535" height="13.453"/>
	
		<rect x="4.417" y="344.505" transform="matrix(0.2606 0.9654 -0.9654 0.2606 413.9056 162.0018)" fill="#FFFFFF" stroke="#FFFFFF" stroke-miterlimit="10" width="193.536" height="13.453"/>
	
		<rect x="45.274" y="175.621" transform="matrix(0.2615 0.9652 -0.9652 0.2615 237.2813 51.6293)" fill="#FFFFFF" stroke="#FFFFFF" stroke-miterlimit="10" width="79.256" height="10.504"/>
	
		<rect x="11.292" y="181.916" transform="matrix(0.2615 0.9652 -0.9652 0.2615 223.0885 82.7655)" fill="#FFFFFF" stroke="#FFFFFF" stroke-miterlimit="10" width="92.331" height="10.504"/>
	<path fill="#FFFFFF" stroke="#000000" stroke-miterlimit="10" d="M312.432,159.998c0,0,39.651-18.078,49.263-52.05
		c-29.335-25.682-77.671-24.709-77.671-24.709l-8.678,8.42c0,0,46.987-3.361,74.158,18.487
		c-11.074,31.382-50.505,49.852-50.505,49.852H312.432z"/>
	<path fill="#FFFFFF" stroke="#000000" stroke-miterlimit="10" d="M423.023,364.081c26.349-15.967,45.388-32.765,59.145-48.637
		c1.262-1.456,2.479-2.903,3.652-4.342c1.19-1.458,2.337-2.906,3.44-4.344c1.181-1.538,2.313-3.063,3.397-4.574
		c1.313-1.828,2.559-3.636,3.739-5.42c1.169-1.768,2.275-3.512,3.321-5.229c0.86-1.413,1.68-2.808,2.461-4.184
		c1.164-2.05,2.242-4.057,3.24-6.015c1.275-2.501,2.422-4.923,3.452-7.254c0.84-1.901,1.602-3.743,2.294-5.519
		c1.098-2.814,2.019-5.463,2.791-7.919c0.652-2.076,1.199-4.015,1.657-5.802c0.341-1.331,0.632-2.578,0.881-3.734
		c0.383-1.776,0.666-3.339,0.876-4.668c0.528-3.353,0.587-5.208,0.587-5.208c-1.374-1.753-2.819-3.453-4.331-5.1
		c-1.234-1.345-2.514-2.655-3.834-3.931c-1.477-1.427-3.004-2.812-4.579-4.156c-1.439-1.229-2.918-2.422-4.433-3.583
		c-1.812-1.388-3.674-2.728-5.582-4.021c-2.684-1.821-5.458-3.55-8.306-5.193c-52.838-30.479-131.054-31.135-131.054-31.135
		l-24.756,7.566c0,0,127.023,0.916,174.303,52.769c0,0,1.086,57.153-136.432,136.857L423.023,364.081z"/>
	<path fill="#FFFFFF" stroke="#FFFFFF" stroke-miterlimit="10" d="M335.639,205.028c0,0,70.168-3.221,79.832,5.602
		c0,0,22.269,10.083-4.622,17.227c0,0-10.924,3.362-23.949-2.101C386.899,225.756,373.874,215.393,335.639,205.028z"/>
	
		<rect x="35.17" y="87.189" transform="matrix(0.9652 -0.2615 0.2615 0.9652 -15.4539 68.7609)" fill="#FFFFFF" stroke="#FFFFFF" stroke-miterlimit="10" width="430.882" height="10.504"/>
	
		<rect x="55.929" y="168.384" transform="matrix(0.9652 -0.2615 0.2615 0.9652 -36.0699 76.2386)" fill="#FFFFFF" stroke="#FFFFFF" stroke-miterlimit="10" width="424.939" height="10.504"/>
	<path fill="#FFFFFF" stroke="#FFFFFF" stroke-miterlimit="10" d="M275.346,96.16c0,0,27.841-1.278,31.675,2.223
		c0,0,8.836,4-1.834,6.835c0,0-4.334,1.333-9.502-0.834C295.685,104.383,290.517,100.271,275.346,96.16z"/>
	<path fill="#FFFFFF" stroke="#FFFFFF" stroke-miterlimit="10" d="M391.858,368.985c0,0,18.909-32.725-15.965-7.935
		c0,0-49.159,13.865-70.168-27.731c0,0-8.824-21.849,32.353-38.235c0,0,131.933-73.95,105.042-21.429c0,0-3.781,10.503,11.765-7.983
		c0,0,5.041-7.562,5.462,11.766c0,0,0.421,8.823-31.092,36.975c0,0-18.764,21.11,41.038-6.462v14.024l-50.282,36.135
		L391.858,368.985z"/>
	<path fill="#FFFFFF" stroke="#FFFFFF" stroke-miterlimit="10" d="M326.168,143.971c0,0-15.401,2.793,3.506-15.274
		c0,0,18.067-28.992-27.311-11.765c0,0-67.334,33.089-21.009,39.916c0,0,25.451-4.023,6.213,6.812h17.363l20.962-13.955
		L326.168,143.971z"/>
	
		<rect x="35.243" y="199.272" transform="matrix(0.9652 -0.2615 0.2615 0.9652 -44.8962 74.6419)" fill="#FFFFFF" stroke="#FFFFFF" stroke-miterlimit="10" width="445.484" height="13.453"/>
	
		<rect x="35.194" y="404.92" transform="matrix(0.9652 -0.2615 0.2615 0.9652 -98.5669 81.6908)" fill="#FFFFFF" stroke="#FFFFFF" stroke-miterlimit="10" width="444.877" height="12.493"/>
	<rect x="463.87" y="190.833" fill="#FFFFFF" width="18.131" height="23.5"/>
	<rect x="463.87" y="313.167" fill="#FFFFFF" width="17.631" height="23.5"/>
</g>
</svg>
