<?xml version="1.0" encoding="utf-8"?>
<!-- Generator: Adobe Illustrator 16.0.0, SVG Export Plug-In . SVG Version: 6.00 Build 0)  -->
<!DOCTYPE svg PUBLIC "-//W3C//DTD SVG 1.1//EN" "http://www.w3.org/Graphics/SVG/1.1/DTD/svg11.dtd">
<svg version="1.1" id="Layer_2" xmlns="http://www.w3.org/2000/svg" xmlns:xlink="http://www.w3.org/1999/xlink" x="0px" y="0px"
	 width="512px" height="512px" viewBox="0 0 512 512" enable-background="new 0 0 512 512" xml:space="preserve">
<g>
	<polygon fill="#FFFFFF" stroke="#000000" stroke-miterlimit="10" points="482.277,482.059 265.051,482.059 265.047,402.787 
		241.518,402.923 241.101,482.059 23.454,482.059 23.454,29.538 482.277,29.538 	"/>
	<polygon stroke="#000000" stroke-miterlimit="10" points="462.949,463.571 289,463.571 289.42,402.647 216.311,403.067 
		216.311,463.571 42.361,463.571 42.361,48.025 462.949,48.025 	"/>
	<polygon fill="#4F8C40" points="446.143,428.277 252.655,65.672 59.588,428.277 59.588,65.672 446.143,65.672 	"/>
	<path stroke="#000000" stroke-miterlimit="10" d="M150.533,261.904c0,0-55.852,4.637-94.174,32.834l-0.058-47.689
		c57.048-34.313,123.304-36.619,123.304-36.619L150.533,261.904z"/>
	<path stroke="#000000" stroke-miterlimit="10" d="M354.871,261.944c0,0,55.856,4.568,94.213,32.72v-47.689
		c-57.089-34.244-123.348-36.47-123.348-36.47L354.871,261.944z"/>
	<polygon fill="#FFFFFF" stroke="#000000" stroke-miterlimit="10" points="308.328,222.395 282.697,222.395 283.538,336.681 
		265.051,337.101 241.941,337.101 222.613,336.681 223.453,222.395 197.403,222.395 197.403,349.857 241.941,366.933 
		265.051,366.933 308.328,349.857 	"/>
	<rect x="240.261" y="183.74" stroke="#000000" stroke-miterlimit="10" width="25.21" height="194.958"/>
	<polygon fill="#FFFFFF" stroke="#000000" stroke-miterlimit="10" points="517.587,307.55 252.866,400.126 252.866,379.39 
		480.593,299.589 	"/>
	<polygon fill="#FFFFFF" stroke="#000000" stroke-miterlimit="10" points="-11.621,307.498 253.068,400.165 253.076,379.429 
		25.376,299.551 	"/>
	<rect x="246.983" y="179.538" fill="#FFFFFF" stroke="#FFFFFF" stroke-miterlimit="10" width="12.185" height="209.244"/>
	<polygon fill="#FFFFFF" stroke="#FFFFFF" stroke-miterlimit="10" points="253.076,109.79 222.613,183.74 283.538,183.74 	"/>
	<path fill="#FFFFFF" stroke="#000000" stroke-miterlimit="10" d="M25.376,299.551c0,0,71.607-57.828,172.027-58.668v-18.487
		c-132.353,1.681-209.024,85.103-209.024,85.103L25.376,299.551z"/>
	<path fill="#FFFFFF" stroke="#000000" stroke-miterlimit="10" d="M480.593,299.589c0,0-61.34-56.186-172.265-58.707v-18.487
		c0,0,115.156-8.682,209.259,85.155L480.593,299.589z"/>
	<polygon fill="#FFFFFF" points="261.269,394.664 252.866,400.126 244.462,394.664 244.462,388.781 261.269,388.781 	"/>
	<polygon fill="#FFFFFF" points="481.855,252.427 463.517,252.427 463.517,341.295 481.855,341.295 481.855,318.429 
		516.669,307.335 481.855,279.096 	"/>
	<polygon fill="#FFFFFF" points="41.834,240.333 24.001,240.333 24.001,278.833 -10.535,307.265 24.001,318.833 24.001,329.201 
		41.834,329.201 	"/>
	<rect x="195.836" y="222.835" fill="#FFFFFF" width="15.833" height="17.5"/>
	<rect x="303.336" y="222.835" fill="#FFFFFF" width="6" height="17.5"/>
</g>
</svg>
