<?xml version="1.0" encoding="utf-8"?>
<!-- Generator: Adobe Illustrator 16.0.0, SVG Export Plug-In . SVG Version: 6.00 Build 0)  -->
<!DOCTYPE svg PUBLIC "-//W3C//DTD SVG 1.1//EN" "http://www.w3.org/Graphics/SVG/1.1/DTD/svg11.dtd">
<svg version="1.1" id="Layer_2" xmlns="http://www.w3.org/2000/svg" xmlns:xlink="http://www.w3.org/1999/xlink" x="0px" y="0px"
	 width="512px" height="512px" viewBox="0 0 512 512" enable-background="new 0 0 512 512" xml:space="preserve">
<g>
	<polygon fill="#FFFFFF" stroke="#000000" stroke-miterlimit="10" points="482.697,481.639 29.756,481.639 29.756,29.958 
		162.95,29.958 163.311,96.343 186.479,96.765 186.899,29.958 324.715,29.958 324.715,95.924 349.084,95.504 349.084,29.958 
		482.697,29.958 	"/>
	<polygon stroke="#000000" stroke-miterlimit="10" points="463.79,463.571 47.824,463.571 47.824,47.605 144.042,47.605 
		144.042,114.832 204.546,114.832 205.387,47.605 306.647,47.605 306.231,114.348 367.571,114.832 367.57,47.605 463.79,47.605 	"/>
	<polygon fill="#CF5E33" points="451.185,457.689 60.849,457.689 60.849,59.37 127.235,59.37 126.815,126.597 223.029,126.971 
		223.034,59.37 290.681,59.37 291.101,126.176 386.382,126.183 386.059,59.37 451.185,59.37 	"/>
	<path fill="#FFFFFF" stroke="#000000" stroke-width="2" stroke-miterlimit="10" d="M473.285,398.023
		c0,0-7.137,68.066-54.197,83.613l-0.01,0.002c-47.059-15.551-54.189-83.618-54.189-83.618l-0.432,0.004
		c0,0-7.136,68.066-54.197,83.613l-0.01,0.002c-47.06-15.551-54.189-83.617-54.189-83.617h-0.922c0,0-7.136,68.066-54.198,83.613
		l-0.009,0.002c-47.06-15.551-54.189-83.618-54.189-83.618l-0.432,0.004c0,0-7.136,68.066-54.198,83.613l-0.009,0.002
		c-47.06-15.551-54.189-83.617-54.189-83.617l4.525-20.164h428.164L473.285,398.023z"/>
	<polygon fill="#CF5E33" points="134.571,374.448 134.571,380.467 129.108,404.21 124.907,416.785 122.386,425.6 118.184,435.916 
		111.041,445.373 104.318,453.109 98.856,457.409 89.354,460.418 85.831,458.268 77.848,452.251 67.764,441.074 58.1,420.872 
		51.411,398.95 51.411,375.309 	"/>
	<polygon fill="#CF5E33" points="247.32,376.384 247.32,382.267 241.857,405.476 237.656,417.768 235.135,426.384 230.934,436.468 
		223.79,445.712 217.067,453.274 211.605,457.477 202.103,460.418 198.58,458.316 190.597,452.435 180.513,441.51 170.849,421.763 
		164.16,400.334 164.16,377.225 	"/>
	<polygon fill="#CF5E33" points="355.737,376.384 355.737,382.267 350.274,405.476 346.073,417.768 343.552,426.384 
		339.351,436.468 332.207,445.712 325.484,453.274 320.022,457.477 310.52,460.418 306.997,458.316 299.014,452.435 288.93,441.51 
		279.267,421.763 272.577,400.334 272.577,377.225 	"/>
	<polygon fill="#CF5E33" points="463.79,376.384 463.79,382.267 458.327,405.476 454.126,417.768 451.604,426.384 447.403,436.468 
		440.26,445.712 433.537,453.274 428.075,457.477 418.572,460.418 415.05,458.316 407.066,452.435 396.982,441.51 387.318,421.763 
		380.63,400.334 380.63,377.225 	"/>
	<path stroke="#000000" stroke-miterlimit="10" d="M480.216,384.788h-15.479c0,0-3.752,65.454-45.025,78.78v0.002
		c-41.275-13.33-45.021-78.784-45.021-78.784h-15.477l12.174,0.003h-15.479c0,0-3.752,65.454-45.026,78.78v0.002
		c-41.274-13.33-45.021-78.783-45.021-78.783l-15.478-0.002l11.685,0.001h-15.478c0,0-3.752,65.454-45.027,78.78v0.002
		c-41.274-13.33-45.02-78.784-45.02-78.784h-15.478l12.173,0.003h-15.478c0,0-3.752,65.454-45.027,78.78v0.002
		c-41.274-13.33-45.02-78.783-45.02-78.783l-15.478-0.002l6.081-11.555l13.865,0.002c0,0,3.355,70.168,40.33,84.457v-0.002
		c36.975-14.285,40.336-84.454,40.336-84.454h13.865l0.432-0.003h13.865c0,0,3.355,70.169,40.33,84.458v-0.002
		c36.975-14.286,40.336-84.454,40.336-84.454h13.865l0.922-0.001l13.865,0.002c0,0,3.355,70.168,40.33,84.457v-0.002
		c36.975-14.285,40.336-84.454,40.336-84.454h13.865l0.432-0.003h13.865c0,0,3.355,70.169,40.33,84.458v-0.002
		c36.975-14.286,40.336-84.454,40.336-84.454h13.865L480.216,384.788z"/>
	<path fill="#FFFFFF" stroke="#000000" stroke-width="2" stroke-miterlimit="10" d="M418.751,340.561
		c0,0-7.137,68.066-54.197,83.613l-0.01,0.002c-47.059-15.551-54.189-83.618-54.189-83.618l-0.432,0.004
		c0,0-7.136,68.066-54.197,83.613l-0.01,0.002c-47.06-15.551-54.189-83.617-54.189-83.617h-0.922c0,0-7.136,68.066-54.198,83.613
		l-0.009,0.002c-47.06-15.551-54.189-83.618-54.189-83.618l3.515-17.321h321.009L418.751,340.561z"/>
	<g>
		<polygon fill="#CF5E33" points="299.522,318.921 299.522,324.804 294.06,348.013 289.858,360.305 287.337,368.921 
			283.136,379.005 275.991,388.249 269.269,395.812 263.808,400.014 254.304,402.955 250.782,400.854 242.798,394.972 
			232.714,384.047 223.05,364.3 216.362,342.871 216.362,319.762 		"/>
		<polygon fill="#CF5E33" points="408.446,318.921 408.446,324.804 402.983,348.013 398.782,360.305 396.261,368.921 
			392.06,379.005 384.915,388.249 378.192,395.812 372.731,400.014 363.229,402.955 359.706,400.854 351.723,394.972 
			341.639,384.047 331.975,364.3 325.286,342.871 325.286,319.762 		"/>
		<polygon fill="#CF5E33" points="190.8,318.921 190.8,324.804 185.337,348.013 181.136,360.305 178.615,368.921 174.414,379.005 
			167.269,388.249 160.546,395.812 155.085,400.014 145.582,402.955 142.06,400.854 134.076,394.972 123.992,384.047 114.328,364.3 
			107.64,342.871 107.64,319.762 		"/>
	</g>
	<path stroke="#000000" stroke-miterlimit="10" d="M425.276,327.325h-15.479c0,0-3.752,65.454-45.025,78.78v0.002
		c-41.275-13.33-45.021-78.784-45.021-78.784h-15.477l12.174,0.003H300.97c0,0-3.752,65.454-45.026,78.78v0.002
		c-41.274-13.33-45.021-78.783-45.021-78.783l-15.478-0.002l11.685,0.001h-15.478c0,0-3.752,65.454-45.027,78.78v0.002
		c-41.274-13.33-45.02-78.784-45.02-78.784H86.127l6.081-11.555h13.865c0,0,3.355,70.169,40.33,84.458v-0.002
		c36.975-14.286,40.336-84.454,40.336-84.454h13.865l0.922-0.001l13.865,0.002c0,0,3.355,70.168,40.33,84.457v-0.002
		c36.975-14.285,40.336-84.454,40.336-84.454h13.865l0.432-0.003h13.865c0,0,3.355,70.169,40.33,84.458v-0.002
		c36.975-14.286,40.336-84.454,40.336-84.454h13.865L425.276,327.325z"/>
	<path fill="#FFFFFF" stroke="#000000" stroke-width="2" stroke-miterlimit="10" d="M473.046,289.613
		c0,0-7.137,68.066-54.197,83.613l-0.01,0.002c-47.059-15.551-54.189-83.618-54.189-83.618l-0.432,0.004
		c0,0-7.136,68.066-54.197,83.613l-0.01,0.002c-47.06-15.551-54.189-83.617-54.189-83.617h-0.922c0,0-7.136,68.066-54.198,83.613
		l-0.009,0.002c-47.06-15.551-54.189-83.618-54.189-83.618l-0.432,0.004c0,0-7.136,68.066-54.198,83.613l-0.009,0.002
		c-47.06-15.551-54.189-83.617-54.189-83.617l2.683-18.688h429.736L473.046,289.613z"/>
	<polygon fill="#CF5E33" points="134.571,267.974 134.571,273.856 129.108,297.065 124.907,309.357 122.386,317.974 
		118.184,328.058 111.041,337.302 104.318,344.864 98.856,349.066 89.354,352.008 85.831,349.906 77.848,344.024 67.764,333.1 
		58.1,313.353 51.411,291.924 51.411,268.814 	"/>
	<polygon fill="#CF5E33" points="244.151,267.974 244.151,273.856 238.688,297.065 234.487,309.357 231.966,317.974 
		227.765,328.058 220.621,337.302 213.898,344.864 208.437,349.066 198.934,352.008 195.411,349.906 187.428,344.024 177.344,333.1 
		167.68,313.353 160.991,291.924 160.991,268.814 	"/>
	<polygon fill="#CF5E33" points="354.235,267.974 354.235,273.856 348.772,297.065 344.571,309.357 342.05,317.974 337.849,328.058 
		330.705,337.302 323.982,344.864 318.521,349.066 309.018,352.008 305.495,349.906 297.512,344.024 287.428,333.1 277.765,313.353 
		271.075,291.924 271.075,268.814 	"/>
	<polygon fill="#CF5E33" points="460.621,267.974 460.621,273.856 455.158,297.065 450.957,309.357 448.436,317.974 
		444.234,328.058 437.091,337.302 430.368,344.864 424.906,349.066 415.403,352.008 411.881,349.906 403.897,344.024 393.813,333.1 
		384.149,313.353 377.461,291.924 377.461,268.814 	"/>
	<path stroke="#000000" stroke-miterlimit="10" d="M479.571,276.378h-15.479c0,0-3.752,65.454-45.025,78.78v0.002
		c-41.275-13.33-45.021-78.784-45.021-78.784h-15.477l12.174,0.003h-15.479c0,0-3.752,65.454-45.026,78.78v0.002
		c-41.274-13.33-45.021-78.783-45.021-78.783l-15.478-0.002l11.685,0.001h-15.478c0,0-3.752,65.454-45.027,78.78v0.002
		c-41.274-13.33-45.02-78.784-45.02-78.784h-15.478l12.173,0.003h-15.478c0,0-3.752,65.454-45.027,78.78v0.002
		c-41.274-13.33-45.02-78.783-45.02-78.783l-15.478-0.002l6.081-11.555l13.865,0.002c0,0,3.355,70.168,40.33,84.457v-0.002
		c36.975-14.285,40.336-84.454,40.336-84.454h13.865l0.432-0.003h13.865c0,0,3.355,70.169,40.33,84.458v-0.002
		c36.975-14.286,40.336-84.454,40.336-84.454h13.865l0.922-0.001l13.865,0.002c0,0,3.355,70.168,40.33,84.457v-0.002
		c36.975-14.285,40.336-84.454,40.336-84.454h13.865l0.432-0.003h13.865c0,0,3.355,70.169,40.33,84.458v-0.002
		c36.975-14.286,40.336-84.454,40.336-84.454h13.865L479.571,276.378z"/>
	<path fill="#FFFFFF" stroke="#000000" stroke-width="2" stroke-miterlimit="10" d="M419.065,229.118
		c0,0-7.137,68.066-54.197,83.613l-0.01,0.002c-47.059-15.551-54.189-83.618-54.189-83.618l-0.432,0.004
		c0,0-7.136,68.066-54.197,83.613l-0.01,0.002c-47.06-15.551-54.189-83.617-54.189-83.617h-0.922c0,0-7.136,68.066-54.198,83.613
		l-0.009,0.002c-47.06-15.551-54.189-83.618-54.189-83.618l2.36-18.904h323.869L419.065,229.118z"/>
	<g>
		<polygon fill="#CF5E33" points="299.846,207.479 299.846,213.361 294.383,236.57 290.182,248.862 287.66,257.479 283.459,267.563 
			276.314,276.807 269.592,284.369 264.131,288.571 254.627,291.513 251.105,289.411 243.122,283.529 233.038,272.604 
			223.374,252.857 216.685,231.429 216.685,208.319 		"/>
		<polygon fill="#CF5E33" points="408.77,207.479 408.77,213.361 403.307,236.57 399.105,248.862 396.584,257.479 392.383,267.563 
			385.238,276.807 378.516,284.369 373.055,288.571 363.552,291.513 360.029,289.411 352.046,283.529 341.962,272.604 
			332.298,252.857 325.609,231.429 325.609,208.319 		"/>
		<polygon fill="#CF5E33" points="191.124,207.479 191.124,213.361 185.661,236.57 181.459,248.862 178.938,257.479 
			174.737,267.563 167.592,276.807 160.87,284.369 155.409,288.571 145.905,291.513 142.383,289.411 134.399,283.529 
			124.315,272.604 114.651,252.857 107.963,231.429 107.963,208.319 		"/>
	</g>
	<path stroke="#000000" stroke-miterlimit="10" d="M425.591,215.883h-15.479c0,0-3.752,65.454-45.025,78.78v0.002
		c-41.275-13.33-45.021-78.784-45.021-78.784h-15.477l12.174,0.003h-15.479c0,0-3.752,65.454-45.026,78.78v0.002
		c-41.274-13.33-45.021-78.783-45.021-78.783l-15.478-0.002l11.685,0.001h-15.478c0,0-3.752,65.454-45.027,78.78v0.002
		c-41.274-13.33-45.02-78.784-45.02-78.784H86.442l6.081-11.555h13.865c0,0,3.355,70.169,40.33,84.458v-0.002
		c36.975-14.286,40.336-84.454,40.336-84.454h13.865l0.922-0.001l13.865,0.002c0,0,3.355,70.168,40.33,84.457v-0.002
		c36.975-14.285,40.336-84.454,40.336-84.454h13.865l0.432-0.003h13.865c0,0,3.355,70.169,40.33,84.458v-0.002
		c36.975-14.286,40.336-84.454,40.336-84.454h13.865L425.591,215.883z"/>
	<path fill="#FFFFFF" stroke="#000000" stroke-width="2" stroke-miterlimit="10" d="M473.285,178.198
		c0,0-7.137,68.066-54.197,83.613l-0.01,0.002c-47.059-15.551-54.189-83.618-54.189-83.618l-0.432,0.004
		c0,0-7.136,68.066-54.197,83.613l-0.01,0.002c-47.06-15.551-54.189-83.617-54.189-83.617h-0.922c0,0-7.136,68.066-54.198,83.613
		l-0.009,0.002c-47.06-15.551-54.189-83.618-54.189-83.618l-0.432,0.004c0,0-7.136,68.066-54.198,83.613l-0.009,0.002
		c-47.06-15.551-54.189-83.617-54.189-83.617l5.288-18.406h427.311L473.285,178.198z"/>
	<polygon fill="#CF5E33" points="134.571,156.559 134.571,162.441 129.108,185.65 124.907,197.942 122.386,206.559 118.184,216.643 
		111.041,225.887 104.318,233.449 98.856,237.651 89.354,240.593 85.831,238.491 77.848,232.609 67.764,221.685 58.1,201.938 
		51.411,180.509 51.411,157.399 	"/>
	<polygon fill="#CF5E33" points="244.151,156.559 244.151,162.441 238.688,185.65 234.487,197.942 231.966,206.559 227.765,216.643 
		220.621,225.887 213.898,233.449 208.437,237.651 198.934,240.593 195.411,238.491 187.428,232.609 177.344,221.685 
		167.68,201.938 160.991,180.509 160.991,157.399 	"/>
	<polygon fill="#CF5E33" points="354.235,156.559 354.235,162.441 348.772,185.65 344.571,197.942 342.05,206.559 337.849,216.643 
		330.705,225.887 323.982,233.449 318.521,237.651 309.018,240.593 305.495,238.491 297.512,232.609 287.428,221.685 
		277.765,201.938 271.075,180.509 271.075,157.399 	"/>
	<polygon fill="#CF5E33" points="460.621,156.559 460.621,162.441 455.158,185.65 450.957,197.942 448.436,206.559 444.234,216.643 
		437.091,225.887 430.368,233.449 424.906,237.651 415.403,240.593 411.881,238.491 403.897,232.609 393.813,221.685 
		384.149,201.938 377.461,180.509 377.461,157.399 	"/>
	<path stroke="#000000" stroke-miterlimit="10" d="M479.811,164.963h-15.479c0,0-3.752,65.454-45.025,78.78v0.002
		c-41.275-13.33-45.021-78.784-45.021-78.784h-15.477l12.174,0.003h-15.479c0,0-3.752,65.454-45.026,78.78v0.002
		c-41.274-13.33-45.021-78.783-45.021-78.783l-15.478-0.002l11.685,0.001h-15.478c0,0-3.752,65.454-45.027,78.78v0.002
		c-41.274-13.33-45.02-78.784-45.02-78.784h-15.478l12.173,0.003h-15.478c0,0-3.752,65.454-45.027,78.78v0.002
		c-41.274-13.33-45.02-78.783-45.02-78.783l-15.478-0.002l6.081-11.555l13.865,0.002c0,0,3.355,70.168,40.33,84.457v-0.002
		c36.975-14.285,40.336-84.454,40.336-84.454h13.865l0.432-0.003h13.865c0,0,3.355,70.169,40.33,84.458v-0.002
		c36.975-14.286,40.336-84.454,40.336-84.454h13.865l0.922-0.001l13.865,0.002c0,0,3.355,70.168,40.33,84.457v-0.002
		c36.975-14.285,40.336-84.454,40.336-84.454h13.865l0.432-0.003h13.865c0,0,3.355,70.169,40.33,84.458v-0.002
		c36.975-14.286,40.336-84.454,40.336-84.454h13.865L479.811,164.963z"/>
	<rect x="30.834" y="42.235" fill="#FFFFFF" stroke="#FFFFFF" stroke-miterlimit="10" width="16.167" height="426.017"/>
	<rect x="463.79" y="40.954" fill="#FFFFFF" width="17.238" height="429.269"/>
	<rect x="41.32" y="463.571" fill="#FFFFFF" width="431.82" height="17.489"/>
	<polygon fill="#CF5E33" points="458.33,267.998 451.089,240.593 444.496,269.667 	"/>
	<polygon fill="#CF5E33" points="458.997,376.665 451.406,349.26 444.496,378.334 	"/>
	<polygon fill="#CF5E33" points="458.497,156.665 451.256,129.259 444.663,158.333 	"/>
	<polygon fill="#CF5E33" points="52.667,157.459 60.77,130.051 68.168,159.123 	"/>
	<polygon fill="#CF5E33" points="52.5,268.793 60.69,241.385 68.168,270.457 	"/>
	<polygon fill="#CF5E33" points="53,375.745 61.016,352.397 68.334,377.163 	"/>
</g>
</svg>
