<?xml version="1.0" encoding="utf-8"?>
<!-- Generator: Adobe Illustrator 16.0.0, SVG Export Plug-In . SVG Version: 6.00 Build 0)  -->
<!DOCTYPE svg PUBLIC "-//W3C//DTD SVG 1.1//EN" "http://www.w3.org/Graphics/SVG/1.1/DTD/svg11.dtd">
<svg version="1.1" id="Layer_2" xmlns="http://www.w3.org/2000/svg" xmlns:xlink="http://www.w3.org/1999/xlink" x="0px" y="0px"
	 width="512px" height="512px" viewBox="0 0 512 512" enable-background="new 0 0 512 512" xml:space="preserve">
<g>
	<rect x="29.336" y="35.42" fill="#FFFFFF" stroke="#000000" stroke-miterlimit="10" width="452.521" height="452.521"/>
	<rect x="47.824" y="53.908" stroke="#000000" stroke-miterlimit="10" width="416.386" height="415.966"/>
	<rect x="65.471" y="70.714" fill="#4F8C40" width="380.252" height="381.092"/>
	<path stroke="#000000" stroke-miterlimit="10" d="M65.471,70.714l109.244,230.672c0,0-1.68,81.513,12.185,150.42h174.79
		c0,0,18.487-20.168,17.227-53.781c0,0,25.211,6.303,29.412-6.723c0,0,4.622-0.421-5.042-28.992c0,0-22.689-47.479-18.067-55.042
		c0,0,11.673-4.201,11.929-26.891c0,0,3.198-19.765-35.458-24.378v-9.305l84.033-175.981H65.471z"/>
	<path fill="#FFFFFF" stroke="#000000" stroke-miterlimit="10" d="M428.908,70.728c0,0-4.625,23.529-48.747,49.992
		c0,0-28.556,119.745-124.161,118.888v0.014c-95.605,0.84-124.143-118.908-124.143-118.908c-44.117-26.471-48.74-50-48.74-50
		L428.908,70.728z"/>
	<g>
		<path d="M97.742,97.378c0,0,1.134,0.683,3.291,1.887c2.143,1.223,5.342,2.917,9.431,4.994c4.077,2.094,9.101,4.482,14.887,7.097
			c2.92,1.259,5.98,2.67,9.289,3.982c3.268,1.391,6.758,2.719,10.382,4.122c1.813,0.697,3.694,1.339,5.587,2.037
			c1.9,0.683,3.821,1.41,5.82,2.03c1.982,0.657,3.998,1.326,6.044,2.004c2.048,0.667,4.159,1.252,6.278,1.896
			c4.226,1.325,8.643,2.419,13.117,3.637c2.25,0.566,4.546,1.045,6.842,1.608c2.3,0.547,4.616,1.116,6.986,1.535
			c2.358,0.462,4.736,0.929,7.13,1.398c2.394,0.465,4.831,0.792,7.265,1.2c4.863,0.871,9.842,1.324,14.828,1.981l1.874,0.228
			l1.886,0.144c1.258,0.096,2.518,0.193,3.78,0.289c1.261,0.097,2.525,0.194,3.79,0.292c1.265,0.099,2.528,0.243,3.8,0.261
			c2.54,0.094,5.084,0.188,7.632,0.282c1.273,0.041,2.547,0.111,3.822,0.128l3.826-0.052l7.649-0.036
			c2.547-0.034,5.086-0.258,7.624-0.376l3.801-0.213c1.265-0.093,2.536-0.073,3.791-0.237c2.517-0.255,5.026-0.51,7.525-0.763
			c9.996-1.051,19.78-2.662,29.181-4.646c1.179-0.231,2.354-0.462,3.522-0.691c1.168-0.237,2.307-0.575,3.453-0.854
			c2.286-0.593,4.556-1.164,6.81-1.713c1.126-0.278,2.246-0.554,3.359-0.829c0.557-0.141,1.115-0.267,1.665-0.418l1.629-0.503
			c2.171-0.662,4.315-1.317,6.431-1.962c2.124-0.635,4.22-1.261,6.283-1.878c2.048-0.668,4.021-1.45,5.999-2.125
			c1.973-0.696,3.912-1.381,5.815-2.053c1.896-0.699,3.806-1.271,5.585-2.05c3.608-1.469,7.066-2.876,10.354-4.215
			c1.645-0.679,3.288-1.262,4.815-1.973c1.532-0.708,3.02-1.394,4.461-2.06c2.902-1.317,5.619-2.549,8.131-3.689
			c1.254-0.58,2.496-1.071,3.615-1.659c1.13-0.573,2.206-1.12,3.229-1.639c4.088-2.084,7.366-3.646,9.583-4.75
			c2.238-1.075,3.432-1.647,3.432-1.647s-1.03,0.824-2.962,2.37c-1.954,1.517-4.791,3.797-8.486,6.604
			c-0.924,0.704-1.897,1.446-2.918,2.224c-1.02,0.782-2.16,1.479-3.311,2.274c-2.314,1.569-4.851,3.218-7.553,5.01
			c-1.357,0.887-2.759,1.802-4.201,2.745c-1.447,0.938-3.016,1.758-4.584,2.681c-3.176,1.79-6.516,3.672-10,5.636
			c-0.437,0.245-0.876,0.492-1.317,0.74c-0.455,0.221-0.911,0.443-1.37,0.666c-0.921,0.442-1.851,0.89-2.789,1.34
			c-1.881,0.903-3.796,1.823-5.745,2.759c-1.953,0.931-3.934,1.898-5.982,2.792c-2.075,0.836-4.181,1.685-6.316,2.545
			c-4.277,1.718-8.669,3.515-13.308,4.934c-2.302,0.765-4.635,1.521-6.997,2.27c-1.184,0.364-2.358,0.786-3.567,1.107
			c-1.21,0.314-2.426,0.629-3.647,0.946c-2.447,0.627-4.914,1.259-7.399,1.896c-1.247,0.298-2.489,0.65-3.755,0.908
			c-1.27,0.244-2.543,0.488-3.82,0.734c-2.557,0.49-5.13,0.982-7.716,1.478c-2.581,0.537-5.219,0.788-7.853,1.142
			c-2.638,0.334-5.286,0.67-7.942,1.007c-2.659,0.314-5.348,0.409-8.031,0.605c-2.687,0.149-5.376,0.403-8.074,0.463
			c-2.699,0.034-5.401,0.067-8.104,0.101l-4.053,0.017c-1.35-0.03-2.698-0.113-4.047-0.167c-2.696-0.123-5.389-0.247-8.078-0.369
			c-2.688-0.114-5.354-0.472-8.018-0.722c-1.331-0.137-2.66-0.273-3.987-0.409l-1.987-0.204l-1.974-0.289
			c-5.253-0.789-10.478-1.488-15.556-2.629c-2.544-0.536-5.088-0.992-7.582-1.586c-2.484-0.631-4.95-1.259-7.396-1.88
			c-2.453-0.588-4.844-1.323-7.215-2.036c-2.37-0.714-4.724-1.397-7.021-2.167c-2.287-0.8-4.548-1.591-6.783-2.373
			c-2.244-0.747-4.415-1.615-6.551-2.48c-8.601-3.305-16.454-7.079-23.59-10.703c-7.098-3.72-13.428-7.423-18.884-10.932
			c-5.443-3.535-10.065-6.776-13.737-9.63c-3.705-2.799-6.456-5.206-8.329-6.831c-0.936-0.813-1.628-1.471-2.093-1.913
			C97.98,97.607,97.742,97.378,97.742,97.378z"/>
	</g>
	<g>
		<path d="M192.782,155.17c0,0,0.456,0.233,1.309,0.669c0.847,0.443,2.123,1.034,3.723,1.806c1.61,0.756,3.582,1.63,5.844,2.61
			c2.268,0.967,4.848,1.996,7.677,3.048c2.817,1.083,5.921,2.1,9.197,3.148c3.297,0.982,6.773,1.996,10.417,2.81
			c1.813,0.448,3.676,0.793,5.553,1.179c0.935,0.209,1.894,0.321,2.846,0.487c0.956,0.146,1.909,0.345,2.876,0.463
			c1.936,0.227,3.878,0.528,5.842,0.664l2.945,0.259l2.956,0.115c1.971,0.138,3.941,0.066,5.905,0.072
			c1.962-0.022,3.909-0.183,5.849-0.259c0.963-0.104,1.923-0.207,2.878-0.309c0.953-0.111,1.914-0.154,2.85-0.318
			c0.938-0.151,1.87-0.302,2.796-0.452c0.926-0.156,1.855-0.265,2.752-0.489c0.904-0.196,1.801-0.391,2.688-0.584
			c0.89-0.189,1.773-0.373,2.627-0.632c1.71-0.498,3.42-0.896,5.032-1.444c1.616-0.552,3.188-1.089,4.709-1.608
			c1.494-0.607,2.938-1.194,4.322-1.758c0.706-0.261,1.374-0.567,2.016-0.888c0.649-0.309,1.284-0.61,1.903-0.904
			c1.235-0.595,2.458-1.084,3.511-1.711c1.078-0.587,2.077-1.156,3.027-1.649c0.947-0.497,1.822-0.951,2.563-1.439
			c1.502-0.942,2.722-1.643,3.541-2.142c0.83-0.486,1.273-0.745,1.273-0.745s-0.369,0.354-1.061,1.017
			c-0.703,0.651-1.717,1.635-3.057,2.839c-0.652,0.627-1.435,1.239-2.288,1.911c-0.845,0.683-1.787,1.385-2.784,2.157
			c-0.979,0.803-2.13,1.485-3.299,2.286c-0.594,0.388-1.203,0.786-1.826,1.193c-0.62,0.416-1.268,0.819-1.956,1.182
			c-1.37,0.749-2.798,1.528-4.274,2.335c-1.52,0.724-3.12,1.418-4.757,2.163c-0.81,0.396-1.677,0.674-2.541,0.996
			c-0.868,0.315-1.747,0.634-2.635,0.957c-0.882,0.348-1.801,0.608-2.731,0.862c-0.93,0.262-1.868,0.527-2.814,0.794
			c-0.942,0.29-1.915,0.482-2.895,0.684c-0.979,0.202-1.965,0.405-2.957,0.61c-1.992,0.366-4.031,0.606-6.081,0.882
			c-2.061,0.133-4.137,0.383-6.228,0.41c-2.089,0.014-4.191,0.108-6.284-0.024l-3.14-0.152c-1.041-0.101-2.081-0.201-3.119-0.3
			c-2.083-0.15-4.122-0.555-6.159-0.839c-4.048-0.719-7.996-1.607-11.729-2.74c-3.754-1.064-7.28-2.395-10.587-3.706
			c-3.282-1.385-6.344-2.769-9.081-4.221c-1.38-0.699-2.67-1.436-3.899-2.121c-1.211-0.724-2.366-1.393-3.427-2.063
			c-2.141-1.306-3.929-2.569-5.391-3.613C194.296,156.561,192.782,155.17,192.782,155.17z"/>
	</g>
	<path stroke="#000000" stroke-miterlimit="10" d="M313.376,141.016c-60.23-100.751-115.136,0-115.136,0H313.376z"/>
	<g>
		<path d="M144.882,136.698c0,0,0.117-0.702,0.396-1.896c0.274-1.198,0.712-2.888,1.304-4.887c1.187-3.997,3.087-9.188,5.291-14.246
			c2.204-5.059,4.712-9.984,6.836-13.572c1.063-1.794,2.004-3.264,2.697-4.279c0.687-1.017,1.123-1.58,1.123-1.58
			s-0.116,0.702-0.394,1.897c-0.273,1.198-0.709,2.889-1.301,4.888c-1.185,3.998-3.088,9.188-5.296,14.244s-4.719,9.981-6.841,13.57
			c-1.062,1.794-2.003,3.265-2.694,4.28C145.317,136.135,144.882,136.698,144.882,136.698z"/>
	</g>
	<g>
		<path d="M342.361,96.238c0,0,0.497,0.539,1.276,1.525c0.788,0.982,1.86,2.411,3.045,4.175c1.188,1.762,2.491,3.857,3.789,6.149
			c0.65,1.145,1.304,2.337,1.937,3.564c0.645,1.22,1.256,2.481,1.872,3.74c0.592,1.27,1.192,2.536,1.736,3.805
			c0.562,1.26,1.072,2.521,1.558,3.745c0.969,2.449,1.779,4.779,2.402,6.811c0.627,2.03,1.064,3.762,1.331,4.993
			c0.276,1.227,0.382,1.953,0.382,1.953s-0.499-0.538-1.279-1.524c-0.79-0.982-1.862-2.41-3.048-4.173
			c-1.188-1.762-2.492-3.856-3.789-6.149c-0.647-1.146-1.306-2.336-1.934-3.565c-0.646-1.221-1.253-2.483-1.869-3.742
			c-0.592-1.271-1.188-2.538-1.732-3.807c-0.557-1.263-1.074-2.52-1.556-3.746c-0.968-2.45-1.778-4.78-2.402-6.812
			c-0.627-2.029-1.065-3.761-1.335-4.992C342.468,96.963,342.361,96.238,342.361,96.238z"/>
	</g>
	<g>
		<path d="M192.782,108.109c0,0-0.015,0.877-0.119,2.396c-0.104,1.518-0.281,3.681-0.603,6.252
			c-0.584,5.156-1.744,11.946-3.208,18.67c-1.473,6.722-3.251,13.377-4.876,18.306c-0.781,2.471-1.525,4.509-2.066,5.932
			c-0.54,1.423-0.894,2.226-0.894,2.226s0.013-0.877,0.117-2.396c0.103-1.519,0.278-3.682,0.6-6.253
			c0.582-5.156,1.745-11.946,3.213-18.669c1.478-6.721,3.259-13.376,4.881-18.304c0.781-2.471,1.523-4.51,2.063-5.933
			C192.429,108.913,192.782,108.109,192.782,108.109z"/>
	</g>
	<g>
		<path d="M313.376,108.109c0,0,0.494,0.77,1.262,2.15c0.774,1.378,1.82,3.367,2.99,5.784c1.161,2.42,2.43,5.272,3.687,8.364
			c0.63,1.545,1.261,3.149,1.869,4.79c0.621,1.636,1.206,3.314,1.797,4.991c0.564,1.685,1.138,3.367,1.653,5.04
			c0.534,1.667,1.016,3.321,1.473,4.926c0.911,3.21,1.663,6.24,2.233,8.863c0.563,2.625,0.959,4.838,1.193,6.401
			c0.242,1.562,0.324,2.473,0.324,2.473s-0.495-0.77-1.265-2.149c-0.775-1.377-1.823-3.366-2.993-5.783
			c-1.162-2.419-2.432-5.271-3.687-8.363c-0.626-1.547-1.263-3.148-1.866-4.791c-0.622-1.636-1.203-3.315-1.794-4.992
			c-0.564-1.685-1.134-3.368-1.649-5.041c-0.529-1.668-1.018-3.32-1.471-4.926c-0.909-3.211-1.662-6.241-2.232-8.863
			c-0.563-2.625-0.962-4.837-1.198-6.4C313.46,109.02,313.376,108.109,313.376,108.109z"/>
	</g>
	<path stroke="#000000" stroke-miterlimit="10" d="M288.34,261.268l0.016-147.6c0,0,3.363-37.239-32.339-141.694l-0.208,0.002
		c-35.713,104.451-32.354,141.69-32.354,141.69v147.599"/>
	<path fill="#FFFFFF" d="M277.304,257.965l0.01-135.195c0,0,2.207-34.109-21.223-129.786l-0.137,0.002
		c-23.438,95.673-21.233,129.782-21.233,129.782v135.194c0,0-5.23,11.071-0.055,20.315l0.133,15.126h42.571L277.304,257.965z"/>
	<path fill="#FFFFFF" stroke="#000000" stroke-width="2" stroke-miterlimit="10" d="M198.24,451.807
		c0,0-23.525-144.538-5.458-143.697c0,0,39.917-39.076,135.294-60.924c0,0,26.471-15.545,68.907,128.572
		c0,0,2.521,15.545-12.185,10.083c0,0-7.144-2.1-10.925-6.302c0,0-16.807-81.513-31.513-94.958c0,0-10.492-15.968-28.985-5.463
		c0,0-89.25,34.453-90.006,39.916c0,0-5.593,6.303,9.01,4.202c0,0,75.527-30.672,81.83-29.832c0,0,14.286-7.983,24.37,0
		c0,0,18.488,9.976,23.109,114.286c0,0,1.682,18.488-16.807,3.361c0,0-7.563-7.563-7.983-17.647c0,0,4.192-56.34,0.42-67.647
		c0,0-4.194-10.084-14.702-8.823c0,0-28.574,2.941-69.121,26.051c0,0-7.353,8.334,9.874,6.268c0,0,45.736-20.744,54.621-20.554
		c0,0,12.186-1.261,10.925,10.504c0,0-0.42,64.707-18.487,82.354c0,0-15.966,9.243-15.546-2.521c0,0,0-17.227,5.462-25.21
		c0,0,4.202-20.167-1.681-29.411c0,0-0.572-8.404-21.295,14.285c0,0-5.748,7.983,0,22.689c0,0,12.318,17.646,0,50.42H198.24z"/>
	<path fill="none" stroke="#000000" stroke-miterlimit="10" d="M367.571,265.252c0,0-5.883,0.841,5.042,19.748
		c0,0,7.143,11.765,7.143,15.546c0,0,5.307,8.309,11.345-7.143c0,0,4.622-10.504-5.042-20.588
		C386.059,272.815,368.73,259.184,367.571,265.252z"/>
	<g>
		<path d="M256.2,30.041c0,0,0.2,14.315,0.5,35.789c0.075,5.368,0.156,11.184,0.242,17.335c0.069,6.151,0.142,12.638,0.217,19.349
			c0.141,13.421,0.291,27.736,0.44,42.052c0.092,7.158,0.184,14.315,0.274,21.361c0.122,7.046,0.156,13.98,0.209,20.69
			c-0.004,6.71-0.039,13.197-0.148,19.349c-0.049,3.075-0.096,6.067-0.142,8.961c-0.066,2.894-0.131,5.69-0.193,8.374
			c-0.121,5.369-0.286,10.29-0.431,14.651c-0.152,4.362-0.307,8.164-0.465,11.296c-0.152,3.131-0.248,5.592-0.353,7.27
			c-0.098,1.678-0.15,2.572-0.15,2.572h-0.4c0,0-0.052-0.895-0.15-2.572c-0.105-1.678-0.201-4.138-0.353-7.27
			c-0.159-3.132-0.313-6.934-0.466-11.296c-0.144-4.362-0.309-9.283-0.431-14.651c-0.062-2.684-0.126-5.48-0.193-8.374
			c-0.045-2.894-0.093-5.886-0.142-8.961c-0.11-6.151-0.145-12.638-0.149-19.349c0.053-6.71,0.087-13.645,0.21-20.69
			c0.09-7.046,0.182-14.204,0.273-21.361c0.15-14.316,0.3-28.631,0.441-42.052c0.075-6.71,0.148-13.197,0.217-19.349
			c0.086-6.151,0.167-11.967,0.242-17.335c0.3-21.474,0.5-35.789,0.5-35.789H256.2z"/>
	</g>
</g>
</svg>
