<?xml version="1.0" encoding="utf-8"?>
<!-- Generator: Adobe Illustrator 16.0.0, SVG Export Plug-In . SVG Version: 6.00 Build 0)  -->
<!DOCTYPE svg PUBLIC "-//W3C//DTD SVG 1.1//EN" "http://www.w3.org/Graphics/SVG/1.1/DTD/svg11.dtd">
<svg version="1.1" id="Layer_2" xmlns="http://www.w3.org/2000/svg" xmlns:xlink="http://www.w3.org/1999/xlink" x="0px" y="0px"
	 width="512px" height="512px" viewBox="0 0 512 512" enable-background="new 0 0 512 512" xml:space="preserve">
<g>
	<rect x="29.756" y="29.538" fill="#FFFFFF" stroke="#000000" stroke-miterlimit="10" width="458.404" height="453.362"/>
	<rect x="47.824" y="47.605" stroke="#000000" stroke-miterlimit="10" width="421.428" height="415.126"/>
	<rect x="66.311" y="66.092" fill="#406181" width="385.294" height="380.252"/>
	<rect x="17.151" y="181.219" stroke="#000000" stroke-miterlimit="10" width="483.613" height="160.924"/>
	<rect x="17.151" y="192.143" fill="#FFFFFF" stroke="#000000" stroke-miterlimit="10" width="483.613" height="139.076"/>
	<polygon stroke="#000000" stroke-miterlimit="10" points="258.958,99.286 258.958,174.496 183.118,174.496 173.454,155.168 
		150.345,144.664 150.765,120.294 73.454,99.706 17.151,91.303 213.79,11.471 215.05,99.286 	"/>
	<polygon fill="#FFFFFF" stroke="#FFFFFF" stroke-miterlimit="10" points="259.036,105.168 258.967,166.933 186.899,166.933 
		181.857,149.706 158.748,140.462 158.748,115.252 88.3,95.555 40.26,88.385 208.041,20.269 207.913,104.746 	"/>
	<polygon stroke="#000000" stroke-miterlimit="10" points="259.043,99.216 258.958,174.427 334.799,174.513 344.484,155.196 
		367.604,144.717 367.212,120.347 444.546,99.846 500.857,91.506 304.31,11.454 302.95,99.266 	"/>
	<polygon fill="#FFFFFF" stroke="#FFFFFF" stroke-miterlimit="10" points="259.036,105.168 258.967,166.933 330.878,166.883 
		335.899,149.651 358.998,140.38 358.969,115.169 429.394,95.389 477.425,88.164 309.563,20.244 309.792,104.721 	"/>
	<polygon stroke="#000000" stroke-miterlimit="10" points="298.244,380.799 258.958,512 219.672,378.277 234.798,234.16 
		235.639,108.95 282.697,108.95 283.958,234.58 	"/>
	<polygon fill="#FFFFFF" stroke="#FFFFFF" stroke-miterlimit="10" points="292.361,378.277 259.036,492.143 225.555,377.438 
		240.925,234.163 241.548,115.252 276.489,115.252 277.424,234.562 	"/>
	<ellipse stroke="#000000" stroke-miterlimit="10" cx="259.037" cy="91.303" rx="28.572" ry="28.798"/>
	<ellipse fill="#FFFFFF" stroke="#FFFFFF" stroke-miterlimit="10" cx="259.037" cy="91.303" rx="22.928" ry="23.109"/>
	<ellipse stroke="#000000" stroke-miterlimit="10" cx="259.037" cy="261.681" rx="125.63" ry="128.992"/>
	<ellipse fill="#FFFFFF" stroke="#000000" stroke-miterlimit="10" cx="259.038" cy="261.68" rx="115.848" ry="118.951"/>
	<ellipse stroke="#000000" stroke-miterlimit="10" cx="258.909" cy="261.628" rx="104.455" ry="107.252"/>
	<polygon fill="#FFFFFF" stroke="#FFFFFF" stroke-miterlimit="10" points="281.965,342.143 235.154,342.143 235.154,282.898 
		181.437,282.479 181.437,235 234.798,234.16 235.154,181.219 281.965,181.219 281.965,234.58 336.479,235 336.479,282.479 
		281.965,282.479 	"/>
</g>
</svg>
