<?xml version="1.0" encoding="utf-8"?>
<!-- Generator: Adobe Illustrator 16.0.0, SVG Export Plug-In . SVG Version: 6.00 Build 0)  -->
<!DOCTYPE svg PUBLIC "-//W3C//DTD SVG 1.1//EN" "http://www.w3.org/Graphics/SVG/1.1/DTD/svg11.dtd">
<svg version="1.1" id="Layer_2" xmlns="http://www.w3.org/2000/svg" xmlns:xlink="http://www.w3.org/1999/xlink" x="0px" y="0px"
	 width="512px" height="512px" viewBox="0 0 512 512" enable-background="new 0 0 512 512" xml:space="preserve">
<g>
	<polygon fill="#FFFFFF" stroke="#000000" stroke-miterlimit="10" points="482.277,324.496 395.512,274.755 110.008,274.916 
		30.176,324.496 30.176,24.076 482.277,24.076 	"/>
	<polygon stroke="#000000" stroke-miterlimit="10" points="463.468,313.713 395.512,274.755 110.008,274.916 48.244,313.713 
		48.244,42.563 463.468,42.563 	"/>
	<polygon fill="#952B43" points="446.514,303.993 395.512,274.755 110.008,274.916 66.731,301.794 66.731,59.37 446.514,59.37 	"/>
	<path fill="#952B43" d="M387.189,341.356c-142.265,105.972-261.135,0.021-261.135,0.021l15.466-17.176
		c0,0,104.621,100.235,229.832-0.02L387.189,341.356z"/>
	<path fill="#952B43" d="M423.667,376.399c-182.698,154.542-335.353,0.033-335.353,0.033l15.361-16.611
		c0,0,138.499,138.935,304.253-0.028L423.667,376.399z"/>
	<path fill="#FFFFFF" stroke="#000000" stroke-miterlimit="10" d="M64.778,401.23c0,0,174.481,182.627,383.3-0.041l18.489,22.727
		c-229.29,187.712-420.875,0.041-420.875,0.041L64.778,401.23z"/>
	<path fill="#952B43" d="M318.122,297.565c-71.5,36.327-131.242,0.007-131.242,0.007v23.547c0,0,59.742,27.469,131.242-0.005
		V297.565z"/>
	<g>
		<path stroke="#000000" stroke-miterlimit="10" d="M427.682,232.493c4.76,4.757,3.543,13.694-2.721,19.961l-78.967,79.021
			c-6.263,6.268-15.198,7.491-19.959,2.734l-32.859-32.836c-4.76-4.758-3.541-13.695,2.723-19.963l78.965-79.02
			c6.264-6.267,15.199-7.491,19.959-2.734L427.682,232.493z"/>
		<path stroke="#000000" stroke-miterlimit="10" d="M185.167-7.906c-4.76-4.757-13.695-3.533-19.959,2.734l-78.965,79.02
			c-6.264,6.268-7.482,15.205-2.723,19.963l32.859,32.836c4.761,4.757,13.696,3.533,19.959-2.734l78.967-79.021
			c6.264-6.267,7.48-15.204,2.721-19.961L185.167-7.906z"/>
		<path stroke="#000000" stroke-miterlimit="10" d="M83.441,232.65c-4.749,4.768-3.511,13.701,2.767,19.954l79.149,78.835
			c6.277,6.254,15.217,7.457,19.967,2.689l32.783-32.913c4.748-4.769,3.51-13.702-2.768-19.954l-79.15-78.837
			c-6.277-6.253-15.216-7.455-19.965-2.688L83.441,232.65z"/>
		<path stroke="#000000" stroke-miterlimit="10" d="M293.096,25.087c-4.748,4.768-3.51,13.701,2.768,19.954l79.148,78.835
			c6.277,6.254,15.217,7.457,19.967,2.689l32.783-32.913c4.748-4.769,3.51-13.702-2.768-19.954l-79.15-78.837
			c-6.277-6.253-15.217-7.455-19.965-2.688L293.096,25.087z"/>
		<polygon stroke="#000000" stroke-miterlimit="10" points="403.286,85.42 338.16,8.109 179.336,8.109 107.908,82.899 
			107.908,232.899 175.975,303.993 333.538,303.993 403.286,235.42 		"/>
	</g>
	<path fill="#FFFFFF" stroke="#FFFFFF" stroke-miterlimit="10" d="M293.592,283.147c0,0-37.204,17.745-74.208,0.044l-85.809-85.718
		c0,0-17.786-37.183-0.125-74.205l85.936-83.314c0,0,37.202-17.748,74.207-0.05l86.11,83.364c0,0,17.753,37.2,0.059,74.207"/>
	<g>
		<path fill="#FFFFFF" stroke="#FFFFFF" stroke-miterlimit="10" d="M219.385,39.954c4.76,4.756,4.372,12.864-0.87,18.108
			l-66.077,66.122c-5.24,5.245-13.347,5.639-18.107,0.882L101.471,92.23c-4.76-4.758-4.37-12.866,0.871-18.11l66.075-66.121
			c5.242-5.244,13.349-5.639,18.108-0.881L219.385,39.954z"/>
		<path fill="#FFFFFF" stroke="#FFFFFF" stroke-miterlimit="10" d="M411.474,229.861c4.76,4.757,4.372,12.864-0.869,18.108
			l-66.077,66.124c-5.24,5.244-13.348,5.639-18.107,0.881l-32.859-32.836c-4.76-4.758-4.371-12.865,0.871-18.109l66.075-66.123
			c5.241-5.243,13.348-5.639,18.107-0.882L411.474,229.861z"/>
		<path fill="#FFFFFF" stroke="#FFFFFF" stroke-miterlimit="10" d="M186.46,315.007c-4.765,4.75-12.872,4.35-18.106-0.902
			l-66.004-66.195c-5.234-5.25-5.614-13.358-0.848-18.109l32.895-32.8c4.767-4.751,12.873-4.348,18.108,0.904l66.002,66.193
			c5.233,5.251,5.614,13.357,0.849,18.109L186.46,315.007z"/>
		<path fill="#FFFFFF" stroke="#FFFFFF" stroke-miterlimit="10" d="M378.55,125.096c-4.766,4.75-12.873,4.35-18.107-0.902
			l-66.003-66.195c-5.234-5.25-5.615-13.358-0.848-18.109l32.895-32.8c4.766-4.751,12.873-4.348,18.107,0.904l66.003,66.193
			c5.232,5.251,5.613,13.357,0.848,18.109L378.55,125.096z"/>
		<circle stroke="#000000" stroke-miterlimit="10" cx="178.076" cy="83.739" r="39.092"/>
		<circle stroke="#000000" stroke-miterlimit="10" cx="178.075" cy="240.882" r="39.092"/>
		<circle stroke="#000000" stroke-miterlimit="10" cx="334.87" cy="240.883" r="39.092"/>
		<circle stroke="#000000" stroke-miterlimit="10" cx="334.87" cy="83.739" r="39.092"/>
		
			<rect x="153.488" y="156.15" transform="matrix(0.7074 0.7068 -0.7068 0.7074 190.8606 -133.1855)" fill="#FFFFFF" stroke="#FFFFFF" stroke-miterlimit="10" width="205.6" height="15.546"/>
		
			<rect x="153.689" y="156.149" transform="matrix(0.7073 -0.707 0.707 0.7073 -40.8011 229.3138)" fill="#FFFFFF" stroke="#FFFFFF" stroke-miterlimit="10" width="205.599" height="15.547"/>
		<circle fill="#FFFFFF" stroke="#FFFFFF" stroke-miterlimit="10" cx="178.076" cy="83.739" r="17.647"/>
		<circle fill="#FFFFFF" stroke="#FFFFFF" stroke-miterlimit="10" cx="334.87" cy="83.739" r="17.647"/>
		<circle fill="#FFFFFF" stroke="#FFFFFF" stroke-miterlimit="10" cx="178.076" cy="240.882" r="17.647"/>
		<circle fill="#FFFFFF" stroke="#FFFFFF" stroke-miterlimit="10" cx="334.87" cy="240.883" r="17.647"/>
		<path stroke="#000000" stroke-miterlimit="10" d="M290.23,181.7c0,6.627-5.373,12-12,12h-43.535c-6.627,0-12-5.373-12-12v-41.309
			c0-6.627,5.373-12,12-12h43.535c6.627,0,12,5.373,12,12V181.7z"/>
	</g>
</g>
</svg>
