<?xml version="1.0" encoding="utf-8"?>
<!-- Generator: Adobe Illustrator 16.0.0, SVG Export Plug-In . SVG Version: 6.00 Build 0)  -->
<!DOCTYPE svg PUBLIC "-//W3C//DTD SVG 1.1//EN" "http://www.w3.org/Graphics/SVG/1.1/DTD/svg11.dtd">
<svg version="1.1" id="Layer_1" xmlns="http://www.w3.org/2000/svg" xmlns:xlink="http://www.w3.org/1999/xlink" x="0px" y="0px"
	 width="512px" height="512px" viewBox="0 0 512 512" enable-background="new 0 0 512 512" xml:space="preserve">
<g>
	<rect x="74" y="56" fill="#FFFFFF" stroke="#000000" stroke-width="2" stroke-miterlimit="10" width="381" height="410"/>
	<rect x="91" y="75" stroke="#000000" stroke-width="2" stroke-miterlimit="10" width="349" height="374"/>
	<rect x="105" y="92" fill="#4B929C" width="319" height="341"/>
	<g>
		<g>
			<path stroke="#000000" stroke-width="2" stroke-miterlimit="10" d="M399.249,235.204l-6.803,20.679l8.035,0.937
				c-6.65,13.229-14.981,25.36-24.68,36.075l-4.563-5.272l-10.804,9.203l6.522,5.105c-3.586,3.369-7.323,6.571-11.196,9.579
				c-2.082-0.712-4.426-1.313-7.065-1.752c0,0-27.738,16.541-52.019,24.008l-27.474,3.474c0,0-5.65,2.24-21.184,4.569
				c-22.959-2.762-44.383-10.907-63.117-23.232l3.473-3.346l-12.805-9.603l-2.905,4.001c-14.013-11.347-26.129-25.2-35.748-40.941
				l6.642-1.872l-8.803-14.806l-4.482,4.722c-9.403-18.71-15.938-39.606-17.795-61.782L125,198.391v-34.012l-12.646,3.089
				c2.064-27.937,11.034-53.883,24.743-76.058l3.945,7.747l11.664-15.605l-7.246-4.122c28.034-37.477,71.344-61.501,119.928-61.501
				c8.796,0,17.429,0.784,25.816,2.304l-4.505,5.498L305,30.333v-6.85c29,8.202,54.278,25.072,73.701,47.816l-6.717,3.849
				l15.233,14.405l2.799-3.473c17.902,26.585,28.433,59.141,28.433,94.305c0,22.023-4.126,43.022-11.608,62.173L399.249,235.204z"/>
			<polygon stroke="#000000" stroke-width="2" stroke-miterlimit="10" points="188.376,315.23 184.903,318.576 122.354,378.854 
				172.667,309.629 175.572,305.628 			"/>
			<polygon stroke="#000000" stroke-width="2" stroke-miterlimit="10" points="418.456,342.241 366.958,301.931 360.436,296.825 
				371.239,287.622 375.802,292.895 			"/>
			<polygon stroke="#000000" stroke-width="2" stroke-miterlimit="10" points="424.457,259.612 400.481,256.819 392.446,255.883 
				399.249,235.204 406.844,242.559 			"/>
			<polygon stroke="#000000" stroke-width="2" stroke-miterlimit="10" points="421.256,47.14 390.03,86.081 387.245,89.554 
				372.04,75.149 378.81,71.3 			"/>
			<polygon stroke="#000000" stroke-width="2" stroke-miterlimit="10" points="305,2.724 305,30.333 286.703,25.731 291.051,20.233 
							"/>
			<polygon stroke="#000000" stroke-width="2" stroke-miterlimit="10" points="152.764,83.552 141.16,99.157 137.334,91.41 
				125.955,68.347 145.49,79.43 			"/>
			<polygon stroke="#000000" stroke-width="2" stroke-miterlimit="10" points="125,164.379 125,198.391 112.481,194.95 
				57.693,180.385 112.233,167.468 			"/>
			<polygon stroke="#000000" stroke-width="2" stroke-miterlimit="10" points="143.561,266.815 136.919,268.688 112.35,275.618 
				130.276,256.731 134.758,252.01 			"/>
			<path stroke="#000000" stroke-width="2" stroke-miterlimit="10" d="M363.637,346.707c-32.275,13.74-97.634,24.672-97.634,24.672
				c44.015,7.603,86.366,9.275,86.366,9.275c8.267,0.863,10.003,7.866,10.003,7.866c2.601,8.075-3.137,11.133-3.137,11.133
				c-39.349,22.007-137.784,28.817-137.784,28.817c38.951,13.869,105.972,17.662,105.972,17.662c7.003,0.601,8.34,6.401,8.34,6.401
				c1.2,5.339-2.802,6.611-2.802,6.611c-55.892,28.409-117.024,33.499-117.024,33.499c17.134,3.938,30.435,15.485,30.851,15.846
				c-14.413-7.995-48.809-11.1-48.809-11.1c-4.897,0.207-5.505-4.498-5.505-4.498c-0.296-6.002,5.105-7.202,5.105-7.202
				c85.63-12.005,115.04-29.21,115.04-29.21c-67.287-2.665-113.535-17.11-122.739-20.607c-9.203-3.498-7.554-10.956-7.554-10.956
				c0-9.25,8.947-8.946,8.947-8.946c57.524-1.409,97.338-16.51,97.338-16.51c-30.915,0.801-115.176-22.072-115.176-22.072
				c-13.604-2.137-12.268-15.341-12.268-15.341c1.6-14.405,13.604-15.206,13.604-15.206c35.436-0.584,58.692-2.848,73.249-5.033
				c15.533-2.329,21.184-4.569,21.184-4.569l27.474-3.474c24.28-7.467,52.019-24.008,52.019-24.008
				c2.64,0.439,4.983,1.04,7.065,1.752c16.174,5.521,16.278,17.99,16.278,17.99C373.376,342.169,363.637,346.707,363.637,346.707z"
				/>
		</g>
		<polygon stroke="#000000" stroke-width="2" stroke-miterlimit="10" points="402.851,119 444.465,119 406.052,131.271 		"/>
	</g>
	<g>
		<path fill="#FFFFFF" stroke="#FFFFFF" stroke-width="2" stroke-miterlimit="10" d="M159.201,238.519
			c0,0,11.703,24.695,33.31,48.037c0,0-0.922-14.662-3.462-43.544C189.049,243.012,179.11,242.901,159.201,238.519z"/>
		<path fill="#FFFFFF" stroke="#FFFFFF" stroke-width="2" stroke-miterlimit="10" d="M136.028,230.668
			c0,0,3.265,12.672,14.069,24.009c0,0-1.668-3.398-3.502-19.639C146.595,235.038,141.979,233.224,136.028,230.668z"/>
		<path fill="#FFFFFF" stroke="#FFFFFF" stroke-width="2" stroke-miterlimit="10" d="M182.636,299.534
			c0,0-10.939-17.385-22.402-40.589c0,0,1,14.632,5.969,25.522C166.203,284.468,177.335,295.549,182.636,299.534z"/>
		<path fill="#FFFFFF" stroke="#FFFFFF" stroke-width="2" stroke-miterlimit="10" d="M215.191,318.576
			c-4.752-12.045-11.209-66.566-11.209-66.566s25.793,64.532,31.57,72.881C235.552,324.891,215.677,319.808,215.191,318.576z"/>
		<path fill="#FFFFFF" stroke="#FFFFFF" stroke-width="2" stroke-miterlimit="10" d="M217.192,244.465
			c0,0,15.2,42.091,22.002,52.894c0,0,4.134-28.876,6.402-52.852L217.192,244.465z"/>
		<path fill="#FFFFFF" stroke="#FFFFFF" stroke-width="2" stroke-miterlimit="10" d="M250.803,327.327
			c0,0,3.729-37.433,4.664-66.979c0,0,16.26,56.857,20.535,67.341C276.001,327.688,261.486,328.841,250.803,327.327z"/>
		<path fill="#FFFFFF" stroke="#FFFFFF" stroke-width="2" stroke-miterlimit="10" d="M264.402,244.473
			c0,0,16.539,58.889,17.74,64.223c0,0,18.675-28.313,28.676-64.374L264.402,244.473z"/>
		<path fill="#FFFFFF" stroke="#FFFFFF" stroke-width="2" stroke-miterlimit="10" d="M286.017,326.618
			c0,0,25.202-39.262,35.339-65.672c0,0,5.503,25.122,6.486,52.042C327.842,312.988,306.03,324.533,286.017,326.618z"/>
		<path fill="#FFFFFF" stroke="#FFFFFF" stroke-width="2" stroke-miterlimit="10" d="M330.836,243.505
			c0,0,8.124,32.781,8.658,37.982c0,0,8.854-14.866,16.832-40.645C356.326,240.842,340.184,243.007,330.836,243.505z"/>
		<path fill="#FFFFFF" stroke="#FFFFFF" stroke-width="2" stroke-miterlimit="10" d="M342.72,303.796
			c0,0,10.113-17.774,23.051-61.123c0,0,3.768,7.736,6.135,33.835C371.905,276.509,354.575,296.259,342.72,303.796z"/>
		<path fill="#FFFFFF" stroke="#FFFFFF" stroke-width="2" stroke-miterlimit="10" d="M374.376,237.344c0,0,1.452,4.245,1.426,7.121
			c0,0,1.988-2.051,5.247-8.923C381.049,235.542,375.888,236.98,374.376,237.344z"/>
	</g>
	<path fill="#FFFFFF" stroke="#FFFFFF" stroke-width="2" stroke-miterlimit="10" d="M179.573,163h32.812
		c0,0-2.001,17.473-16.406,17.473C195.979,180.473,179.573,182,179.573,163z"/>
	<path fill="#FFFFFF" stroke="#FFFFFF" stroke-width="2" stroke-miterlimit="10" d="M351.632,163H318.82
		c0,0,2.002,17.473,16.406,17.473C335.227,180.473,351.632,182,351.632,163z"/>
	<path fill="none" stroke="#FF0000" stroke-width="2" stroke-miterlimit="10" d="M266.003,179.985"/>
	<path fill="#FFFFFF" stroke="#FFFFFF" stroke-width="2" stroke-miterlimit="10" d="M266.362,33
		c93.394-1,122.581,93.44,122.581,93.44c5.957,14.606,7.705,37.105,7.705,37.105l-22.272-3.25
		c0.068-11.204-4.204-18.491-4.204-18.491c-2.719-6.885-12.993-4.215-18.966-1.939l-0.774-15.877l-5.067,17.195
		c0,0-0.49,0.102-12.405,6.67c-15.204,8.383-41.881,20.397-41.881,20.397c3.758,14.899,11.979,23.182,19.334,27.75l-2.261,25.598
		l10.626-21.611c3.457,1.196,5.778,1.472,5.778,1.472s2.791,0.578,7.87,0.267c3.392-0.208,6.531-0.406,9.396-1.089l7.276,12.826
		l-0.833-14.968c11.076-4.779,16.638-13.175,16.638-13.175s5.769-7.716,6.868-12.004c0.41-1.598,0.965-3.385,1.286-5.322
		l24.937,7.72c-0.73,25.014-8.482,38.682-8.482,38.682c-13.071,27.343-55.618,23.341-55.618,23.341
		c-20.808-2.801-67.891-3.334-67.891-3.334s-47.083,0.534-67.889,3.334c0,0-42.548,4.001-55.619-23.341
		c0,0-8.537-15.051-8.537-42.471c0,0,1.4-25.802,5.336-36.222l18.672,14.405c0,0-0.533,15.205,2.268,23.208l-10.137,15.205
		l17.215-3.201c0,0,10.688,16.406,32.688,16.406v11.069l7.659-11.337c0,0,25.771-3.067,33.374-33.211c0,0-27.128-11.331-41.933-20.4
		l-13.632-29.21l-0.28,23.074c0,0-19.449-9.875-23.348,0l-18.775-15.272c0,0,29.185-94.44,122.577-93.44H266.362z"/>
	<path stroke="#000000" stroke-width="2" stroke-miterlimit="10" d="M266.004,113.295c32.903,0,53.258-14.355,53.258-14.355
		S294.106,127,266.004,127h-0.361c-28.103,0-53.258-28.06-53.258-28.06s20.354,14.248,53.258,14.248L266.004,113.295z"/>
	<path fill="#FFFFFF" stroke="#FFFFFF" stroke-width="2" stroke-miterlimit="10" d="M192.511,355.916
		c0,0,21.985,16.233,58.292,17.473C250.803,373.389,241.195,366.053,192.511,355.916z"/>
	<path fill="#4B929C" d="M171.435,357.118c0,0-3.999,0.934-4.399,6.136c0,0-0.209,5.334,5.631,8.668
		c0,0,73.596,27.744,146.153,24.409c0,0,6.004-0.533,7.337-0.8c0,0-25.859-5.272-67.89-6.402c0,0-29.344-1.866-50.285-14.139
		c0,0-5.201-2.933-18.272-2.8c0,0-6.106,0-9.189-1.601C180.521,370.59,168.231,366.722,171.435,357.118z"/>
	<path fill="#4B929C" d="M365.771,329.64c0,0-9.471,11.07-26.01,15.338c0,0-13.871,3.868-23.208,4.669
		c0,0-18.939-0.266-25.475,2.001c0,0-13.872,5.601-23.208,7.868c0,0-10.938,2.002-18.54,2.002c0,0-13.472-0.134-24.942,4.269
		c0,0,18.006,3.333,37.48-1.135c0,0,15.071-3.401,33.212-5.936c0,0,5.734-0.666,28.542-6.268c0,0,22.675-6.536,26.542-6.403
		c0,0,5.069-0.268,7.869-2.534c0,0,5.203-3.068,7.737-7.603C365.771,335.908,366.972,333.375,365.771,329.64z"/>
	<path fill="#FFFFFF" stroke="#FFFFFF" stroke-width="2" stroke-miterlimit="10" d="M345.364,389.005
		c0,0-37.347,7.601-55.219,15.471c0,0,15.204,2.268,35.078-4.002C325.224,400.474,340.296,395.14,345.364,389.005z"/>
	<path fill="#4B929C" d="M249.598,420.748c0,0,14.939-0.666,33.479-7.202c0,0,7.201-3.335,16.139-3.734c0,0,8.67,0.133,18.54-2.802
		c0,0,14.271-7.336,22.007-6.136c0,0,7.619,0.236,11.271-2.014c0,0,3.451-2.251,4.651-5.052c0,0,0.795,3.791-1.75,6.752
		c0,0-2.135,1.801-8.569,3.102c0,0-11.32,1.65-19.207,5.151c0,0-4.685,2.251-11.889,2.401c0,0-4.9,0-10.953,2.601
		c0,0-11.454,3.201-25.959,5.151c0,0-9.003,0.7-19.957,2.751C257.399,421.718,254.599,422.629,249.598,420.748z"/>
	<path fill="#FFFFFF" d="M193.978,419.601c0,0-5.868-0.6-7.069,5.269c0,0-1.467,6.004,6.269,9.003c0,0,27.008,10.537,60.819,15.005
		c0,0-42.415-11.337-57.153-20.14c0,0-3.066-1.667-3.6-3.268c0,0-0.934-2.801,2.401-2.668l2.133,0.4
		C197.778,423.202,196.712,420.201,193.978,419.601z"/>
	<g>
		<polygon fill="#FFFFFF" stroke="#FFFFFF" stroke-width="2" stroke-miterlimit="10" points="151.031,378.718 98.879,456.877 
			130.756,459.011 		"/>
		<polygon fill="#FFFFFF" stroke="#FFFFFF" stroke-width="2" stroke-miterlimit="10" points="85,407.874 131.816,328.108 
			85,381.248 		"/>
		<polygon fill="#FFFFFF" stroke="#FFFFFF" stroke-width="2" stroke-miterlimit="10" points="86.742,288.449 114.75,252.01 
			85.141,270.911 		"/>
		<polygon fill="#FFFFFF" stroke="#FFFFFF" stroke-width="2" stroke-miterlimit="10" points="381.109,457.014 363.37,410.465 
			398.849,453.546 		"/>
		<polygon fill="#FFFFFF" stroke="#FFFFFF" stroke-width="2" stroke-miterlimit="10" points="445.133,438.47 447.132,412.461 
			393.381,358.719 		"/>
		<polygon fill="#FFFFFF" stroke="#FFFFFF" stroke-width="2" stroke-miterlimit="10" points="444.465,278.681 411.521,263.476 
			442.997,294.229 		"/>
	</g>
</g>
</svg>
