<?xml version="1.0" encoding="utf-8"?>
<!-- Generator: Adobe Illustrator 16.0.0, SVG Export Plug-In . SVG Version: 6.00 Build 0)  -->
<!DOCTYPE svg PUBLIC "-//W3C//DTD SVG 1.1//EN" "http://www.w3.org/Graphics/SVG/1.1/DTD/svg11.dtd">
<svg version="1.1" id="Layer_2" xmlns="http://www.w3.org/2000/svg" xmlns:xlink="http://www.w3.org/1999/xlink" x="0px" y="0px"
	 width="512px" height="512px" viewBox="0 0 512 512" enable-background="new 0 0 512 512" xml:space="preserve">
<g>
	<rect x="23.874" y="29.958" fill="#FFFFFF" stroke="#000000" stroke-miterlimit="10" width="457.983" height="458.403"/>
	<rect x="43.202" y="47.605" stroke="#000000" stroke-miterlimit="10" width="420.168" height="421.849"/>
	<rect x="60.429" y="66.092" fill="#29799D" width="385.714" height="386.975"/>
	<path stroke="#000000" stroke-miterlimit="10" d="M396.563,391.907c0,6.627-5.318,12-11.878,12H121.467
		c-6.561,0-11.878-5.373-11.878-12V119.689c0-6.627,5.318-12,11.878-12h263.219c6.56,0,11.878,5.373,11.878,12V391.907z"/>
	<path fill="#28789F" d="M375.135,367.538c0,6.627-5.373,12-12,12H143.017c-6.627,0-12-5.373-12-12V143.219c0-6.627,5.373-12,12-12
		h220.118c6.627,0,12,5.373,12,12V367.538z"/>
	<polygon stroke="#000000" stroke-miterlimit="10" points="512.003,313.151 0,313.151 0,252.857 23.874,278.409 23.874,242.189 
		0,216.933 0,192.563 512.003,192.563 512,218.193 481.857,244.286 481.857,281.928 512,256.008 	"/>
	<polygon fill="#FFFFFF" stroke="#000000" stroke-miterlimit="10" points="507.487,221.555 472.193,252.857 443.622,222.395 
		409.588,252.857 378.915,222.395 346.563,252.857 317.571,222.395 283.538,252.857 254.546,222.395 221.773,252.857 
		190.68,222.395 160.008,252.857 129.336,222.395 97.403,252.857 67.151,222.815 33.958,252.857 5.807,222.815 5.807,198.025 
		507.487,198.025 	"/>
	<polygon fill="#FFFFFF" stroke="#000000" stroke-miterlimit="10" points="507.487,259.58 473.033,289.622 442.78,259.58 
		410.009,289.622 379.336,259.58 347.403,289.202 320.093,259.58 283.958,289.202 254.546,259.58 222.613,289.622 191.101,259.58 
		159.588,290.042 128.496,259.58 96.983,288.781 66.311,259.58 33.958,289.202 5.807,259.58 5.807,307.269 507.487,307.269 	"/>
	<circle stroke="#000000" stroke-miterlimit="10" cx="34.588" cy="219.244" r="8.614"/>
	<circle stroke="#000000" stroke-miterlimit="10" cx="65.05" cy="287.101" r="8.613"/>
	<circle stroke="#000000" stroke-miterlimit="10" cx="471.983" cy="219.243" r="8.613"/>
	<circle stroke="#000000" stroke-miterlimit="10" cx="442.781" cy="287.1" r="8.613"/>
</g>
</svg>
