<?xml version="1.0" encoding="utf-8"?>
<!-- Generator: Adobe Illustrator 16.0.0, SVG Export Plug-In . SVG Version: 6.00 Build 0)  -->
<!DOCTYPE svg PUBLIC "-//W3C//DTD SVG 1.1//EN" "http://www.w3.org/Graphics/SVG/1.1/DTD/svg11.dtd">
<svg version="1.1" id="Layer_2" xmlns="http://www.w3.org/2000/svg" xmlns:xlink="http://www.w3.org/1999/xlink" x="0px" y="0px"
	 width="512px" height="512px" viewBox="0 0 512 512" enable-background="new 0 0 512 512" xml:space="preserve">
<g>
	<polygon fill="#FFFFFF" stroke="#000000" stroke-miterlimit="10" points="30.176,27.857 475.975,29.958 475.975,42.983 
		391.101,72.395 369.252,92.563 344.462,116.933 338.58,158.529 355.807,221.134 383.958,325.756 408.748,433.739 475.975,457.689 
		475.975,476.177 30.176,476.177 30.176,31.639 30.176,29.958 	"/>
	<polygon points="48.244,48.025 461.425,48.025 391.101,72.395 344.462,116.933 338.58,158.529 408.748,433.739 414.21,458.109 
		48.244,458.109 	"/>
	<polygon fill="#A22229" points="60.849,61.05 423.839,61.05 391.101,72.395 355.387,132.059 399.925,132.059 360.849,198.025 
		387.739,308.529 396.983,325.756 446.143,403.487 409.588,403.487 424.802,439.458 408.748,433.739 410.029,439.458 
		60.849,439.458 	"/>
	<g>
		<polygon fill="#FFFFFF" points="467.859,45.152 34.577,182.106 463.764,32.814 		"/>
	</g>
	<g>
		<line fill="#FFFFFF" x1="427.196" y1="448.74" x2="37.358" y2="304.431"/>
		<polygon fill="#FFFFFF" points="424.593,455.773 37.358,304.431 429.8,441.707 		"/>
	</g>
	<g>
		<path fill="#FFFFFF" d="M67.439,304.837c0,0,1.37,0.314,3.939,0.904c2.567,0.599,6.342,1.435,11.126,2.581
			c9.568,2.291,23.267,5.452,39.653,9.445c8.192,2.002,17.066,4.171,26.452,6.466c9.377,2.329,19.266,4.786,29.496,7.328
			c10.22,2.577,20.781,5.241,31.512,7.948c10.722,2.741,21.615,5.525,32.507,8.311c10.881,2.829,21.762,5.659,32.473,8.444
			c10.717,2.764,21.233,5.599,31.427,8.279c10.184,2.723,20.026,5.354,29.361,7.849c9.325,2.531,18.142,4.924,26.28,7.133
			c8.139,2.207,15.584,4.289,22.183,6.138c6.6,1.844,12.354,3.451,17.092,4.774c4.742,1.311,8.451,2.405,10.986,3.123
			c2.534,0.727,3.886,1.114,3.886,1.114s-1.37-0.314-3.939-0.903c-2.567-0.598-6.343-1.434-11.127-2.58
			c-4.787-1.133-10.601-2.509-17.27-4.086c-6.669-1.573-14.193-3.352-22.384-5.355c-8.192-2.003-17.066-4.172-26.453-6.466
			c-9.377-2.33-19.266-4.787-29.494-7.329c-10.22-2.583-20.796-5.188-31.513-7.951c-10.722-2.741-21.614-5.527-32.506-8.313
			c-10.881-2.83-21.762-5.66-32.473-8.446c-10.702-2.82-21.234-5.596-31.426-8.282c-10.183-2.722-20.026-5.354-29.361-7.85
			c-9.325-2.53-18.142-4.924-26.28-7.132c-16.274-4.43-29.792-8.287-39.275-10.909c-4.742-1.31-8.451-2.404-10.987-3.122
			C68.791,305.225,67.439,304.837,67.439,304.837z"/>
	</g>
	<g>
		<path fill="#FFFFFF" d="M64.63,192.983c0,0,4.488-1.008,12.343-2.772c7.863-1.723,19.08-4.262,32.57-7.167
			c13.491-2.898,29.213-6.366,46.09-9.925c16.876-3.563,34.878-7.363,52.88-11.164c18.02-3.712,36.04-7.425,52.933-10.906
			c16.893-3.489,32.69-6.59,46.216-9.327c13.526-2.73,24.823-4.883,32.72-6.448c7.904-1.522,12.422-2.392,12.422-2.392
			s-4.488,1.008-12.343,2.773c-7.863,1.723-19.079,4.265-32.569,7.169c-13.491,2.897-29.212,6.37-46.091,9.924
			c-16.876,3.563-34.878,7.362-52.88,11.163c-18.02,3.712-36.04,7.424-52.934,10.904c-16.893,3.484-32.69,6.59-46.215,9.327
			c-13.527,2.729-24.823,4.884-32.72,6.449C69.147,192.113,64.63,192.983,64.63,192.983z"/>
	</g>
	<g>
		<path fill="#FFFFFF" d="M64.63,215.813c0,0,4.466-0.553,12.281-1.52c7.82-0.925,18.982-2.326,32.393-3.865
			c13.411-1.53,29.048-3.403,45.819-5.251c16.771-1.853,34.66-3.828,52.548-5.804c17.898-1.886,35.797-3.773,52.576-5.542
			c16.779-1.777,32.456-3.278,45.886-4.645c13.43-1.359,24.634-2.369,32.472-3.134c7.841-0.721,12.322-1.134,12.322-1.134
			s-4.466,0.553-12.281,1.521c-7.819,0.925-18.981,2.329-32.393,3.866c-13.411,1.53-29.048,3.408-45.819,5.251
			c-16.771,1.852-34.66,3.827-52.548,5.803c-17.898,1.886-35.797,3.772-52.577,5.54c-16.779,1.772-32.456,3.278-45.885,4.644
			c-13.43,1.358-24.634,2.371-32.471,3.135C69.111,215.4,64.63,215.813,64.63,215.813z"/>
	</g>
	<polygon fill="#FFFFFF" stroke="#FFFFFF" stroke-miterlimit="10" points="279.756,113.151 286.899,132.059 301.185,122.605 	"/>
	<polygon fill="#FFFFFF" stroke="#000000" stroke-miterlimit="10" points="405.387,84.16 396.563,96.345 400.975,109.37 
		418.412,104.118 	"/>
	<polygon fill="#FFFFFF" stroke="#FFFFFF" stroke-miterlimit="10" points="387.196,344.738 355.807,368.344 407.488,371.705 	"/>
	
		<ellipse fill="#FFFFFF" stroke="#000000" stroke-width="3" stroke-miterlimit="10" cx="176.632" cy="191.184" rx="55.769" ry="54.75"/>
	<path fill="#FFFFFF" stroke="#000000" stroke-width="3" stroke-miterlimit="10" d="M84.798,137.941v47.899l32.353,48.74h7.983
		l3.361-5.042l-30.669-43.277l-0.843-23.74c0,0,3.361-17.857,31.512-5.672l27.311-18.907c0,0,2.521-3.782,0-10.084
		c0,0-7.563-18.067-25.63-18.487C130.177,109.37,116.731,101.387,84.798,137.941z"/>
	
		<ellipse fill="#FFFFFF" stroke="#000000" stroke-width="3" stroke-miterlimit="10" cx="239.174" cy="362.694" rx="55.769" ry="54.749"/>
	<polygon fill="#FFFFFF" stroke="#000000" stroke-miterlimit="10" points="341.776,183.801 430.749,174.857 341.672,189.354 	"/>
	<path fill="#FFFFFF" stroke="#000000" stroke-width="3" stroke-miterlimit="10" d="M147.34,310.803v47.898l32.353,48.74h7.983
		l3.361-5.042l-30.669-43.277l-0.843-23.74c0,0,3.361-17.857,31.512-5.672l27.311-18.907c0,0,2.521-3.782,0-10.085
		c0,0-7.563-18.066-25.63-18.486C192.719,282.231,179.273,274.249,147.34,310.803z"/>
	
		<ellipse fill="#FFFFFF" stroke="#000000" stroke-width="3" stroke-miterlimit="10" cx="371.621" cy="256" rx="63.089" ry="61.935"/>
	<path fill="#FFFFFF" stroke="#000000" stroke-width="3" stroke-miterlimit="10" d="M267.732,196.496v54.186l36.599,55.139h9.032
		l3.802-5.705l-34.694-48.958l-0.954-26.856c0,0,3.803-20.201,35.648-6.417l30.896-21.389c0,0,2.852-4.279,0-11.408
		c0,0-8.555-20.439-28.995-20.914C319.066,164.174,303.856,155.144,267.732,196.496z"/>
	<path stroke="#000000" stroke-miterlimit="10" d="M408.414,306.314c-36.419-12.162-35.01-52.542-35.01-52.542
		s-36.268,22.753-16.663,62.427l14.879,1.736l8.051-0.5l-8.05-3.58c-6.037-1.68-2.838-5.629-2.838-5.629l2.838-3.615h-7.04
		c-4.202-3.361-2.521-7.982-2.521-7.982l4.28-5.043l-6.801-2.1c-2.521-14.707,13.865-35.714,13.865-35.714
		S362.48,271,365.842,276.881l1.681,8.973h6.302c0,0,6.304,3.633,1.892,8.254l-4.095,5.043l5.985-0.42c0,0,6.303,0.42,6.303,5.881
		l-2.102,5.463l6.723-1.848c0,0,7.753-1.246,7.448,4.922l5.578-2.617L408.414,306.314z"/>
	<path fill="none" stroke="#000000" stroke-miterlimit="10" d="M586.059,337.941"/>
	<path stroke="#000000" stroke-miterlimit="10" d="M398.194,242.847c0,0,7.563,7.563,7.143,18.487c0,0,5.884,4.457,10.085-5.334
		C415.422,256,416.682,247.889,398.194,242.847z"/>
</g>
</svg>
