<?xml version="1.0" encoding="utf-8"?>
<!-- Generator: Adobe Illustrator 16.0.0, SVG Export Plug-In . SVG Version: 6.00 Build 0)  -->
<!DOCTYPE svg PUBLIC "-//W3C//DTD SVG 1.1//EN" "http://www.w3.org/Graphics/SVG/1.1/DTD/svg11.dtd">
<svg version="1.1" id="Layer_2" xmlns="http://www.w3.org/2000/svg" xmlns:xlink="http://www.w3.org/1999/xlink" x="0px" y="0px"
	 width="512px" height="512px" viewBox="0 0 512 512" enable-background="new 0 0 512 512" xml:space="preserve">
<g>
	<rect x="23.454" y="29.538" fill="#FFFFFF" stroke="#000000" stroke-miterlimit="10" width="458.824" height="452.942"/>
	<rect x="41.941" y="48.025" stroke="#000000" stroke-miterlimit="10" width="422.269" height="415.966"/>
	<rect x="59.588" y="66.092" fill="#A22229" width="386.554" height="378.992"/>
	<path fill="#FFFFFF" stroke="#FFFFFF" stroke-miterlimit="10" d="M428.496,255.588c0,93.981-76.077,167.647-172.496,167.647
		c-96.417,0-173.513-73.456-173.513-167.437c0-93.981,77.098-173.74,173.516-173.74C352.422,82.059,428.496,161.606,428.496,255.588
		z"/>
	<path fill="#A52329" d="M409.203,255.288c0,84.728-67.453,151.141-152.942,151.141c-85.487,0-153.843-66.223-153.843-150.95
		S170.777,98.846,256.265,98.846C341.753,98.846,409.203,170.561,409.203,255.288z"/>
	<path fill="#FFFFFF" stroke="#FFFFFF" stroke-miterlimit="10" d="M356.742,253.281c0,53.82-44.186,96.005-100.187,96.005
		c-55.999,0-100.776-42.065-100.776-95.885s44.779-99.494,100.779-99.494C312.559,153.908,356.742,199.461,356.742,253.281z"/>
	<path stroke="#000000" stroke-miterlimit="10" d="M302.535,253.266c0,26.504-20.528,47.28-46.546,47.28
		c-26.017,0-46.821-20.716-46.821-47.221c0-26.504,20.804-48.998,46.822-48.998C282.008,204.328,302.535,226.761,302.535,253.266z"
		/>
	<rect x="246.983" y="132.479" stroke="#000000" stroke-miterlimit="10" width="18.487" height="241.596"/>
	<rect x="138.58" y="244.664" stroke="#000000" stroke-miterlimit="10" width="235.294" height="17.227"/>
	<path fill="#FFFFFF" stroke="#000000" stroke-miterlimit="10" d="M268.832,253.292c0,7.176-5.449,12.801-12.358,12.801
		c-6.908,0-12.432-5.609-12.432-12.785s5.523-13.266,12.432-13.266C263.383,240.042,268.832,246.116,268.832,253.292z"/>
	<rect x="11.269" y="240.042" stroke="#000000" stroke-miterlimit="10" width="103.361" height="26.051"/>
	<rect x="397.823" y="240.042" stroke="#000000" stroke-miterlimit="10" width="102.521" height="26.051"/>
	<rect x="240.681" y="11.471" stroke="#000000" stroke-miterlimit="10" width="30.672" height="102.521"/>
	<rect x="240.681" y="391.723" stroke="#000000" stroke-miterlimit="10" width="30.672" height="102.101"/>
	<rect x="11.269" y="244.664" fill="#FFFFFF" stroke="#000000" stroke-miterlimit="10" width="109.664" height="17.227"/>
	<rect x="391.521" y="244.664" fill="#FFFFFF" stroke="#000000" stroke-miterlimit="10" width="108.823" height="17.227"/>
	<rect x="246.983" y="11.471" fill="#FFFFFF" stroke="#000000" stroke-miterlimit="10" width="18.487" height="108.403"/>
	<rect x="246.983" y="384.58" fill="#FFFFFF" stroke="#000000" stroke-miterlimit="10" width="18.487" height="109.243"/>
</g>
</svg>
