<?xml version="1.0" encoding="utf-8"?>
<!-- Generator: Adobe Illustrator 16.0.0, SVG Export Plug-In . SVG Version: 6.00 Build 0)  -->
<!DOCTYPE svg PUBLIC "-//W3C//DTD SVG 1.1//EN" "http://www.w3.org/Graphics/SVG/1.1/DTD/svg11.dtd">
<svg version="1.1" id="Layer_2" xmlns="http://www.w3.org/2000/svg" xmlns:xlink="http://www.w3.org/1999/xlink" x="0px" y="0px"
	 width="512px" height="512px" viewBox="0 0 512 512" enable-background="new 0 0 512 512" xml:space="preserve">
<g>
	<rect x="35.639" y="35.84" fill="#FFFFFF" stroke="#000000" stroke-miterlimit="10" width="445.799" height="439.076"/>
	<rect x="53.286" y="54.328" stroke="#000000" stroke-miterlimit="10" width="410.084" height="402.521"/>
	<rect x="64.63" y="64.832" fill="#952B43" width="386.975" height="379.412"/>
	<path stroke="#000000" stroke-miterlimit="10" d="M206.088,394.891c0,0-0.96,28.729,10.477,49.5s30.672,34.918,35.05,36.864
		c8.429,3.749,11.103,15.304,11.103,15.304c125.014,2.741,119.88-123.826,119.88-123.826c-8.925-47.982,6.597-34.875,6.597-34.875
		s27.012,9.83,50.307,5.406c23.297-4.424,42.715-18.318,45.924-21.875c6.18-6.849,17.994-5.805,17.994-5.805
		c41.412-117.987-80.496-152.395-80.496-152.395s-33.973-3.506-26.779-14.318c0,0,17.648-22.689,20.589-46.218
		s-4.322-46.274-6.723-50.42c-4.621-7.983,0-18.907,0-18.907c-99.579-75.63-169.748,29.832-169.748,29.832
		c-22.688,34.88-28.525,21.134-28.525,21.134s-16.074-23.83-37.521-33.943s-45.323-10.286-50.011-9.294
		c-9.025,1.908-17.969-5.881-17.969-5.881C3.382,106.288,81.787,205.78,81.787,205.78c30.602,38.427,14.824,39.676,14.824,39.676
		s-27.624,7.949-43.854,25.235c-16.231,17.287-23.753,39.948-24.254,44.714c-0.966,9.174-11.132,15.281-11.132,15.281
		c35.959,119.762,154.77,75.832,154.77,75.832S201.327,384.193,206.088,394.891z"/>
	<path fill="#FFFFFF" stroke="#000000" stroke-miterlimit="10" d="M370.301,386.803c-6.757-3.104-59.938-17.17-48.346-58.941
		c11.594-41.771,70.041-21.024,70.041-21.024s-31.92-45.865,16.498-74.587c48.418-28.723,94.624,31.798,68.213,64.695
		c0,0,5.212,14.652,17.877,8.763c12.662-5.888,30.978-77.242-61.176-122.812l-0.711,0.423c-5.042,5.462-34.874,51.681-71.008,27.731
		s1.681-73.109,1.681-73.109s-53.491,16.16-65.821-38.769s59.519-80.139,82.628-44.845c0,0,15.546-0.42,13.865-14.286
		S330.178-13.32,258.328,60.21l0.598-0.704c3.646,6.478,38.438,49.088,4.529,76.096c-33.91,27.007-69.042-24.103-69.042-24.103
		s-1.089,55.869-57.146,50.692c-56.058-5.176-57.929-81.296-17.234-92.42c0,0,4.385-14.92-9.325-17.589
		c-13.709-2.669-70.428,44.339-22.584,135.333l-0.576-0.349c7.288-1.464,58.573-21.362,73.763,19.239
		c15.188,40.603-44.284,58.196-44.284,58.196s52.79,18.323,30.521,70.027c-22.268,51.705-95.231,29.93-93.217-12.21
		c0,0-12.831-8.786-19.611,3.425c-6.779,12.21,20.37,80.691,121.702,63.354l-0.117-0.661c0.858-7.385-2.235-62.308,41.072-64.221
		c43.309-1.912,41.682,60.087,41.682,60.087s33.726-44.555,76.029-7.411c42.305,37.143-0.932,99.819-40.391,84.895
		c0,0-12.318,9.492-2.797,19.711c9.521,10.217,83.038,5.535,97.83-96.2"/>
	<circle fill="#952B43" cx="346.143" cy="88.361" r="23.529"/>
	<circle fill="#952B43" cx="140.944" cy="111.891" r="23.529"/>
	<circle fill="#952B43" cx="102.866" cy="318.613" r="23.529"/>
	<circle fill="#952B43" cx="282.067" cy="417.773" r="23.529"/>
	<circle fill="#952B43" cx="437.319" cy="274.916" r="23.529"/>
	<ellipse stroke="#000000" stroke-miterlimit="10" cx="256.437" cy="242.143" rx="76.26" ry="76.471"/>
	<ellipse fill="#FFFFFF" stroke="#000000" stroke-miterlimit="10" cx="256.437" cy="241.197" rx="61.554" ry="60.399"/>
	<ellipse fill="#952B43" cx="255.597" cy="242.143" rx="32.563" ry="32.773"/>
</g>
</svg>
