<?xml version="1.0" encoding="utf-8"?>
<!-- Generator: Adobe Illustrator 16.0.0, SVG Export Plug-In . SVG Version: 6.00 Build 0)  -->
<!DOCTYPE svg PUBLIC "-//W3C//DTD SVG 1.1//EN" "http://www.w3.org/Graphics/SVG/1.1/DTD/svg11.dtd">
<svg version="1.1" id="Layer_2" xmlns="http://www.w3.org/2000/svg" xmlns:xlink="http://www.w3.org/1999/xlink" x="0px" y="0px"
	 width="512px" height="512px" viewBox="0 0 512 512" enable-background="new 0 0 512 512" xml:space="preserve">
<g>
	<rect x="29.756" y="35.84" fill="#FFFFFF" stroke="#000000" stroke-miterlimit="10" width="452.101" height="446.218"/>
	<rect x="48.244" y="54.328" stroke="#000000" stroke-miterlimit="10" width="415.546" height="408.824"/>
	<rect x="65.681" y="71.555" fill="#F2C439" width="380.673" height="373.949"/>
	<path stroke="#000000" stroke-miterlimit="10" d="M537.739,181.219c8.218-15-73.949-13.446-73.949-13.446h-65.967L255.807,271.555
		l0.21,17.647c0,0,53.992,7.143,81.303,37.395S467.991,308.529,537.739,181.219z"/>
	<path fill="#FFFFFF" stroke="#FFFFFF" stroke-miterlimit="10" d="M270.093,277.438l128.991-95.379h56.303
		c0,0,57.982-2.101,67.227,6.303c0,0-113.025,164.707-176.891,127.731C345.723,316.093,316.732,287.102,270.093,277.438z"/>
	<path stroke="#000000" stroke-miterlimit="10" d="M326.395,253.487l70.667-52.941c0,0,110.426-21.428,33.955,78.992
		c0,0-30.251,34.874-72.688,23.109C358.328,302.647,296.563,279.537,326.395,253.487z"/>
	<polygon fill="#FFFFFF" stroke="#FFFFFF" stroke-miterlimit="10" points="398.73,304.652 393.622,267.795 376.395,288.726 
		372.465,215.858 393.11,199.108 393.622,245.5 405.807,232.304 405.807,301.434 	"/>
	<path stroke="#000000" stroke-miterlimit="10" d="M-26.178,181.29c-8.227-14.995,73.941-13.489,73.941-13.489l65.966-0.039
		l142.077,103.698l-0.2,17.647c0,0-53.987,7.175-81.28,37.442S43.645,308.56-26.178,181.29z"/>
	<path fill="#FFFFFF" stroke="#FFFFFF" stroke-miterlimit="10" d="M241.524,277.353l-129.047-95.303l-56.302,0.033
		c0,0-57.983-2.067-67.223,6.342c0,0,113.121,164.641,176.965,127.628C165.917,316.052,194.89,287.044,241.524,277.353z"/>
	<path stroke="#000000" stroke-miterlimit="10" d="M185.208,253.436l-70.698-52.9c0,0-110.438-21.364-33.909,79.011
		c0,0,30.271,34.856,72.702,23.066C153.304,302.613,215.056,279.468,185.208,253.436z"/>
	<polygon fill="#FFFFFF" stroke="#FFFFFF" stroke-miterlimit="10" points="112.9,304.923 117.989,268.62 135.228,289.223 
		139.118,217.456 118.463,200.972 117.977,246.662 105.786,233.674 105.823,301.756 	"/>
</g>
</svg>
