<?xml version="1.0" encoding="utf-8"?>
<!-- Generator: Adobe Illustrator 16.0.0, SVG Export Plug-In . SVG Version: 6.00 Build 0)  -->
<!DOCTYPE svg PUBLIC "-//W3C//DTD SVG 1.1//EN" "http://www.w3.org/Graphics/SVG/1.1/DTD/svg11.dtd">
<svg version="1.1" id="Layer_2" xmlns="http://www.w3.org/2000/svg" xmlns:xlink="http://www.w3.org/1999/xlink" x="0px" y="0px"
	 width="512px" height="512px" viewBox="0 0 512 512" enable-background="new 0 0 512 512" xml:space="preserve">
<polygon fill="#FFFFFF" stroke="#000000" stroke-miterlimit="10" points="481.438,482.059 30.176,482.059 30.176,374.35 
	47.114,350.772 57.277,206.834 30.176,136.951 30.176,35.42 481.438,35.42 481.438,137.357 459.31,206.849 462.529,345.9 
	481.438,378.821 "/>
<rect x="47.824" y="54.328" stroke="#000000" stroke-miterlimit="10" width="414.706" height="408.824"/>
<rect x="65.471" y="66.513" fill="#F2C439" width="379.832" height="384.454"/>
<path fill="#FFFFFF" stroke="#000000" stroke-width="2" stroke-miterlimit="10" d="M255.699,0c0,0-75.454,100.113-233.022,131.6
	c0,0,53.762,115.556-0.043,254.202c0,0,137.392,19.564,233.173,126.196C351.605,405.382,489,385.841,489,385.841
	c-53.781-138.655,0-254.202,0-254.202C331.437,100.126,256,0,256,0L255.699,0z"/>
<path fill="#F2C439" stroke="#000000" stroke-width="2" stroke-miterlimit="10" d="M406.227,168.613
	c-78.572-23.53-141.176-78.571-141.176-78.571V42.563c0,0,67.226,80.252,186.134,102.101L406.227,168.613z"/>
<path fill="#F2C439" stroke="#000000" stroke-width="2" stroke-miterlimit="10" d="M410.009,330.799
	c-12.604-72.269,0.063-147.403,0.063-147.403l46.995-27.387c0,0-32.773,89.496,0,206.302L410.009,330.799z"/>
<path fill="#F2C439" stroke="#000000" stroke-width="2" stroke-miterlimit="10" d="M402.445,345.925
	c-102.101,31.513-137.395,76.05-137.395,76.05v54.202c0,0,55.041-74.685,186.134-101.575L402.445,345.925z"/>
<path fill="#F2C439" stroke="#000000" stroke-width="2" stroke-miterlimit="10" d="M265.051,168.613c0,0,24.79,21.849,71.849,38.235
	l42.437-25.63c-62.605-15.126-114.285-60.504-114.285-60.504V168.613z"/>
<path fill="#F2C439" stroke="#000000" stroke-width="2" stroke-miterlimit="10" d="M265.051,192.983
	c0,0,17.228,18.908,46.639,28.571l-46.639,25.21V192.983z"/>
<path fill="#F2C439" stroke="#000000" stroke-width="2" stroke-miterlimit="10" d="M346.143,219.874c0,0-8.824,42.017,0,77.311
	l41.597,25.21c-12.186-55.463,0-129.411,0-129.411L346.143,219.874z"/>
<path fill="#F2C439" stroke="#000000" stroke-width="2" stroke-miterlimit="10" d="M271.773,259.159l45.378-25.84
	c0,0-3.781,28.15,0,52.101L271.773,259.159z"/>
<path fill="#F2C439" stroke="#000000" stroke-width="2" stroke-miterlimit="10" d="M265.051,349.286
	c0,0,39.916-32.772,71.849-39.916l42.437,23.949c-59.244,14.286-114.285,63.025-114.285,63.025V349.286z"/>
<path fill="#F2C439" stroke="#000000" stroke-width="2" stroke-miterlimit="10" d="M311.689,295.084
	c-22.688,6.303-46.639,29.832-46.639,29.832v-54.202L311.689,295.084z"/>
<path fill="#F2C439" stroke="#000000" stroke-width="2" stroke-miterlimit="10" d="M105.444,168.588
	c78.576-23.517,141.188-78.548,141.188-78.548l0.008-47.479c0,0-67.239,80.241-186.15,102.07L105.444,168.588z"/>
<path fill="#F2C439" stroke="#000000" stroke-width="2" stroke-miterlimit="10" d="M101.635,330.773
	c12.616-72.268-0.039-147.404-0.039-147.404l-46.99-27.395c0,0,32.758,89.501-0.035,206.303L101.635,330.773z"/>
<path fill="#F2C439" stroke="#000000" stroke-width="2" stroke-miterlimit="10" d="M109.195,345.9
	c102.096,31.529,137.382,76.072,137.382,76.072l-0.009,54.201c0,0-55.029-74.693-186.117-101.605L109.195,345.9z"/>
<path fill="#F2C439" stroke="#000000" stroke-width="2" stroke-miterlimit="10" d="M246.619,168.611
	c0,0-24.793,21.844-71.854,38.223l-42.433-25.637c62.608-15.116,114.296-60.485,114.296-60.485L246.619,168.611z"/>
<path fill="#F2C439" stroke="#000000" stroke-width="2" stroke-miterlimit="10" d="M246.615,192.981c0,0-17.23,18.905-46.643,28.563
	l46.634,25.218L246.615,192.981z"/>
<path fill="#F2C439" stroke="#000000" stroke-width="2" stroke-miterlimit="10" d="M165.52,219.858c0,0,8.817,42.019-0.013,77.311
	l-41.602,25.202c12.195-55.46,0.021-129.41,0.021-129.41L165.52,219.858z"/>
<path fill="#F2C439" stroke="#000000" stroke-width="2" stroke-miterlimit="10" d="M239.882,259.156l-45.374-25.848
	c0,0,3.777,28.15-0.008,52.101L239.882,259.156z"/>
<path fill="#F2C439" stroke="#000000" stroke-width="2" stroke-miterlimit="10" d="M246.59,349.283c0,0-39.911-32.777-71.843-39.928
	l-42.44,23.943c59.242,14.295,114.275,63.043,114.275,63.043L246.59,349.283z"/>
<path fill="#F2C439" stroke="#000000" stroke-width="2" stroke-miterlimit="10" d="M199.96,295.074
	c22.688,6.307,46.634,29.84,46.634,29.84l0.009-54.202L199.96,295.074z"/>
</svg>
