<?xml version="1.0" encoding="utf-8"?>
<!-- Generator: Adobe Illustrator 16.0.0, SVG Export Plug-In . SVG Version: 6.00 Build 0)  -->
<!DOCTYPE svg PUBLIC "-//W3C//DTD SVG 1.1//EN" "http://www.w3.org/Graphics/SVG/1.1/DTD/svg11.dtd">
<svg version="1.1" id="Layer_2" xmlns="http://www.w3.org/2000/svg" xmlns:xlink="http://www.w3.org/1999/xlink" x="0px" y="0px"
	 width="512px" height="512px" viewBox="0 0 512 512" enable-background="new 0 0 512 512" xml:space="preserve">
<g>
	<rect x="30.176" y="29.958" fill="#FFFFFF" stroke="#000000" stroke-miterlimit="10" width="452.101" height="445.378"/>
	<rect x="47.824" y="47.605" stroke="#000000" stroke-miterlimit="10" width="415.546" height="410.084"/>
	<rect x="65.05" y="64.832" fill="#A22229" width="382.353" height="375.21"/>
	<path stroke="#000000" stroke-miterlimit="10" d="M391.521,120.762c0,16.449-5.373,29.784-12,29.784H132.513
		c-6.627,0-12-13.335-12-29.784v-85.39c0-16.449,5.373-29.784,12-29.784h247.009c6.627,0,12,13.335,12,29.784V120.762z"/>
	<path fill="#FFFFFF" stroke="#000000" stroke-miterlimit="10" d="M386.479,66.277c0,6.627-5.373,12-12,12H138.395
		c-6.627,0-12-5.373-12-12V23.891c0-6.627,5.373-12,12-12h236.084c6.627,0,12,5.373,12,12V66.277z"/>
	<path fill="#FFFFFF" stroke="#000000" stroke-miterlimit="10" d="M386.479,131.824c0,6.627-5.373,12-12,12H138.395
		c-6.627,0-12-5.373-12-12V96.16c0-6.627,5.373-12,12-12h236.084c6.627,0,12,5.373,12,12V131.824z"/>
	<rect x="223.454" y="5.588" stroke="#000000" stroke-miterlimit="10" width="65.546" height="144.958"/>
	<rect x="138.58" y="29.958" stroke="#000000" stroke-miterlimit="10" width="234.453" height="17.647"/>
	<rect x="138.58" y="96.345" stroke="#000000" stroke-miterlimit="10" width="234.453" height="17.647"/>
	<path fill="#FFFFFF" stroke="#000000" stroke-miterlimit="10" d="M386.479,35.84c0,0,35.294,11.765,35.714,44.958
		c0,0,1.682,31.933-35.714,40.546v-13.025c23.868-6.159,22.795-28.99,22.795-28.99c-0.268-23.733-22.795-32.145-22.795-32.145V35.84
		z"/>
	
		<rect x="246.563" y="246.765" fill="#FFFFFF" stroke="#000000" stroke-width="2" stroke-miterlimit="10" width="18.908" height="147.479"/>
	<path fill="#FFFFFF" stroke="#000000" stroke-width="2" stroke-miterlimit="10" d="M247.192,378.694
		c-37.813,46.641-62.814-5.459-62.814-5.459s-1.893-8.401,14.494-7.143c0,0-15.614-11.765-11.802-52.521
		c0,0-52.694,65.13,16.216,106.302c0,0,32.146,14.283,53.151-16.391l-0.21,0.004c21.008,30.672,54.202,15.126,54.202,15.126
		c68.907-41.177,15.16-105.042,15.16-105.042c3.815,40.756-11.799,52.521-11.799,52.521c16.387-1.26,14.286,6.723,14.286,6.723
		s-24.79,52.521-62.605,5.882L247.192,378.694z"/>
	
		<ellipse fill="#FFFFFF" stroke="#000000" stroke-width="4" stroke-miterlimit="10" cx="256.017" cy="235.63" rx="22.059" ry="25.42"/>
	
		<rect x="251.605" y="146.765" fill="#FFFFFF" stroke="#000000" stroke-width="2" stroke-miterlimit="10" width="9.664" height="68.908"/>
	<rect x="228.496" y="7.689" fill="#FFFFFF" stroke="#FFFFFF" stroke-miterlimit="10" width="54.621" height="140.336"/>
	<ellipse fill="#FFFFFF" cx="256.017" cy="235.63" rx="22.059" ry="25.42"/>
	<ellipse stroke="#000000" stroke-miterlimit="10" cx="256.437" cy="231.639" rx="4.832" ry="9.244"/>
	<rect x="247.558" y="252.883" fill="#FFFFFF" width="16.96" height="150.983"/>
</g>
</svg>
