<?xml version="1.0" encoding="utf-8"?>
<!-- Generator: Adobe Illustrator 16.0.0, SVG Export Plug-In . SVG Version: 6.00 Build 0)  -->
<!DOCTYPE svg PUBLIC "-//W3C//DTD SVG 1.1//EN" "http://www.w3.org/Graphics/SVG/1.1/DTD/svg11.dtd">
<svg version="1.1" id="Layer_1" xmlns="http://www.w3.org/2000/svg" xmlns:xlink="http://www.w3.org/1999/xlink" x="0px" y="0px"
	 width="512px" height="512px" viewBox="0 0 512 512" enable-background="new 0 0 512 512" xml:space="preserve">
<g>
	<rect x="59.5" y="58.5" fill="#FFFFFF" stroke="#000000" stroke-miterlimit="10" width="410" height="410"/>
	<rect x="76.5" y="75.5" stroke="#FF0000" stroke-miterlimit="10" width="375" height="375"/>
	<rect x="93" y="93" fill="#B24B1D" width="342" height="341"/>
	<polygon stroke="#000000" stroke-miterlimit="10" points="210.123,234.334 185.178,75.412 263.632,218.196 	"/>
	<polygon stroke="#000000" stroke-miterlimit="10" points="313.925,258.072 451.523,375.153 290.188,325.664 	"/>
	<polygon stroke="#000000" stroke-miterlimit="10" points="345.903,507.883 293.004,271.349 233.86,318.424 	"/>
	<polygon fill="#FFFFFF" points="195.638,105.788 219.769,231.424 252.478,221.56 	"/>
	<polygon fill="#B24B1D" points="233.86,214.419 218.536,225.002 198.289,119.584 	"/>
	<polygon fill="#FFFFFF" points="404.451,351.013 370.856,323.854 378.902,319.229 355.366,313.192 308.612,273.202 293.098,317.38 
		397.331,348.861 	"/>
	<polygon fill="#B24B1D" points="364.017,327.677 370.856,323.854 378.902,319.229 352.349,321.641 302.015,291.984 293.098,317.38 
		397.331,348.861 	"/>
	<polygon fill="#FFFFFF" points="330.22,464.673 281.67,280.368 246.792,308.132 316.206,438.378 	"/>
	<polygon fill="#B24B1D" points="281.336,344 290.188,344 276.508,284.742 246.792,308.289 316.206,438.772 	"/>
	<polygon stroke="#000000" stroke-miterlimit="10" points="236.073,221.46 118.691,178.812 96.261,128.521 93.444,168.606 
		0.103,140.188 128.845,247.612 106.316,284.427 151.379,266.924 180.349,289.192 137.299,352.5 89.824,352.5 121.904,374.891 
		44.36,487.676 198.289,379.914 212.134,407.308 221.791,361.385 293.098,308.357 297.314,305.368 357.78,227.492 391.173,249.22 
		375.081,204.561 440.259,119.584 489.345,109.208 457.962,91.505 512.277,13.452 382.322,108.805 345.215,91.505 359.792,126.508 	
		"/>
	<polygon fill="#FFFFFF" points="491.557,33.87 384.233,119.534 363.362,110.39 377.067,134.14 370.843,139.779 366.378,134.954 
		239,236.748 239,285.163 293.454,291.984 354.74,213.011 368.732,221.46 364.967,200.137 440.282,101.966 439.866,113.231 
		465.21,105.788 446.298,95.528 	"/>
	<polygon fill="#B24B1D" points="359.792,207.781 364.922,200.137 440.259,101.966 439.855,113.231 446.295,95.528 475.721,55.442 
		242.869,285.782 292.896,291.984 354.562,213.011 368.643,221.46 	"/>
	<polygon fill="#FFFFFF" points="25.374,155.075 89,178.276 89,189 97.066,189 101.894,164.795 111.818,188.3 230.91,234.451 
		236.006,285.197 195.638,284.456 150.174,250.645 150.71,256.604 130.795,263.708 141.754,242.651 	"/>
	<polygon fill="#B24B1D" points="225.411,267.863 195.638,284.427 150.174,250.629 150.71,256.598 130.795,263.706 147.224,248.282 
		141.859,242.65 37.133,163.773 	"/>
	<polygon fill="#FFFFFF" points="236.945,286.504 196.929,294.635 148.028,361 122.011,361 140.25,377.332 136.226,382 130.861,382 
		75.742,454.951 194.163,367.574 189.067,356.207 195.638,352.669 208.647,378.663 212.402,352.635 282.677,300.32 	"/>
	<polygon fill="#B24B1D" points="240.395,298.801 86.993,446.455 194.163,367.473 189.067,356.106 195.638,352.62 203.175,367.694 
		203.819,352.887 212.402,352.62 282.677,300.315 	"/>
	<polygon fill="#B24B1D" points="140.25,377.364 143.536,372.19 129.64,368.122 	"/>
</g>
</svg>
