<?xml version="1.0" encoding="utf-8"?>
<!-- Generator: Adobe Illustrator 16.0.0, SVG Export Plug-In . SVG Version: 6.00 Build 0)  -->
<!DOCTYPE svg PUBLIC "-//W3C//DTD SVG 1.1//EN" "http://www.w3.org/Graphics/SVG/1.1/DTD/svg11.dtd">
<svg version="1.1" id="Layer_2" xmlns="http://www.w3.org/2000/svg" xmlns:xlink="http://www.w3.org/1999/xlink" x="0px" y="0px"
	 width="512px" height="512px" viewBox="0 0 512 512" enable-background="new 0 0 512 512" xml:space="preserve">
<g>
	<rect x="29.756" y="29.118" fill="#FFFFFF" stroke="#000000" stroke-miterlimit="10" width="451.681" height="446.638"/>
	<rect x="48.244" y="48.025" stroke="#000000" stroke-miterlimit="10" width="415.546" height="409.664"/>
	<rect x="65.891" y="65.672" fill="#406181" width="379.832" height="373.53"/>
	<path fill="#FFFFFF" stroke="#000000" stroke-miterlimit="10" d="M256.458,6.008c0,0,60.292,41.599,170.796,48.326l-0.002,54.622
		c0,0,7.554,286.978-171.231,325.204h-0.005C77.234,395.926,84.798,108.95,84.798,108.95V54.328
		C195.303,47.605,255.597,6.008,255.597,6.008H256.458z"/>
	<path stroke="#000000" stroke-miterlimit="10" d="M256.563,17.626c0,0,56.348,39.205,159.624,45.544l-0.002,51.479
		c0,0,7.059,270.459-160.031,306.486h-0.004C89.062,385.101,96.131,114.643,96.131,114.643V63.165
		c103.275-6.336,159.625-45.538,159.625-45.538H256.563z"/>
	<path fill="#FFFFFF" stroke="#000000" stroke-miterlimit="10" d="M256.335,29.118c0,0,54.007,37.19,152.988,43.204l-0.001,48.832
		c0,0,6.766,256.562-153.378,290.737h-0.004C95.797,377.709,102.572,121.148,102.572,121.148V72.315
		c98.983-6.01,152.991-43.198,152.991-43.198H256.335z"/>
	<polygon stroke="#000000" stroke-miterlimit="10" points="255.807,325.336 246.563,126.678 265.471,126.678 	"/>
	<path stroke="#000000" stroke-miterlimit="10" d="M318.412,127.106c0,6.627,1.254,5.373-5.373,5.373H198.574
		c-6.627,0-5.373,1.255-5.373-5.373V95.835c0-6.627-1.255-5.373,5.373-5.373h114.465c6.627,0,5.373-1.255,5.373,5.373V127.106z"/>
	<path fill="#FFFFFF" stroke="#000000" stroke-miterlimit="10" d="M313.369,122.737c0,4.779,1.149,3.873-4.922,3.873H203.578
		c-6.071,0-4.922,0.906-4.922-3.873v-22.545c0-4.778-1.149-3.874,4.922-3.874h104.869c6.071,0,4.922-0.905,4.922,3.874V122.737z"/>
	<path stroke="#000000" stroke-miterlimit="10" d="M301.203,113.677c0,0.941,0.905,0.763-3.878,0.763h-82.609
		c-4.783,0-3.877,0.178-3.877-0.763v-4.439c0-0.941-0.906-0.763,3.877-0.763h82.609c4.783,0,3.878-0.178,3.878,0.763V113.677z"/>
	<circle stroke="#000000" stroke-miterlimit="10" cx="123.454" cy="93.403" r="11.765"/>
	<circle fill="#FFFFFF" stroke="#000000" stroke-miterlimit="10" cx="123.454" cy="93.403" r="7.992"/>
	<circle stroke="#000000" stroke-miterlimit="10" cx="388.16" cy="93.403" r="11.765"/>
	<circle fill="#FFFFFF" stroke="#000000" stroke-miterlimit="10" cx="388.16" cy="93.403" r="7.992"/>
	<circle stroke="#000000" stroke-miterlimit="10" cx="255.597" cy="51.387" r="11.765"/>
	<circle fill="#FFFFFF" stroke="#000000" stroke-miterlimit="10" cx="255.597" cy="51.387" r="7.992"/>
	<circle stroke="#000000" stroke-miterlimit="10" cx="255.597" cy="389.202" r="11.765"/>
	<circle fill="#FFFFFF" stroke="#000000" stroke-miterlimit="10" cx="255.596" cy="389.202" r="7.991"/>
	<circle stroke="#000000" stroke-miterlimit="10" cx="129.336" cy="177.017" r="11.765"/>
	<circle fill="#FFFFFF" stroke="#000000" stroke-miterlimit="10" cx="129.335" cy="177.017" r="7.992"/>
	<circle stroke="#000000" stroke-miterlimit="10" cx="382.277" cy="177.017" r="11.765"/>
	<circle fill="#FFFFFF" stroke="#000000" stroke-miterlimit="10" cx="382.277" cy="177.017" r="7.992"/>
	<circle stroke="#000000" stroke-miterlimit="10" cx="137.328" cy="263.395" r="11.765"/>
	<circle fill="#FFFFFF" stroke="#000000" stroke-miterlimit="10" cx="137.328" cy="263.395" r="7.992"/>
	<circle stroke="#000000" stroke-miterlimit="10" cx="374.285" cy="263.395" r="11.765"/>
	<circle fill="#FFFFFF" stroke="#000000" stroke-miterlimit="10" cx="374.285" cy="263.395" r="7.992"/>
	<circle stroke="#000000" stroke-miterlimit="10" cx="181.342" cy="337.101" r="11.765"/>
	<circle fill="#FFFFFF" stroke="#000000" stroke-miterlimit="10" cx="181.342" cy="337.101" r="7.992"/>
	<circle stroke="#000000" stroke-miterlimit="10" cx="330.272" cy="337.101" r="11.765"/>
	<circle fill="#FFFFFF" stroke="#000000" stroke-miterlimit="10" cx="330.272" cy="337.101" r="7.992"/>
</g>
</svg>
