<?xml version="1.0" encoding="utf-8"?>
<!-- Generator: Adobe Illustrator 16.0.0, SVG Export Plug-In . SVG Version: 6.00 Build 0)  -->
<!DOCTYPE svg PUBLIC "-//W3C//DTD SVG 1.1//EN" "http://www.w3.org/Graphics/SVG/1.1/DTD/svg11.dtd">
<svg version="1.1" id="Layer_2" xmlns="http://www.w3.org/2000/svg" xmlns:xlink="http://www.w3.org/1999/xlink" x="0px" y="0px"
	 width="512px" height="512px" viewBox="0 0 512 512" enable-background="new 0 0 512 512" xml:space="preserve">
<g>
	<polygon fill="#FFFFFF" stroke="#000000" stroke-miterlimit="10" points="463.79,421.975 486.899,482.059 41.941,482.059 
		24.714,422.395 5.807,421.975 0.003,385.42 0,336.681 11.269,331.219 11.269,307.269 54.546,210.63 65.891,210.21 72.193,165.672 
		66.731,127.017 41.941,127.017 11.269,35.42 457.067,35.42 481.438,126.597 503.289,126.327 512,164.412 504.967,211.05 
		494.042,211.05 451.185,315.252 451.605,332.059 440.261,331.639 440.261,364.832 452.865,421.975 	"/>
	<polygon stroke="#000000" stroke-miterlimit="10" points="457.067,463.571 54.126,463.571 42.361,421.975 30.597,421.555 
		17.992,372.815 17.992,336.681 30.597,331.219 30.597,307.269 72.613,216.513 83.958,216.513 90.493,166.929 86.899,127.017 
		61.269,127.017 41.941,53.907 445.303,53.907 464.21,126.597 487.739,126.597 494.042,164.832 487.739,211.471 477.235,211.471 
		434.378,314.832 434.378,332.059 422.613,332.059 422.613,365.252 431.875,422.065 445.723,422.395 	"/>
	<polygon fill="#8F707A" points="433.958,452.227 65.891,452.227 57.49,422.763 48.146,422.706 36.059,373.655 36.059,336.681 
		48.244,331.639 47.824,308.109 89.465,222.023 100.765,222.395 108.983,167.781 103.286,127.017 83.958,127.017 65.891,66.092 
		433.958,66.092 446.563,126.597 470.093,126.597 476.395,162.731 468.832,211.471 459.168,211.471 415.891,310.21 416.311,332.479 
		404.546,332.059 404.311,363.563 414.892,421.927 427.235,422.395 	"/>
	<path stroke="#000000" stroke-miterlimit="10" d="M246.61,100.12c65.126-0.41,84.445,50.433,84.445,50.433
		c5.042,0.841,12.185,6.725,12.185,6.725c52.092,61.352-0.438,114.286-0.438,114.286l0.417,18.487
		c44.538,4.209,46.631,52.948,46.631,52.948c-1.694,90.757-68.921,84.864-68.921,84.864c-14.706,5.039-54.196-30.682-54.196-30.682
		l-20.17,12.603l0,0.006l-20.168-12.605c0,0-39.496,35.715-54.202,30.673c0,0-67.227,5.883-68.908-84.874
		c0,0,2.101-48.739,46.639-52.941l0.42-18.487c0,0-52.521-52.942-0.42-114.286c0,0,7.143-5.882,12.185-6.723
		c0,0,19.327-50.84,84.454-50.42L246.61,100.12z"/>
	<path fill="#FFFFFF" stroke="#000000" stroke-miterlimit="10" d="M246.583,403.218l20.593-17.229l26.051,17.227
		c-11.348-78.99,51.256-100.002,51.256-100.002c-4.201-10.924-7.982-8.403-7.982-8.403l-0.002-30.43
		c26.049-23.287,23.947-53.605,23.947-53.605c-4.205-51.68-36.137-54.621-36.137-54.621c-24.793-54.201-77.74-47.055-77.74-47.055
		l0-0.15c0,0-52.946-7.143-77.736,47.059c0,0-31.933,2.942-36.135,54.622c0,0-2.101,30.318,23.95,53.604v30.43
		c0,0-3.781-2.521-7.983,8.403c0,0,62.604,21.009,51.26,100l26.05-17.228l20.594,17.228L246.583,403.218z"/>
	
		<ellipse transform="matrix(0.9182 -0.3961 0.3961 0.9182 -132.1026 90.8575)" fill="#FFFFFF" stroke="#000000" stroke-miterlimit="10" cx="153.933" cy="365.276" rx="38.212" ry="59.452"/>
	
		<ellipse transform="matrix(-0.9182 -0.396 0.396 -0.9182 504.255 834.6565)" fill="#FFFFFF" stroke="#000000" stroke-miterlimit="10" cx="338.285" cy="365.276" rx="38.212" ry="59.453"/>
	
		<rect x="195.22" y="300.224" transform="matrix(0.7071 -0.7071 0.7071 0.7071 -147.4595 266.6944)" stroke="#000000" stroke-miterlimit="10" width="105.972" height="22.252"/>
	
		<rect x="195.221" y="300.224" transform="matrix(-0.7071 -0.7071 0.7071 -0.7071 203.5793 707.0199)" stroke="#000000" stroke-miterlimit="10" width="105.972" height="22.253"/>
	<path stroke="#000000" stroke-miterlimit="10" d="M248.222,201.964c0,0,38.899-30.876,66.135-29.644
		c0,0,27.645-5.678,33.722,38.228c0,0,1.608,39.128-26.039,48.617c0,0-10.979,5.915-37.805-0.438c0,0-18.694-7.567-26.819-19.36
		c0,0-4.598-3.255-9.209-3.257l-1.638,0.03c-4.611,0-9.21,3.252-9.21,3.252c-8.13,11.789-26.829,19.348-26.829,19.348
		c-26.829,6.34-37.805,0.42-37.805,0.42c-27.643-9.501-26.016-48.629-26.016-48.629c6.098-43.902,33.74-38.211,33.74-38.211
		c27.236-1.219,66.121,29.675,66.121,29.675L248.222,201.964z"/>
</g>
</svg>
