<?xml version="1.0" encoding="utf-8"?>
<!-- Generator: Adobe Illustrator 16.0.0, SVG Export Plug-In . SVG Version: 6.00 Build 0)  -->
<!DOCTYPE svg PUBLIC "-//W3C//DTD SVG 1.1//EN" "http://www.w3.org/Graphics/SVG/1.1/DTD/svg11.dtd">
<svg version="1.1" id="Layer_2" xmlns="http://www.w3.org/2000/svg" xmlns:xlink="http://www.w3.org/1999/xlink" x="0px" y="0px"
	 width="512px" height="512px" viewBox="0 0 512 512" enable-background="new 0 0 512 512" xml:space="preserve">
<path fill="#FFFFFF" stroke="#000000" stroke-miterlimit="10" d="M29.756,29.958h452.101v68.416c0,0,7.563,4.273,17.646,10.156
	c0,0,0.841,38.235-17.227,84.034v283.614H29.756V29.958z"/>
<polygon stroke="#000000" stroke-miterlimit="10" points="463.37,457.269 48.244,457.269 48.244,48.025 463.37,48.025 
	463.37,99.286 483.985,119.717 463.37,220.294 "/>
<path fill="#CF5E33" d="M65.891,66.092v181.933c0,0,142.018-153.362,254.622-181.933H65.891z"/>
<path fill="#CF5E33" d="M65.891,350.967v88.655h379.832V274.496C445.723,274.496,347.823,497.186,65.891,350.967z"/>
<path fill="#FFFFFF" stroke="#FFFFFF" stroke-miterlimit="10" d="M491.101,150.332C400.534,572.999,36.479,337.521,36.479,337.521
	v-43.277c0,0,214.286-220.588,339.076-220.168c0,0,73.638-1.259,103.78,25.632L491.101,150.332z"/>
<path stroke="#000000" stroke-miterlimit="10" d="M48.244,328.19c395.377,215.546,431.091-206.216,431.091-206.216
	c-68.068-42.017-147.478-15.126-147.478-15.126c79.832,50,72.269,127.731,72.269,127.731
	c-10.504,141.597-146.219,144.958-146.219,144.958c-132.773-7.143-142.437-126.471-142.437-126.471
	c-33.193,19.748-67.227,60.571-67.227,60.571V328.19z"/>
<path fill="none" stroke="#000000" stroke-width="3" stroke-miterlimit="10" d="M269.672,126.382
	c98.574,16.667,94.516,108.537,94.516,108.537c-0.372,101.631-105.691,102.845-105.691,102.845
	c-98.596-1.55-104.878-102.845-104.878-102.845s-0.406-13.415,0-16.26"/>
<line fill="none" stroke="#000000" stroke-width="2" stroke-miterlimit="10" x1="132.48" y1="234.918" x2="191.017" y2="234.918"/>
<line fill="none" stroke="#000000" stroke-width="2" stroke-miterlimit="10" x1="326.789" y1="234.918" x2="404.126" y2="234.58"/>
<line fill="none" stroke="#000000" stroke-width="2" stroke-miterlimit="10" x1="257.907" y1="379.538" x2="258.824" y2="302.398"/>
<line fill="none" stroke="#000000" stroke-width="2" stroke-miterlimit="10" x1="258.365" y1="167.032" x2="258.824" y2="132.886"/>
<ellipse fill="none" stroke="#000000" stroke-width="3" stroke-miterlimit="10" cx="258.904" cy="234.715" rx="67.887" ry="67.684"/>
<ellipse fill="none" stroke="#000000" stroke-width="4" stroke-miterlimit="10" cx="259.106" cy="234.579" rx="27.845" ry="27.762"/>
<path stroke="#000000" stroke-miterlimit="10" d="M259.105,234.579l54.675,114.567c0,0,42.683-11.383,68.699-77.643L259.105,234.579
	z"/>
<ellipse stroke="#000000" stroke-miterlimit="10" cx="198.82" cy="266.114" rx="13.088" ry="13.045"/>
<ellipse stroke="#000000" stroke-miterlimit="10" cx="228.821" cy="333.373" rx="13.088" ry="13.045"/>
<ellipse stroke="#000000" stroke-miterlimit="10" cx="333.601" cy="157.06" rx="13.088" ry="13.045"/>
<path fill="#FFFFFF" stroke="#FFFFFF" stroke-miterlimit="10" d="M329.824,106.849c-76.897,10.955-211.508,146.219-211.508,146.219
	v-16.116l102.375-86.992l76.423-43.11H329.824z"/>
</svg>
