<?xml version="1.0" encoding="utf-8"?>
<!-- Generator: Adobe Illustrator 16.0.0, SVG Export Plug-In . SVG Version: 6.00 Build 0)  -->
<!DOCTYPE svg PUBLIC "-//W3C//DTD SVG 1.1//EN" "http://www.w3.org/Graphics/SVG/1.1/DTD/svg11.dtd">
<svg version="1.1" id="Layer_2" xmlns="http://www.w3.org/2000/svg" xmlns:xlink="http://www.w3.org/1999/xlink" x="0px" y="0px"
	 width="512px" height="512px" viewBox="0 0 512 512" enable-background="new 0 0 512 512" xml:space="preserve">
<polygon fill="#FFFFFF" stroke="#000000" stroke-miterlimit="10" points="482.697,476.177 29.336,476.177 29.336,29.958 
	115.051,29.958 115.05,84.58 396.563,84.16 397.403,29.958 482.697,29.958 "/>
<rect x="144.167" y="27.815" fill="#FFFFFF" width="18" height="68.949"/>
<rect x="349.553" y="27.982" fill="#FFFFFF" width="17.114" height="70.697"/>
<polygon stroke="#000000" stroke-miterlimit="10" points="463.78,457.683 47.927,457.683 47.927,48.333 95.895,48.333 
	96.301,101.931 416.22,101.931 415.813,48.333 463.78,48.333 "/>
<polygon fill="#406181" points="446.301,444.675 65.407,444.675 65.407,64.957 78.821,64.957 78.821,119.878 433.699,120.284 
	433.293,64.957 446.301,64.957 "/>
<path fill="#FFFFFF" stroke="#FFFFFF" stroke-miterlimit="10" d="M256.017,434.105h-69.472l-47.967-42.683l-0.813-11.789
	l-28.862-11.788V331.26h29.268l-0.406-11.788l-28.862-11.789V270.69h29.675v-17.623l23.589-5.547l-6.109-108.537l42.276-12.195
	c0,0,50.792,123.575,115.843-0.001l42.275,12.201l-6.126,108.536l23.589,5.551l-0.003,17.623l29.675,0.005l-0.005,36.991
	l-28.863,11.785l-0.408,11.788l29.268,0.004l-0.006,36.586l-28.863,11.784l-0.814,11.789l-47.974,42.676l-69.472-0.011
	L256.017,434.105z"/>
<path stroke="#000000" stroke-miterlimit="10" d="M318.161,138.983l27.234,8.133L339.7,253.584l24.383,4.917l-0.002,21.951
	l28.861-0.201l-0.002,20.935l-30.107,11.379l0.021,28.049l27.236,0.004l-0.002,20.73l-26.424,12.6l-0.408,11.789l-38.622,35.768
	l-69.248-0.008v0.008h-69.248l-38.618-35.772l-0.406-11.788l-26.423-12.603v-20.731h27.236l0.025-28.049l-30.107-11.382v-20.935
	l28.862,0.203v-21.951l24.383-4.914l-5.684-106.469l27.236-8.13C192.643,138.983,247.338,258.494,318.161,138.983z"/>
<path fill="#FFFFFF" stroke="#000000" stroke-miterlimit="10" d="M318.92,150.363l17.074,6.096l-6.089,96.544l0.408,11.586
	l23.983,6.501l0.011,110.569l-35.363,30.898l-63.558,0.006v-0.003H191.83l-35.366-30.895V271.098l23.983-6.504l0.407-11.586
	l-6.098-96.544l17.073-6.098C191.83,150.366,247.229,259.303,318.92,150.363z"/>
<path stroke="#000000" stroke-miterlimit="10" d="M331.261,290.306c0,3.424,0.648,6.199-2.775,6.199H183.629
	c-3.424,0-2.775-2.775-2.775-6.199l0,0c0-3.424-0.648-6.199,2.775-6.199h144.856C331.909,284.106,331.261,286.882,331.261,290.306
	L331.261,290.306z"/>
<path stroke="#000000" stroke-miterlimit="10" d="M330.589,319.776c0,3.424,0.648,6.199-2.775,6.199H182.958
	c-3.424,0-2.775-2.775-2.775-6.199l0,0c0-3.424-0.648-6.199,2.775-6.199h144.856C331.237,313.577,330.589,316.353,330.589,319.776
	L330.589,319.776z"/>
<path stroke="#000000" stroke-miterlimit="10" d="M331.261,349.451c0,3.424,0.648,6.199-2.775,6.199H183.629
	c-3.424,0-2.775-2.775-2.775-6.199l0,0c0-3.424-0.648-6.199,2.775-6.199h144.856C331.909,343.252,331.261,346.027,331.261,349.451
	L331.261,349.451z"/>
<path stroke="#000000" stroke-miterlimit="10" d="M330.589,379.939c0,3.424,0.648,6.199-2.775,6.199H182.958
	c-3.424,0-2.775-2.775-2.775-6.199l0,0c0-3.424-0.648-6.199,2.775-6.199h144.856C331.237,373.74,330.589,376.516,330.589,379.939
	L330.589,379.939z"/>
<path fill="#FFFFFF" d="M366.667,27.195c0,4.939-4.004,8.943-8.943,8.943H153.109c-4.939,0-8.943-4.004-8.943-8.943l0,0
	c0-4.939,4.004-8.943,8.943-8.943h204.614C362.663,18.252,366.667,22.256,366.667,27.195L366.667,27.195z"/>
</svg>
