<?xml version="1.0" encoding="utf-8"?>
<!-- Generator: Adobe Illustrator 16.0.0, SVG Export Plug-In . SVG Version: 6.00 Build 0)  -->
<!DOCTYPE svg PUBLIC "-//W3C//DTD SVG 1.1//EN" "http://www.w3.org/Graphics/SVG/1.1/DTD/svg11.dtd">
<svg version="1.1" id="Layer_2" xmlns="http://www.w3.org/2000/svg" xmlns:xlink="http://www.w3.org/1999/xlink" x="0px" y="0px"
	 width="512px" height="512px" viewBox="0 0 512 512" enable-background="new 0 0 512 512" xml:space="preserve">
<g>
	<polygon fill="#FFFFFF" stroke="#000000" stroke-miterlimit="10" points="433.538,350.126 217.992,315.252 397.823,388.781 
		274.715,436.261 385.639,458.949 385.219,475.756 29.756,475.756 29.756,29.538 352.025,29.729 350.366,14.187 360.849,29.648 
		481.438,29.538 481.438,166.513 501.185,145.924 481.438,240.882 481.438,264.832 470.933,264.832 463.79,256 468.832,211.05 
		448.664,230.378 405.807,157.269 	"/>
	<polygon stroke="#000000" stroke-miterlimit="10" points="196.563,440.462 270.513,457.689 48.244,457.689 48.244,48.025 
		463.37,48.025 463.37,184.58 452.025,201.807 452.025,65.672 65.471,65.672 65.471,440.462 	"/>
	<polygon fill="#8F707A" points="337.319,388.781 196.563,440.462 65.471,440.462 65.471,65.672 452.025,65.672 452.025,201.807 
		352.025,18.613 409.168,326.177 33.958,263.781 	"/>
	<path stroke="#000000" stroke-miterlimit="10" d="M249.084,247.185l40.757,41.177h34.453l48.739-49.16V209.79l-42.437-42.437
		l15.126-16.807l-50.42-48.74l-16.387,18.067l-23.109-23.109c-39.496,38.235-68.487,0-68.487,0l-49.16,46.219l54.622,55.042
		L65.471,326.177v104.622L249.084,247.185z"/>
	<polygon fill="#FFFFFF" stroke="#000000" stroke-miterlimit="10" points="65.471,343.403 65.471,414.832 235.219,244.664 
		199.504,209.37 	"/>
	<path fill="#FFFFFF" stroke="#000000" stroke-miterlimit="10" d="M313.79,277.438l47.059-46.219v-13.866L253.286,110.21
		c-40.336,40.756-70.168,3.782-70.168,3.782l-26.891,26.891l138.656,136.555H313.79z"/>
	
		<rect x="283.582" y="130.109" transform="matrix(0.7181 0.696 -0.696 0.7181 183.2584 -176.6151)" fill="#FFFFFF" stroke="#000000" stroke-miterlimit="10" width="52.102" height="15.575"/>
	<polygon fill="#FFFFFF" points="362.341,74.135 352.025,18.613 382.333,74.135 	"/>
	<polygon fill="#FFFFFF" points="33.958,263.781 83.23,284.084 90.994,273.266 	"/>
	<line fill="none" stroke="#FFFFFF" stroke-miterlimit="10" x1="446.82" y1="209.37" x2="468.332" y2="177.602"/>
	<line fill="none" stroke="#FFFFFF" stroke-miterlimit="10" x1="449.165" y1="206.823" x2="470.677" y2="175.055"/>
	<line fill="none" stroke="#FFFFFF" stroke-miterlimit="10" x1="443.697" y1="191.808" x2="459.334" y2="211.175"/>
	<polygon fill="#FFFFFF" points="409.001,47.336 325.668,47.336 325.668,32.639 352.834,32.639 352.025,18.613 362.334,32.975 
		409.001,32.639 	"/>
	<rect x="31.5" y="235.836" fill="#FFFFFF" width="16" height="73.667"/>
</g>
</svg>
