<?xml version="1.0" encoding="utf-8"?>
<!-- Generator: Adobe Illustrator 16.0.0, SVG Export Plug-In . SVG Version: 6.00 Build 0)  -->
<!DOCTYPE svg PUBLIC "-//W3C//DTD SVG 1.1//EN" "http://www.w3.org/Graphics/SVG/1.1/DTD/svg11.dtd">
<svg version="1.1" id="Layer_2" xmlns="http://www.w3.org/2000/svg" xmlns:xlink="http://www.w3.org/1999/xlink" x="0px" y="0px"
	 width="512px" height="512px" viewBox="0 0 512 512" enable-background="new 0 0 512 512" xml:space="preserve">
<g>
	<path fill="#FFFFFF" stroke="#000000" stroke-miterlimit="10" d="M264.21,29.538c0,0,29.411-41.177,65.546-11.765
		c0,0,92.438-56.723,130.253,48.319c0,0,26.05,10.504,22.269,47.059c0,0,48.32,39.075,5.883,81.092c0,0,4.621,14.706-5.463,41.597
		l-0.42,239.916H30.176V29.538H264.21z"/>
	<path stroke="#000000" stroke-miterlimit="10" d="M48.664,48.445H264.63c0,0,31.094-44.538,62.186-17.227
		c0,0,86.554-50.84,123.949,44.538c0,0,26.891,6.303,21.849,43.277c0,0,40.756,31.933,3.781,72.269c0,0,8.403,23.109-10.084,42.857
		l-2.94,7.563l-0.421,215.967H48.664V48.445z"/>
	<path fill="#8F707A" d="M66.311,66.092v373.53h379.412V237.686c0,0,26.05-16.551,18.907-50.585c0,0,35.716-34.875-6.302-66.807
		c0,0,5.041-28.572-20.589-40.756c0,0-21.429-84.874-110.084-33.193c0,0-29.539-35.294-55.105,14.286
		c0,0-18.423-2.521-24.726,13.025l-25.21,17.227l-2.941-13.025l2.101-11.765H66.311z"/>
	<path fill="#FFFFFF" stroke="#FFFFFF" stroke-miterlimit="10" d="M233.117,37.3c0,0-21.008,11.581-25.21,48.84l7.143,8.057
		c0,0,13.025-48.84,49.58-48.336L252.865,34.28L233.117,37.3z"/>
	<path fill="#FFFFFF" d="M469.472,232.821c0,0-20.808,12.545-30.472-3.422c0,0-3.361-3.782-2.101-5.042
		c0,0-11.344,1.681-5.462,21.009c0,0,7.142,12.604,34.873,7.143l9.244-11.344L469.472,232.821z"/>
	<g>
		<path fill="#FFFFFF" d="M88.16,340.042c0,0,0.795-1.125,2.287-3.235c1.499-2.105,3.662-5.219,6.484-9.129
			c5.642-7.823,13.61-19.068,23.336-32.438c4.868-6.682,10.142-13.92,15.72-21.576c5.607-7.634,11.52-15.684,17.637-24.012
			c6.147-8.305,12.499-16.888,18.953-25.609c6.483-8.699,13.069-17.537,19.654-26.374c6.623-8.81,13.246-17.62,19.765-26.292
			c6.502-8.685,12.995-17.162,19.227-25.404c6.266-8.216,12.324-16.159,18.068-23.69c5.773-7.509,11.232-14.609,16.271-21.163
			c5.037-6.555,9.703-12.527,13.842-17.819c4.134-5.295,7.738-9.911,10.707-13.712c2.957-3.809,5.334-6.762,6.933-8.793
			c1.604-2.026,2.46-3.106,2.46-3.106s-0.795,1.125-2.286,3.236c-1.498,2.105-3.662,5.219-6.483,9.13
			c-2.811,3.919-6.224,8.678-10.139,14.138c-3.91,5.462-8.325,11.622-13.195,18.302c-4.867,6.682-10.142,13.92-15.719,21.576
			c-5.607,7.634-11.521,15.684-17.638,24.012c-6.151,8.303-12.454,16.921-18.955,25.607c-6.484,8.699-13.07,17.536-19.656,26.374
			c-6.624,8.809-13.247,17.619-19.766,26.291c-6.548,8.65-12.993,17.164-19.229,25.402c-6.267,8.216-12.324,16.159-18.068,23.69
			c-5.773,7.51-11.232,14.609-16.271,21.163c-10.087,13.101-18.63,23.914-24.546,31.532c-2.957,3.81-5.334,6.763-6.931,8.794
			C89.015,338.962,88.16,340.042,88.16,340.042z"/>
	</g>
	<g>
		<path fill="#FFFFFF" d="M365.471,53.067c0,0-0.443,0.547-1.274,1.573c-0.834,1.023-2.057,2.524-3.613,4.434
			c-3.132,3.803-7.628,9.216-13.105,15.637c-2.734,3.215-5.696,6.698-8.871,10.343c-3.166,3.654-6.489,7.521-9.986,11.467
			c-3.494,3.949-7.062,8.069-10.765,12.185c-3.693,4.125-7.444,8.316-11.195,12.508c-3.785,4.16-7.57,8.32-11.296,12.416
			c-3.711,4.109-7.449,8.075-11.02,11.956c-3.569,3.882-7.072,7.586-10.386,11.107c-3.303,3.531-6.462,6.835-9.382,9.881
			c-5.827,6.106-10.754,11.13-14.218,14.633c-1.741,1.743-3.109,3.113-4.042,4.047c-0.936,0.931-1.435,1.428-1.435,1.428
			s0.443-0.547,1.273-1.573c0.834-1.023,2.057-2.524,3.613-4.435c3.131-3.804,7.625-9.218,13.104-15.639
			c2.731-3.216,5.696-6.697,8.87-10.343c3.164-3.656,6.491-7.519,9.987-11.466c3.495-3.949,7.059-8.073,10.768-12.184
			c3.692-4.125,7.444-8.315,11.195-12.506c3.786-4.16,7.571-8.319,11.298-12.414c3.716-4.105,7.45-8.075,11.021-11.954
			c3.568-3.882,7.075-7.583,10.387-11.106c3.302-3.531,6.463-6.833,9.382-9.881c5.827-6.105,10.752-11.131,14.215-14.635
			c1.741-1.744,3.108-3.114,4.041-4.048C364.972,53.564,365.471,53.067,365.471,53.067z"/>
	</g>
	<g>
		<path fill="#FFFFFF" d="M422.193,130.798c0,0-1.183,1.368-3.253,3.761c-2.098,2.368-5.052,5.79-8.672,9.825
			c-3.608,4.047-7.851,8.738-12.427,13.735c-2.294,2.493-4.664,5.07-7.072,7.688c-2.422,2.606-4.882,5.253-7.342,7.9
			c-2.477,2.631-4.953,5.263-7.392,7.853c-2.451,2.578-4.863,5.115-7.197,7.571c-4.68,4.901-9.078,9.446-12.875,13.316
			c-3.784,3.882-7.003,7.057-9.226,9.308c-2.25,2.225-3.536,3.496-3.536,3.496s1.183-1.368,3.252-3.762
			c2.098-2.368,5.05-5.792,8.671-9.826c3.608-4.047,7.85-8.739,12.428-13.735c2.294-2.493,4.664-5.069,7.073-7.687
			c2.422-2.605,4.882-5.252,7.342-7.899c2.478-2.631,4.954-5.262,7.393-7.853c2.451-2.578,4.863-5.115,7.198-7.57
			c4.681-4.9,9.078-9.445,12.875-13.316c3.785-3.882,7.002-7.058,9.225-9.309C420.907,132.07,422.193,130.798,422.193,130.798z"/>
	</g>
	<g>
		<path fill="#FFFFFF" d="M452.65,145.084c0,0-0.458,0.461-1.317,1.326c-0.863,0.86-2.11,2.144-3.735,3.734
			c-3.234,3.199-7.875,7.747-13.518,13.122c-2.817,2.692-5.869,5.609-9.135,8.651c-3.258,3.051-6.68,6.285-10.272,9.57
			c-3.591,3.289-7.262,6.73-11.063,10.148c-3.791,3.429-7.642,6.913-11.493,10.396c-3.882,3.449-7.764,6.899-11.585,10.294
			c-3.807,3.412-7.631,6.682-11.29,9.893c-3.658,3.213-7.241,6.266-10.632,9.17c-3.38,2.915-6.609,5.633-9.595,8.138
			c-5.956,5.024-10.984,9.14-14.518,12.006c-1.759,1.441-3.17,2.541-4.12,3.305c-0.953,0.76-1.462,1.165-1.462,1.165
			s0.458-0.461,1.317-1.327c0.862-0.861,2.109-2.145,3.733-3.736c3.234-3.2,7.873-7.75,13.517-13.124
			c2.815-2.694,5.869-5.608,9.134-8.651c3.256-3.054,6.681-6.284,10.273-9.569c3.591-3.288,7.258-6.733,11.063-10.146
			c3.792-3.429,7.644-6.912,11.495-10.395c3.882-3.449,7.765-6.898,11.586-10.292c3.812-3.406,7.633-6.681,11.292-9.891
			c3.657-3.214,7.244-6.263,10.632-9.169c3.38-2.915,6.611-5.631,9.595-8.138c5.957-5.024,10.983-9.142,14.516-12.009
			c1.759-1.442,3.17-2.542,4.119-3.306C452.142,145.489,452.65,145.084,452.65,145.084z"/>
	</g>
	<g>
		<path fill="#FFFFFF" d="M436.479,203.067c0,0-0.527,0.468-1.516,1.346c-0.992,0.873-2.427,2.178-4.294,3.789
			c-3.733,3.225-9.012,7.897-15.443,13.385c-3.219,2.74-6.706,5.709-10.394,8.849c-3.706,3.119-7.613,6.408-11.656,9.81
			c-4.06,3.381-8.256,6.874-12.519,10.424c-4.28,3.529-8.629,7.113-12.977,10.698c-4.37,3.559-8.74,7.117-13.042,10.619
			c-4.291,3.516-8.57,6.907-12.682,10.226c-8.24,6.615-15.971,12.74-22.633,17.948c-6.645,5.228-12.267,9.48-16.163,12.506
			c-1.947,1.513-3.509,2.663-4.561,3.464c-1.056,0.796-1.618,1.221-1.618,1.221s0.527-0.469,1.515-1.347
			c0.992-0.873,2.428-2.178,4.294-3.79c3.733-3.225,9.009-7.899,15.441-13.387c6.416-5.507,13.943-11.882,22.051-18.659
			c4.063-3.377,8.229-6.906,12.52-10.422c4.28-3.528,8.629-7.113,12.978-10.697c4.37-3.558,8.741-7.116,13.043-10.619
			c4.319-3.481,8.569-6.908,12.683-10.223c4.132-3.294,8.125-6.479,11.912-9.498c3.804-2.998,7.4-5.833,10.721-8.45
			c6.646-5.227,12.267-9.482,16.162-12.508c1.947-1.514,3.509-2.664,4.56-3.465C435.917,203.492,436.479,203.067,436.479,203.067z"
			/>
	</g>
	<path fill="#FFFFFF" stroke="#000000" stroke-width="3" stroke-miterlimit="10" d="M256.003,74.495
		c72.497,0.001,103.553,70.589,103.553,70.589c13.867,27.312,0,75.21,0,75.21c-8.824,15.126-12.186,64.287-12.186,64.287
		c-2.102,4.622-7.563,6.722-7.563,6.722c-25.21,7.983-26.471,21.008-26.471,21.008c-4.202,9.243,0.84,17.228,0.84,17.228
		c10.504,0.841,13.025,10.504,13.025,10.504c18.907-7.142,24.37,0.001,24.37,0.001c32.354,23.529,30.672,40.336,30.672,40.336
		c5.463,24.369-29.833,50.841-29.833,50.841c-22.688,15.966-42.437-0.001-42.437-0.001l-24.789-25.631
		c-4.623-11.345,0-26.05,0-26.05h-9.453v5.042h-16.178v-6.723H256c0,0,0-7.144,0-7.144v7.144h-3.555v6.723h-16.177v-5.042h-9.454
		c0,0,4.622,14.705,0,26.05l-24.79,25.631c0,0-19.748,15.967-42.437,0c0,0-35.294-26.472-29.832-50.841
		c0,0-1.681-16.807,30.672-40.336c0,0,5.462-7.143,24.37,0c0,0,2.521-9.663,13.025-10.504c0,0,5.042-7.984,0.84-17.228
		c0,0-1.261-13.024-26.471-21.008c0,0-5.462-2.101-7.563-6.723c0,0-3.362-49.16-12.185-64.286c0,0-13.866-47.899,0-75.21
		c0,0,31.059-70.588,103.555-70.588L256.003,74.495z"/>
	
		<line fill="none" stroke="#000000" stroke-width="3" stroke-miterlimit="10" x1="231.017" y1="379.538" x2="231.017" y2="371.975"/>
	
		<line fill="none" stroke="#000000" stroke-width="3" stroke-miterlimit="10" x1="280.177" y1="379.538" x2="280.177" y2="371.975"/>
	<path fill="#8F707A" stroke="#000000" stroke-width="3" stroke-miterlimit="10" d="M187.319,215.252v34.874
		c0,0,6.722,23.53,36.975,26.051c0,0,17.647,0.84,17.227-24.37c0,0,3.781-11.223-10.504-17.166
		C231.017,234.641,203.706,227.857,187.319,215.252z"/>
	<path fill="#8F707A" stroke="#000000" stroke-width="3" stroke-miterlimit="10" d="M324.313,215.254l-0.002,34.874
		c0,0-6.725,23.529-36.978,26.048c0,0-17.647,0.839-17.226-24.372c0,0-3.78-11.223,10.507-17.165
		C280.614,234.639,307.925,227.857,324.313,215.254z"/>
	<path fill="#8F707A" stroke="#000000" stroke-width="3" stroke-miterlimit="10" d="M258.042,321.975
		c3.585-4.624,19.73-0.013,19.73-0.013c-11.565-17.64-19.761-45.782-19.761-45.782H256c0,0-8.177,28.147-19.731,45.795
		c0,0,16.144-4.622,19.731,0H258.042z"/>
	<path fill="none" stroke="#000000" stroke-width="3" stroke-miterlimit="10" d="M184.798,340.042c0,0,28.991,17.647,42.017,39.496"
		/>
	<path fill="none" stroke="#000000" stroke-width="3" stroke-miterlimit="10" d="M285.186,379.538c0,0,10.471-30.253,42.017-39.496"
		/>
	<path fill="none" stroke="#000000" stroke-width="3" stroke-miterlimit="10" d="M139.005,359.79c0,0,42.431,13.19,66.801,67.52"/>
	<path fill="none" stroke="#000000" stroke-width="3" stroke-miterlimit="10" d="M305.177,427.31c0,0,23.662-52.813,67.818-67.52"/>
</g>
</svg>
