<?xml version="1.0" encoding="utf-8"?>
<!-- Generator: Adobe Illustrator 16.0.0, SVG Export Plug-In . SVG Version: 6.00 Build 0)  -->
<!DOCTYPE svg PUBLIC "-//W3C//DTD SVG 1.1//EN" "http://www.w3.org/Graphics/SVG/1.1/DTD/svg11.dtd">
<svg version="1.1" id="Layer_2" xmlns="http://www.w3.org/2000/svg" xmlns:xlink="http://www.w3.org/1999/xlink" x="0px" y="0px"
	 width="512px" height="512px" viewBox="0 0 512 512" enable-background="new 0 0 512 512" xml:space="preserve">
<polygon fill="#FFFFFF" stroke="#000000" stroke-miterlimit="10" points="481.857,482.059 29.756,482.059 29.756,41.723 
	481.857,41.723 481.857,107.689 444.883,174.916 444.883,400.546 481.857,412.731 "/>
<polygon stroke="#000000" stroke-miterlimit="10" points="457.067,464.412 47.824,464.412 47.824,60.21 457.067,60.21 
	457.067,152.762 444.883,174.916 444.883,400.546 457.067,404.562 "/>
<rect x="60.429" y="71.555" fill="#A22229" width="384.454" height="381.093"/>
<polygon fill="#FFFFFF" stroke="#FFFFFF" stroke-miterlimit="10" points="462.95,426.219 252.866,350.588 42.362,426.219 
	42.362,402.269 252.866,329.58 462.95,407.73 "/>
<circle fill="#FFFFFF" stroke="#000000" stroke-width="4" stroke-miterlimit="10" cx="252.656" cy="340.882" r="25.21"/>
<path fill="#FFFFFF" stroke="#000000" stroke-width="4" stroke-miterlimit="10" d="M227.445,318.613h10.294
	c0,0,12.604-10.504,30.251,0h9.874v-35.714h41.387l18.067-10.925h41.597l12.185,10.504l42.857,0.421l5.462-5.462v-36.555
	L433.538,235h-42.438l-11.765,11.345h-41.597l-17.646-18.067h-42.228v-35.714H264.21l-17.227,23.95l-186.555,0.42l-6.303,5.462
	v78.151l6.303,7.144l119.748-0.421l12.605-12.604l23.109,0.42L227.445,318.613z"/>
<polygon fill="#FFFFFF" stroke="#000000" stroke-miterlimit="10" points="439.42,223.235 469.672,156.429 462.529,216.513 
	505.387,186.261 465.891,256.003 505.387,315.252 462.529,294.244 469.252,354.748 439.42,289.202 444.883,283.739 444.883,270.294 
	462.529,277.017 451.185,256.003 462.529,235 444.883,241.723 444.883,229.118 "/>
<rect x="89.84" y="234.58" stroke="#000000" stroke-miterlimit="10" width="137.605" height="12.185"/>
<rect x="271.773" y="240.672" stroke="#000000" stroke-miterlimit="10" width="6.092" height="30.462"/>
<rect x="289" y="240.672" stroke="#000000" stroke-miterlimit="10" width="5.883" height="30.462"/>
<rect x="307.067" y="240.672" stroke="#000000" stroke-miterlimit="10" width="6.303" height="30.462"/>
<rect x="179.756" y="180.378" fill="#FFFFFF" stroke="#000000" stroke-miterlimit="10" width="49.58" height="18.908"/>
<rect x="187.74" y="150.336" transform="matrix(0.9945 -0.1048 0.1048 0.9945 -15.5739 23.1501)" fill="#FFFFFF" stroke="#000000" stroke-miterlimit="10" width="49.58" height="18.907"/>
<rect x="173.049" y="119.49" transform="matrix(0.9304 -0.3665 0.3665 0.9304 -33.4898 81.4696)" fill="#FFFFFF" stroke="#000000" stroke-miterlimit="10" width="49.58" height="18.907"/>
<rect x="154.966" y="83.73" transform="matrix(0.9304 -0.3665 0.3665 0.9304 -21.6429 72.3554)" fill="#FFFFFF" stroke="#000000" stroke-miterlimit="10" width="49.58" height="18.907"/>
<rect x="12.369" y="8.43" transform="matrix(0.9304 -0.3665 0.3665 0.9304 -3.9685 14.8612)" fill="#FFFFFF" stroke="#000000" stroke-miterlimit="10" width="49.58" height="18.907"/>
<rect x="143.773" y="41.891" transform="matrix(0.7231 -0.6907 0.6907 0.7231 11.205 130.6415)" fill="#FFFFFF" stroke="#000000" stroke-miterlimit="10" width="49.58" height="18.906"/>
<rect x="65.05" y="17.932" transform="matrix(0.7231 -0.6907 0.6907 0.7231 5.9584 69.6345)" fill="#FFFFFF" stroke="#000000" stroke-miterlimit="10" width="49.58" height="18.906"/>
<rect x="112.488" y="26.31" transform="matrix(0.6314 -0.7755 0.7755 0.6314 22.8691 119.6376)" fill="#FFFFFF" stroke="#000000" stroke-miterlimit="10" width="49.58" height="18.906"/>
</svg>
