<?xml version="1.0" encoding="utf-8"?>
<!-- Generator: Adobe Illustrator 16.0.0, SVG Export Plug-In . SVG Version: 6.00 Build 0)  -->
<!DOCTYPE svg PUBLIC "-//W3C//DTD SVG 1.1//EN" "http://www.w3.org/Graphics/SVG/1.1/DTD/svg11.dtd">
<svg version="1.1" id="Layer_2" xmlns="http://www.w3.org/2000/svg" xmlns:xlink="http://www.w3.org/1999/xlink" x="0px" y="0px"
	 width="512px" height="512px" viewBox="0 0 512 512" enable-background="new 0 0 512 512" xml:space="preserve">
<rect x="26.395" y="35.84" fill="#FFFFFF" stroke="#000000" stroke-miterlimit="10" width="455.462" height="446.218"/>
<rect x="44.462" y="53.908" stroke="#000000" stroke-miterlimit="10" width="418.487" height="410.083"/>
<polygon fill="#8F707A" points="445.723,445.504 62.95,445.504 62.95,71.975 153.706,71.975 153.706,35.84 348.664,35.84 
	348.244,71.975 445.723,71.975 "/>
<circle stroke="#000000" stroke-miterlimit="10" cx="251.395" cy="126.176" r="30.042"/>
<circle stroke="#000000" stroke-miterlimit="10" cx="251.395" cy="288.991" r="30.042"/>
<rect x="221.353" y="126.176" stroke="#000000" stroke-miterlimit="10" width="60.084" height="162.815"/>
<circle fill="#FFFFFF" cx="251.396" cy="126.176" r="17.857"/>
<circle fill="#FFFFFF" cx="251.396" cy="288.99" r="17.857"/>
<rect x="233.539" y="126.176" fill="#FFFFFF" width="35.714" height="162.814"/>
<circle stroke="#000000" stroke-miterlimit="10" cx="348.259" cy="163.572" r="29.832"/>
<circle stroke="#000000" stroke-miterlimit="10" cx="154.966" cy="162.731" r="29.832"/>
<rect x="141.941" y="12.102" stroke="#000000" stroke-miterlimit="10" width="223.109" height="41.806"/>
<circle fill="none" stroke="#000000" stroke-miterlimit="10" cx="161.059" cy="83.32" r="23.74"/>
<circle stroke="#000000" stroke-miterlimit="10" cx="341.311" cy="83.32" r="23.739"/>
<circle stroke="#000000" stroke-miterlimit="10" cx="361.269" cy="35.841" r="23.739"/>
<circle fill="none" stroke="#000000" stroke-miterlimit="10" cx="141.941" cy="35.841" r="23.739"/>
<circle stroke="#000000" stroke-miterlimit="10" cx="209.017" cy="78.678" r="12.034"/>
<circle stroke="#000000" stroke-miterlimit="10" cx="251.672" cy="78.678" r="12.034"/>
<circle stroke="#000000" stroke-miterlimit="10" cx="294.042" cy="78.678" r="12.034"/>
<rect x="196.983" y="40.855" stroke="#000000" stroke-miterlimit="10" width="24.068" height="37.823"/>
<rect x="239.639" y="40.855" stroke="#000000" stroke-miterlimit="10" width="24.068" height="37.823"/>
<rect x="282.008" y="40.855" stroke="#000000" stroke-miterlimit="10" width="24.068" height="37.823"/>
<polygon stroke="#000000" stroke-miterlimit="10" points="339.313,26.809 320.544,71.815 362.899,93.19 384.369,41.301 "/>
<polyline stroke="#000000" stroke-miterlimit="10" points="139.667,93.191 181.824,71.815 163.897,26.809 118.833,41.299 
	139.667,93.191 118.833,41.3 "/>
<circle stroke="#000000" stroke-miterlimit="10" cx="161.059" cy="83.319" r="23.74"/>
<circle stroke="#000000" stroke-miterlimit="10" cx="141.941" cy="35.84" r="23.739"/>
<circle fill="#FFFFFF" stroke="#FFFFFF" stroke-miterlimit="10" cx="161.059" cy="83.32" r="15.861"/>
<circle fill="#FFFFFF" stroke="#FFFFFF" stroke-miterlimit="10" cx="141.942" cy="35.841" r="15.861"/>
<circle fill="#FFFFFF" stroke="#FFFFFF" stroke-miterlimit="10" cx="361.269" cy="35.839" r="15.861"/>
<circle stroke="#000000" stroke-miterlimit="10" cx="209.017" cy="18.545" r="12.034"/>
<circle stroke="#000000" stroke-miterlimit="10" cx="294.042" cy="18.545" r="12.034"/>
<rect x="209.017" y="6.512" stroke="#000000" stroke-miterlimit="10" width="85.024" height="24.066"/>
<circle fill="#FFFFFF" stroke="#FFFFFF" stroke-miterlimit="10" cx="341.311" cy="83.32" r="15.861"/>
<polygon fill="#FFFFFF" stroke="#FFFFFF" stroke-miterlimit="10" points="175.447,76.645 156.124,28.74 126.895,40.855 
	146.417,89.425 "/>
<polygon fill="#FFFFFF" stroke="#FFFFFF" stroke-miterlimit="10" points="355.953,89.425 376.315,40.855 347.086,28.74 
	326.922,76.645 "/>
<rect x="141.941" y="19.98" fill="#FFFFFF" stroke="#FFFFFF" stroke-miterlimit="10" width="219.327" height="26.785"/>
<circle fill="#FFFFFF" stroke="#FFFFFF" stroke-miterlimit="10" cx="251.673" cy="78.678" r="6.444"/>
<circle fill="#FFFFFF" stroke="#FFFFFF" stroke-miterlimit="10" cx="294.042" cy="78.678" r="6.444"/>
<circle fill="#FFFFFF" stroke="#FFFFFF" stroke-miterlimit="10" cx="208.748" cy="78.678" r="6.444"/>
<rect x="202.304" y="40.855" fill="#FFFFFF" stroke="#FFFFFF" stroke-miterlimit="10" width="12.889" height="37.823"/>
<rect x="245.229" y="40.855" fill="#FFFFFF" stroke="#FFFFFF" stroke-miterlimit="10" width="12.889" height="37.823"/>
<rect x="287.598" y="40.855" fill="#FFFFFF" stroke="#FFFFFF" stroke-miterlimit="10" width="12.889" height="37.823"/>
<circle fill="#FFFFFF" stroke="#FFFFFF" stroke-miterlimit="10" cx="208.748" cy="18.545" r="6.444"/>
<circle fill="#FFFFFF" stroke="#FFFFFF" stroke-miterlimit="10" cx="294.042" cy="18.545" r="6.444"/>
<rect x="208.748" y="12.101" fill="#FFFFFF" stroke="#FFFFFF" stroke-miterlimit="10" width="85.294" height="12.888"/>
<path stroke="#000000" stroke-miterlimit="10" d="M251.681,361.882c54.833-3.772,74.479-30.24,74.479-30.24
	c78.477-76.04,0.021-148.715,0.021-148.715l45.859-38.042c0,0,103.717,101.485-0.033,227.101c0,0-43.654,49.573-120.335,49.981
	l-0.277,0.009c-76.681-0.42-120.328-50-120.328-50c-103.731-125.631,0-227.1,0-227.1l45.854,38.049c0,0-78.466,72.664,0,148.715
	c0,0,19.643,26.471,74.475,30.252"/>
<circle fill="#FFFFFF" stroke="#FFFFFF" stroke-miterlimit="10" cx="154.967" cy="162.731" r="17.857"/>
<circle fill="#FFFFFF" stroke="#FFFFFF" stroke-miterlimit="10" cx="348.259" cy="163.572" r="17.857"/>
<path fill="#FFFFFF" stroke="#FFFFFF" stroke-miterlimit="10" d="M251.401,374.069c53.15,0.006,83.712-36.545,83.712-36.545
	c79.704-84.372,0.021-162.259,0.021-162.259l27.386-22.718c0,0,98.684,98.019-0.028,214.813c0,0-37.777,45.373-111.097,45.363
	l0,0.008c-73.32,0-111.091-45.379-111.091-45.379c-98.696-116.808,0-214.813,0-214.813l27.382,22.722c0,0-79.692,77.876,0,162.26
	c0,0,30.558,36.555,83.708,36.555L251.401,374.069z"/>
</svg>
