<?xml version="1.0" encoding="utf-8"?>
<!-- Generator: Adobe Illustrator 16.0.0, SVG Export Plug-In . SVG Version: 6.00 Build 0)  -->
<!DOCTYPE svg PUBLIC "-//W3C//DTD SVG 1.1//EN" "http://www.w3.org/Graphics/SVG/1.1/DTD/svg11.dtd">
<svg version="1.1" id="Layer_2" xmlns="http://www.w3.org/2000/svg" xmlns:xlink="http://www.w3.org/1999/xlink" x="0px" y="0px"
	 width="512px" height="512px" viewBox="0 0 512 512" enable-background="new 0 0 512 512" xml:space="preserve">
<g>
	<rect x="30.176" y="36.261" fill="#FFFFFF" stroke="#000000" stroke-miterlimit="10" width="451.681" height="445.798"/>
	<rect x="48.244" y="54.328" stroke="#000000" stroke-miterlimit="10" width="415.546" height="409.244"/>
	<rect x="65.471" y="71.975" fill="#CF5E33" width="380.672" height="374.37"/>
	<polygon points="341.521,361.891 343.202,374.496 345.723,383.319 355.109,393.679 349.504,392.983 344.462,392.983 
		338.16,392.563 329.756,395.925 323.033,403.067 309.235,413.604 298.244,415.252 298.244,415.252 315.051,401.387 
		322.613,386.261 312.529,383.319 301.185,386.261 281.017,395.504 214.645,391.697 207.796,387.89 202.445,386.261 
		184.588,389.202 173.034,383.319 168.832,369.033 164.63,360.63 155.387,359.79 138.39,375.073 127.235,379.538 119.252,374.075 
		102.478,373.435 106.647,369.874 116.731,368.193 126.815,371.975 134.378,367.353 152.906,348.364 166.44,346.765 
		167.992,332.479 162.109,324.916 164.209,312.808 170.639,291.092 169.25,274.719 163.37,270.714 155.807,285 147.403,288.781 
		130.597,282.059 129.756,278.697 149.084,280.799 154.126,261.471 161.269,256.219 170.933,251.807 175.555,238.361 
		175.555,205.168 168.412,198.025 160.849,195.924 154.546,193.824 145.303,191.303 136.479,190.882 122.613,183.74 
		136.445,185.301 153.514,187.401 165.05,185 168.954,176.136 169.252,167.773 173.034,162.731 174.713,151.806 178.076,146.765 
		180.597,141.303 180.177,137.101 173.034,139.622 169.672,137.941 178.076,130.378 180.597,128.277 189.42,129.958 
		196.143,125.756 202.445,129.538 210.429,132.899 217.151,132.899 227.655,126.597 231.437,125.756 239.586,123.554 
		253.286,129.538 268.218,132.135 275.135,127.437 271.773,121.134 264.358,116.999 249.776,101.137 256.857,102.317 
		258.748,104.748 268.218,110.63 275.818,112.417 283.117,121.134 290.681,125.756 304.515,125.098 318.67,122.701 332.697,127.017 
		338.16,132.899 341.941,137.941 338.16,146.345 340.681,153.067 348.664,153.067 359.206,156.429 371.353,161.471 387.739,162.311 
		404.546,160.63 413.148,158.173 421.354,156.429 413.37,162.731 390.261,169.034 378.902,169.304 363.864,167.848 355.49,169.239 
		349.925,172.815 348.244,182.479 350.416,193.992 350.099,208.561 348.664,221.134 349.925,228.697 347.823,232.899 
		347.823,236.681 351.185,246.345 357.487,251.807 370.933,252.647 385.957,246.859 381.017,252.647 373.874,256 365.891,256.003 
		355.807,258.194 347.823,256.003 343.202,256 344.873,259.16 347.403,265.252 345.303,273.655 344.883,287.941 345.303,303.907 
		343.622,315.672 345.303,329.538 346.143,336.681 349.084,343.823 356.647,342.563 364.197,343.507 373.181,343.101 
		375.135,346.765 358.328,349.286 350.272,350.479 344.042,354.328 	"/>
	<polygon fill="#FFFFFF" stroke="#000000" stroke-miterlimit="10" points="333.959,367.773 316.311,362.731 273.453,385.841 
		214.21,385.421 178.076,330.379 178.076,313.571 188.58,285 183.538,263.992 183.958,240.462 189.84,229.958 189,211.891 
		178.076,186.261 178.076,172.395 199.504,138.362 216.731,144.664 240.681,132.479 262.109,143.404 286.479,144.244 
		303.285,137.941 328.076,138.782 333.117,143.824 330.598,160.63 336.059,174.496 340.682,199.286 328.496,243.404 
		333.596,271.141 328.4,298.139 331.018,329.538 	"/>
	<polygon fill="#D75D2F" points="175.555,374.496 173.034,358.949 177.655,346.765 183.015,360.21 188.58,371.975 196.143,379.117 
		191.102,382.059 184.378,383.319 178.496,380.799 	"/>
</g>
</svg>
