<?xml version="1.0" encoding="utf-8"?>
<!-- Generator: Adobe Illustrator 16.0.0, SVG Export Plug-In . SVG Version: 6.00 Build 0)  -->
<!DOCTYPE svg PUBLIC "-//W3C//DTD SVG 1.1//EN" "http://www.w3.org/Graphics/SVG/1.1/DTD/svg11.dtd">
<svg version="1.1" id="Layer_1" xmlns="http://www.w3.org/2000/svg" xmlns:xlink="http://www.w3.org/1999/xlink" x="0px" y="0px"
	 width="512px" height="512px" viewBox="0 0 512 512" enable-background="new 0 0 512 512" xml:space="preserve">
<g>
	<rect x="74.5" y="59.5" fill="#FFFFFF" stroke="#000000" stroke-miterlimit="10" width="376" height="375"/>
	<rect x="91.5" y="75.5" stroke="#000000" stroke-miterlimit="10" width="344" height="344"/>
	<rect x="106" y="89" fill="#B24B1D" width="316" height="316"/>
	<path stroke="#000000" stroke-miterlimit="10" d="M105.88,276.174c0,0,24.853,27.177,65.377,26.565l-0.612,66.115l-2.326,5.264
		c0,0-7.346,17.141,7.101,22.038l8.57,13.959l2.082,9.425c0,0,70.031,59.865,135.163,26.809c0,0,52.156-14.692,73.213-81.784
		l-5.264-2.689c0,0,7.03-6.245,9.478-25.834l51.838,3.429v-6.244l-52.326-1.224c0,0-1.25-25.955-2.476-35.505l33.656-10.651
		l-1.72-11.142l-33.428,16.528c0,0-4.348-36.649-25.527-60.645l-5.816,2.736c0,0-4.897-6.855-10.164-10.407
		c-5.264-3.55-43.891,5.264-43.891,5.264l-12.58-0.092c0,0-20.476-2.846-39.575,1.562c0,0,9.733-28.466,1.469-47.381
		c0,0-0.552-21.181-4.469-28.221c0,0-4.897-24.664-33.087-37.979l21.395-30.57h-14.508l-11.937,27.449
		c0,0-18.731-11.615-43.157-12.902c0,0,12.244,11.667,18.855,28.809c0,0-20.324-4.451-34.037-1.757l-3.672,10.018l-43.585,32.311
		l-4.04,80.554c0,0,1.102,7.589,10.407,16.404c0,0-8.692-0.679-13.406-9.004l1.897-7.804l-0.918-13.867l-9.855-35.932L2.182,222.672
		c0,0,65.317,4.591,68.714,6.61c0,0,14.691,4.959,17.171,6.888c0,0,5.601,3.581-0.184,6.336c0,0-0.642,0.734-5.05,2.02
		c0,0,3.765,2.296,5.142,5.326c0,0,3.581,10.835,8.724,17.171C96.698,267.022,100.818,271.474,105.88,276.174z"/>
	<path stroke="#000000" stroke-miterlimit="10" d="M152.342,87.049c0,0,14.38,4.005,17.651,10.128c0,0,26.883,1.441,46.992,14.389
		C216.986,111.566,187.143,90.906,152.342,87.049z"/>
	<path stroke="#000000" stroke-miterlimit="10" d="M287.186,220.836c0,0-10.584-22.65-4.463-25.712c0,0,7.872-7.1,18.645,17.875
		l46.901,9.084l30.379-17.897l24.367-3.735l51.423,36.3l-4.039-16.649c0,0,59.135-74.927-7.957-153.283
		c0,0-18.119-25.103-50.441-33.918c0,0-39.423-21.4-99.413,42.6h-7.102l9.091,6.097l5.601,10.531l7.347,3.43l-4.408,6.076
		L283.832,88.97l-8.264,12.859C275.568,101.829,245.542,152.886,287.186,220.836z"/>
	<polygon stroke="#000000" stroke-miterlimit="10" points="308.074,203.113 299.443,235.435 347.1,234.73 349.578,215.876 	"/>
	<path stroke="#000000" stroke-miterlimit="10" d="M373.023,245.076c0,0,30.363-7.712,51.911-20.69
		C424.935,224.386,407.059,243.974,373.023,245.076z"/>
	<path fill="#FFFFFF" stroke="#FFFFFF" stroke-miterlimit="10" d="M198.897,96.231c0,0-12.718,29.613-23.553,38.428
		c-10.835,8.814-11.959-1.446-13.429-6.589c-1.47-5.142-6.072-26.25-5.889-27.352c0.184-1.101-2.393,34.531-13.044,35.816
		c0,0-15.796,3.309-25.53,11.39c0,0-8.632,7.347-29.936-12.67c0,0,10.468,11.938,13.038,21.487
		c2.571,9.549-8.264,17.63-11.386,29.935c-3.122,12.304-8.264,19.492-8.264,19.492L30.769,218.5h51.972c0,0,7.896-0.485,10.1,8.697
		s4.04,8.205,6.428,12.611c2.387,4.408,4.958,11.818-6.611,27.611c0,0,10.651-6.764,14.691-8.05c4.04-1.285,8.814-2.74,10.835,0.016
		c2.02,2.754,8.631,6.619,12.854,8.088c4.225,1.47,10.101,5.515,6.611,34.53c0,0,7.163-20.934,11.203-24.057
		c0,0,8.632-13.222,16.161-3.488l11.57,13.958l35.26-30.852l-5.326-15.059c0,0,13.59-4.959,17.813-28.649
		c0,0,1.103-5.509,5.693-6.979c0,0,6.29-2.48,21.993-6.703c0,0-22.176-2.663-29.201-10.515c0,0-4.59-4.866,1.836-9.228
		c0,0,7.622-6.014,22.313-16.115c0,0-14.646,4.545-22.772,4.683c0,0-4.132,0.597-10.973-3.167c0,0-0.566-0.429-0.873-0.918
		c0,0-5.586-11.417-19.665-19.252c0,0-2.005-0.857-2.785-2.004C189.898,143.659,184.419,143.031,198.897,96.231z"/>
	<path fill="#FFFFFF" stroke="#FFFFFF" stroke-miterlimit="10" d="M176.584,284.377c0,0-9.366,7.346-13.223,34.342
		c0,0,0.184,2.571-1.469,4.958c0,0-11.57,13.774-38.933,14.692c0,0,25.526,3.121,34.341,8.08c0,0,10.101,4.958,3.306,7.162
		c0,0-23.323,14.691-67.398,33.24c0,0,59.869-12.856,70.52-11.387c0,0,8.08,1.102,10.284,7.346c0,0,5.326,6.979-27.179,39.117
		c0,0,22.038-14.508,42.421-19.101c0,0,1.103-1.101,4.775,2.571c0,0,24.608,23.875,49.585,25.344c0,0,3.396,0.643,7.62-1.194
		c0,0,2.388-2.479,2.754,5.51c0,0,1.378,10.193,1.194,16.528c0,0,3.213-20.018,6.611-22.404c0,0,2.137-2.112,3.594,2.847
		c0,0-0.288,1.47,5.405,0.55c0,0,4.652-1.775,7.712,4.714c3.062,6.49,24.242,39.729,30.486,76.458c0,0-8.631-55.645-8.631-76.029
		c0-20.384,6.122-10.651,11.508-2.815c5.388,7.835,17.876,28.525,22.099,35.32c4.225,6.796-17.629-39.851-17.813-45.911
		c0,0-2.111-4.959,1.103-6.795c3.213-1.836,8.446-3.764,14.782-10.651c0,0,1.838-4.041,7.255-0.091c0,0,8.356,5.233,32.781,15.426
		c0,0-17.631-21.579-22.405-35.812c0,0-0.826-3.122,1.24-5.417c0,0,1.745-2.388,5.417-5.28c0,0,6.014-3.535,14.37-2.066
		c0,0,11.845,0.827,39.668,5.51c0,0-29.017-9.366-43.708-24.241c0,0-6.06-4.865-3.397-10.191c0,0,3.121-15.52-3.307-40.036
		c0,0-1.561-2.479-0.918-5.509c0,0,2.205-13.314,57.665-41.872c0,0-49.492,20.569-66.02,18.09c0,0-3.95-0.368-6.888-3.856
		c0,0-4.04-5.326-8.815-4.684c0,0-4.406-0.366-3.764-3.856c0,0,1.193-6.06,11.844-17.079c0,0-12.028,9.213-18.088,10.744
		c0,0-5.755,1.531-6.061-6.306c0,0-0.917-5.631-8.387-7.468c0,0-3.243-0.183-3.795-2.815c-0.551-2.633-1.408-33.914,10.896-64.583
		c0,0-17.262,39.117-33.423,55.277c0,0-9.917,8.479-17.631-6.366c0,0-11.844-23.384-12.854-34.77c0,0-0.735,36.913-13.406,43.524
		c0,0-23.323,8.998-34.801,16.253C194.03,256.647,176.584,284.377,176.584,284.377z"/>
	<path fill="#FFFFFF" stroke="#FFFFFF" stroke-miterlimit="10" d="M341.682,198.296c0,0-5.755,14.147-5.877,28.226
		c0,0,16.1,5.176,36.424-13.556l-13.928,17.394c0,0,21.931,18.374,29.767,58.04c0,0-1.585-47.375-2.686-60.966
		c0,0-0.363-5.507,4.166-1.1c0,0,7.592,6.857,19.101,27.548c0,0-8.642-16.393-9.67-34.524c0,0,0.001-2.448,3.061-1.959
		c0,0,4.408-0.121,6.611-3.794c0,0,2.326-0.857-4.897-7.835l-2.235-1.714c0,0,32.982,9.917,46.982,21.916v-5.868l-4.803-0.131
		c0,0-3.2-7.958,7.941-28.404c0,0-7.416,10.41-15.128,14.817c0,0-4.012,4.572-7.073-7.264c0,0-5.741-13.304,10.787-15.019
		c0,0,7.871-0.857,34.24,2.816c0,0-21.742-5.999-28.599-21.059c0,0-1.345-3.795,1.227-6.855c0,0,2.448-1.592,1.346-11.02
		c0,0-2.203-16.527-4.649-26.199c0,0-4.042,5.509-7.837,1.836c0,0-1.959-3.918,0.735-6c0,0,17.873-19.711,46.646-34.035
		c0,0-26.322,14.814-56.439,15.671c0,0-10.529,0.245-7.714-12.855c0,0,3.917-13.956,22.772-35.014c0,0-21.671,17.141-29.751,21.181
		c0,0-6.856-6.367-16.651-10.407c0,0,2.816,2.693,6.612,12.121c0,0,2.57,6.611-6.122,0.123c0,0-4.163-3.673-5.141-6.367
		c0,0-5.02-6.855,14.078-68.193c0,0-15.06,41.015-31.098,58.89c0,0-10.283,10.783-16.406-1.711c0,0-6.978-12.004-11.142-34.898
		c0,0,1.226,36.484-13.711,44.198c0,0-15.182,4.53-23.751,11.753c0,0-5.878,5.754-20.202-5.02c0,0,3.308,2.954,4.654,12.249
		c0,0,0.734,3.54,2.692,5.866c0,0,4.775,4.123,5.388,5.061c0,0-24.853-6.908-53.502-23.058c0,0,18.855,13.589,30.119,31.219
		c0,0,3.918,5.509-0.367,8.447c0,0-8.448,9.183-7.103,24.486c0,0,1.959,10.04-11.018,11.631c0,0-7.347,1.225-19.345,3.672
		c0,0,17.506,0.735,26.568,6.979c0,0,4.407,2.694,1.224,6.979c0,0-2.878,4.204-14.815,15.406c0,0,12.029-1.102,21.395,0.735
		c0,0,4.132,0.275,6.704,5.693l14.139-30.944l1.287,40.954l14.141-21.303l-5.234-7.622l20.844-12.304l-22.221,1.102
		c0,0-3.55-19.987,4.531-35.413l21.179,7.836l-14.568-16.639c0,0,16.037-17.588,37.953-17.588h10.773l-0.489,21.827l13.1-17.307
		c0,0,16.039,9.037,21.181,19.076l-10.039,10.273l14.937-1.106c0,0,3.183,4.527,3.183,17.994c0,0,1.471,32.687-32.934,48.726
		l-11.264-18.855l-1.347,20.935L341.682,198.296z"/>
	<path stroke="#000000" stroke-miterlimit="10" d="M168.871,160.599c0,0-55.645-10.651-56.012,41.505l12.855,5.509l-12.855,7.345
		c0,0,16.344,42.79,58.216,31.587l20.936,10.467l-9.367-17.63c0,0,4.684-2.202,8.219-7.162l-10.789-12.304l16.344,3.306
		c0,0,7.162-14.141,1.469-35.26l-4.591-0.184l2.204-6.244c0,0-4.591-9.917-18.365-16.896l-9.182,9.55L168.871,160.599z"/>
	<path fill="#FFFFFF" stroke="#FFFFFF" stroke-miterlimit="10" d="M203.458,237.609c0,0,7.958,0.857,13.711,11.509
		c5.755,10.651,6.367-3.184,6.367-3.184s-12.978-5.02-15.181-14.937C206.151,221.081,203.458,237.609,203.458,237.609z"/>
	<path stroke="#000000" stroke-miterlimit="10" d="M235.534,312.658l-19.099-21.67c0,0,24.792-28.432,59.869-20.185l-1.836,26.796
		l15.241-22.405c0,0,15.243,6.244,26.63,23.506l-11.754,12.488l16.712-2.571c0,0,21.67,51.604-34.71,81.724l-14.324-24.609
		l-1.351,29.2c0,0-44.56,3.673-63.843-36.729l23.323-14.877l-27.73,1.286c0,0-5.509-16.896,4.958-42.606L235.534,312.658z"/>
	<circle fill="#B24B1D" cx="157.536" cy="203.32" r="31.7"/>
	<circle fill="#B24B1D" cx="353.607" cy="146.819" r="25.762"/>
	<circle fill="#B24B1D" cx="263.531" cy="330.189" r="21.63"/>
	<circle fill="#FFFFFF" stroke="#FFFFFF" stroke-miterlimit="10" cx="157.256" cy="203.602" r="15.014"/>
	<circle fill="#FFFFFF" stroke="#FFFFFF" stroke-miterlimit="10" cx="353.412" cy="147.017" r="12.832"/>
	<circle fill="#FFFFFF" stroke="#FFFFFF" stroke-miterlimit="10" cx="263.311" cy="330.409" r="10.882"/>
</g>
</svg>
